<?xml version="1.0" encoding="UTF-8" standalone="no"?>
<svg width="260px" height="250px" viewBox="0 0 260 250" version="1.1" xmlns="http://www.w3.org/2000/svg" xmlns:xlink="http://www.w3.org/1999/xlink">
    <!-- Generator: Sketch 3.8.3 (29802) - http://www.bohemiancoding.com/sketch -->
    <title>Artboard 7</title>
    <desc>Created with Sketch.</desc>
    <defs>
        <polygon id="path-1" points="0 226.571861 153.7074 226.571861 153.7074 0 0 0"></polygon>
        <polygon id="path-3" points="0.0641572946 8.17619048 14.9821655 8.17619048 14.9821655 0.31016619 0.0641572946 0.31016619"></polygon>
        <polygon id="path-5" points="0 201.514719 134.789573 201.514719 134.789573 0 0 0"></polygon>
    </defs>
    <g id="Page-1" stroke="none" stroke-width="1" fill="none" fill-rule="evenodd">
        <g id="Artboard-7">
            <g id="Page-1-Copy-5" transform="translate(3.000000, 21.000000)">
                <path d="M51.3549094,139.041954 L51.7702281,135.336203 L56.2622156,135.336203 L56.6775344,139.041954 C56.7194031,139.231599 56.7434656,139.427471 56.7434656,139.629568 C56.7434656,141.128055 55.5220531,142.343032 54.0162219,142.343032 C52.5099094,142.343032 51.2889781,141.128055 51.2889781,139.629568 C51.2889781,139.427471 51.3130406,139.231599 51.3549094,139.041954 L51.3549094,139.041954 Z" id="Fill-1" fill="#F6CEA7"></path>
                <mask id="mask-2" fill="white">
                    <use xlink:href="#path-1"></use>
                </mask>
                <g id="Clip-4"></g>
                <polygon id="Fill-3" fill="#935F36" mask="url(#mask-2)" points="19.5806187 64.645673 45.9386812 64.645673 45.9386812 41.8383987 19.5806187 41.8383987"></polygon>
                <path d="M44.0761956,41.9026675 C44.4111456,41.8787224 44.7374331,41.9031464 45.0526519,41.9620515 L45.0526519,40.4621274 L45.9030206,40.4621274 C45.9415206,41.4156232 46.3395144,42.2848321 46.9627331,42.9275198 L46.9627331,42.9327878 C47.6287831,43.5606295 48.0734581,44.4250494 48.1446831,45.4077582 C48.1812581,45.9163532 48.1138831,46.4077076 47.9627706,46.8636232 C47.7332144,47.3995156 47.6374456,47.9938342 47.6822019,48.6144924 C47.7404331,49.4180916 48.0407331,50.1441084 48.5147644,50.7254966 C49.0075644,51.3131105 49.3285581,52.0520578 49.3882331,52.8738553 C49.4421331,53.6175916 49.2727331,54.3244523 48.9421144,54.9360114 C48.5951331,55.5571485 48.4242894,56.2812498 48.4796331,57.0431844 C48.5224644,57.6365451 48.7043769,58.1853679 48.9854269,58.6676232 C48.9960144,58.683427 49.0056394,58.6997097 49.0157456,58.7159924 C49.0388456,58.752389 49.0585769,58.7907013 49.0802331,58.8275768 C49.3612831,59.3098321 49.5431956,59.8591338 49.5860269,60.4524945 C49.6346331,61.126311 49.5008456,61.7699565 49.2299019,62.3398511 C48.9637706,62.9059143 48.8242081,63.5423764 48.8728144,64.2099671 C48.9228644,64.9034186 49.1606019,65.5374861 49.5287581,66.0724207 L49.5253894,66.0724207 C49.5600394,66.120311 49.5990206,66.16437 49.6312644,66.2141759 C49.6408894,66.2304586 49.6495519,66.2467414 49.6591769,66.2625451 C49.6817956,66.2998996 49.7024894,66.3377329 49.7260706,66.3741295 C50.0071206,66.8563848 50.1890331,67.4052076 50.2318644,67.9985684 C50.3829769,70.0846696 48.8059206,71.8973173 46.7095956,72.0472139 C44.6137519,72.1975895 42.7922206,70.6282245 42.6415894,68.5421232 C42.4928831,66.4900241 44.0184456,64.7056316 46.0642394,64.5059291 L46.0637581,64.5011401 C43.9679144,64.6510367 42.1463831,63.0816717 41.9952706,60.9960494 C41.8446394,58.9099481 43.4216956,57.0973004 45.5175394,56.9474038 C45.5512269,56.9450093 45.5844331,56.9469249 45.6176394,56.9450093 L45.6161956,56.9277688 C43.6276706,56.941657 41.9423331,55.4197034 41.7974769,53.4174101 C41.6564706,51.4692329 43.0232206,49.7600283 44.9121269,49.4204861 C44.8163581,49.4348532 44.7205894,49.4492203 44.6224144,49.4564038 C42.5265706,49.6063004 40.7050394,48.0369354 40.5539269,45.9513131 C40.4032956,43.8652118 41.9803519,42.0525641 44.0761956,41.9026675" id="Fill-5" fill="#935F36" mask="url(#mask-2)"></path>
                <path d="M21.408695,41.9026675 C21.073745,41.8787224 20.7474575,41.9031464 20.4322387,41.9620515 L20.4322387,40.4621274 L19.61267,40.4621274 C19.57417,41.4156232 19.1453762,42.2848321 18.5221575,42.9275198 L18.5221575,42.9327878 C17.8561075,43.5606295 17.4114325,44.4250494 17.3402075,45.4077582 C17.3036325,45.9163532 17.3710075,46.4077076 17.52212,46.8636232 C17.7516762,47.3995156 17.847445,47.9938342 17.8026887,48.6144924 C17.7444575,49.4180916 17.4441575,50.1441084 16.9701262,50.7254966 C16.4773262,51.3131105 16.1563325,52.0520578 16.0966575,52.8738553 C16.0427575,53.6175916 16.2121575,54.3244523 16.5427762,54.9360114 C16.8897575,55.5571485 17.0606012,56.2812498 17.0052575,57.0431844 C16.9624262,57.6365451 16.7805137,58.1853679 16.4994637,58.6676232 C16.4888762,58.683427 16.4792512,58.6997097 16.469145,58.7159924 C16.446045,58.752389 16.4263137,58.7907013 16.4046575,58.8275768 C16.1236075,59.3098321 15.941695,59.8591338 15.8988637,60.4524945 C15.8502575,61.126311 15.984045,61.7699565 16.2549887,62.3398511 C16.52112,62.9059143 16.6606825,63.5423764 16.6120762,64.2099671 C16.5620262,64.9034186 16.3242887,65.5374861 15.9561325,66.0724207 L15.9595012,66.0724207 C15.9248512,66.120311 15.88587,66.16437 15.8536262,66.2141759 C15.8440012,66.2304586 15.8353387,66.2467414 15.8257137,66.2625451 C15.803095,66.2998996 15.7824012,66.3377329 15.75882,66.3741295 C15.47777,66.8563848 15.2958575,67.4052076 15.2530262,67.9985684 C15.1019137,70.0846696 16.67897,71.8973173 18.775295,72.0472139 C20.8711387,72.1975895 22.69267,70.6282245 22.8433012,68.5421232 C22.9920075,66.4900241 21.466445,64.7056316 19.4206512,64.5059291 L19.4211325,64.5011401 C21.5169762,64.6510367 23.3385075,63.0816717 23.48962,60.9960494 C23.6402512,58.9099481 22.063195,57.0973004 19.9673512,56.9474038 C19.9336637,56.9450093 19.9004575,56.9469249 19.8672512,56.9450093 L19.868695,56.9277688 C21.85722,56.941657 23.5425575,55.4197034 23.6874137,53.4174101 C23.82842,51.4692329 22.46167,49.7600283 20.5727637,49.4204861 C20.6685325,49.4348532 20.7643012,49.4492203 20.8624762,49.4564038 C22.95832,49.6063004 24.7798512,48.0369354 24.9309637,45.9513131 C25.081595,43.8652118 23.5045387,42.0525641 21.408695,41.9026675" id="Fill-6" fill="#935F36" mask="url(#mask-2)"></path>
                <path d="M19.5805706,41.8385424 C19.5805706,51.4453357 24.7617081,59.2337344 32.7596019,59.2337344 C40.4307269,59.2337344 45.9386331,51.4453357 45.9386331,41.8385424 C45.9386331,32.2317492 40.8975394,26.5438188 32.7596019,26.5438188 C24.0889206,26.5438188 19.5805706,32.2317492 19.5805706,41.8385424" id="Fill-7" fill="#935F36" mask="url(#mask-2)"></path>
                <polygon id="Fill-8" fill="#21213B" mask="url(#mask-2)" points="19.9860238 220.213801 25.4929675 220.213801 34.6718488 124.170772 16.7443238 124.170772"></polygon>
                <polygon id="Fill-9" fill="#21213B" mask="url(#mask-2)" points="40.6329 217.518488 35.1259563 217.518488 31.3842375 121.475458 49.3117625 121.475458"></polygon>
                <path d="M47.6261844,218.889778 L36.1579969,215.612646 L34.6627531,220.793897 L46.1309406,224.07103 C47.5689156,224.481928 49.0689719,223.654863 49.4818844,222.22438 C49.8947969,220.793418 49.0641594,219.300677 47.6261844,218.889778" id="Fill-10" fill="#1B1B1B" mask="url(#mask-2)"></path>
                <path d="M32.4022256,221.241192 C33.8647444,221.554873 34.7945194,222.988709 34.4793006,224.444095 C34.1640819,225.899002 32.7232194,226.824243 31.2607006,226.51104 L19.5971256,224.009251 L20.7381694,218.739403 L32.4022256,221.241192 Z" id="Fill-11" fill="#1B1B1B" mask="url(#mask-2)"></path>
                <polygon id="Fill-12" fill="#F6CEA7" mask="url(#mask-2)" points="56.261975 135.336203 51.7704687 135.336203 49.8820437 105.753888 46.7746125 80.0205171 52.8248875 78.8002724 55.957825 104.667258"></polygon>
                <polygon id="Fill-13" fill="#F94235" mask="url(#mask-2)" points="56.5255556 82.6531903 48.4217869 85.8062873 41.6236494 69.7467557 51.9223994 68.2669456"></polygon>
                <path d="M18.1413444,85.3456306 L14.6258131,73.9458247 C14.6258131,66.7881411 17.6831944,60.9321158 24.1324256,60.9321158 L33.6481819,60.9321158 L43.1634569,60.9321158 C49.6126881,60.9321158 52.6705506,66.7881411 52.6705506,73.9458247 L49.1545381,85.3456306 L53.2283194,138.839569 L14.0680444,140.303097 L18.1413444,85.3456306 Z" id="Fill-14" fill="#F94235" mask="url(#mask-2)"></path>
                <path d="M39.1162887,60.9344146 L37.7370262,60.9344146 L37.7370262,55.3149673 L27.74772,55.3149673 L27.74772,60.9344146 L26.0893325,60.9344146 L26.0893325,62.6440981 L26.1023262,62.6440981 C26.1860637,64.6099947 29.0610512,66.1903745 32.6030512,66.1903745 C36.14457,66.1903745 39.0195575,64.6099947 39.103295,62.6440981 L39.1162887,62.6440981 L39.1162887,60.9344146 Z" id="Fill-15" fill="#E9BC96" mask="url(#mask-2)"></path>
                <path d="M44.1750444,42.4175361 C44.1750444,51.4175593 39.6806506,58.7131669 32.7424694,58.7131669 C26.0877444,58.7131669 21.3098944,51.4175593 21.3098944,42.4175361 C21.3098944,33.4179918 25.6830131,28.0892386 32.7424694,28.0892386 C40.2639256,28.0892386 44.1750444,33.4179918 44.1750444,42.4175361" id="Fill-16" fill="#F6CEA7" mask="url(#mask-2)"></path>
                <path d="M31.4561362,41.4110257 C31.4561362,41.7788232 31.1563175,42.0771797 30.7867175,42.0771797 C30.4171175,42.0771797 30.1172987,41.7788232 30.1172987,41.4110257 C30.1172987,41.0432283 30.4171175,40.7448717 30.7867175,40.7448717 C31.1563175,40.7448717 31.4561362,41.0432283 31.4561362,41.4110257" id="Fill-17" fill="#3C3C3B" mask="url(#mask-2)"></path>
                <path d="M39.9988531,41.4110257 C39.9988531,41.7788232 39.6990344,42.0771797 39.3294344,42.0771797 C38.9598344,42.0771797 38.6600156,41.7788232 38.6600156,41.4110257 C38.6600156,41.0432283 38.9598344,40.7448717 39.3294344,40.7448717 C39.6990344,40.7448717 39.9988531,41.0432283 39.9988531,41.4110257" id="Fill-18" fill="#3C3C3B" mask="url(#mask-2)"></path>
                <path d="M39.0864513,50.1009114 C38.2972013,50.8025042 36.7889638,51.2766181 35.0583888,51.2766181 C33.3273325,51.2766181 31.819095,50.8025042 31.029845,50.1009114" id="Fill-19" fill="#3C3C3B" mask="url(#mask-2)"></path>
                <path d="M22.5608075,44.6511873 C22.5608075,46.0730502 23.2331138,47.2252907 24.0627888,47.2252907 C24.8924638,47.2252907 25.56477,46.0730502 25.56477,44.6511873 C25.56477,43.2293245 24.8924638,42.077084 24.0627888,42.077084 C23.2331138,42.077084 22.5608075,43.2293245 22.5608075,44.6511873" id="Fill-20" fill="#F6CEA7" mask="url(#mask-2)"></path>
                <path d="M45.0525556,40.4619838 C45.0525556,40.4619838 33.6993869,37.1302559 29.6193494,33.0705956 C29.6193494,33.0705956 23.8010369,42.888585 20.6729119,43.4014901 L21.2157619,37.825623 L22.7798244,31.7196103 L26.7501369,28.3672897 L32.7595056,27.1700323 L39.5634181,28.9659184 L43.8908181,34.0542622 L44.7970119,39.0228804" id="Fill-21" fill="#935F36" mask="url(#mask-2)"></path>
                <path d="M18.7633119,43.5282078 L20.1430556,42.9166487 C20.3779056,42.8519968 20.6262306,42.7394546 20.8846619,42.5881213 L20.9024681,42.57998 L20.9024681,42.5775854 C22.0632431,41.8898808 23.4232556,40.4100707 24.6899056,38.7937732 C24.7697931,38.9197247 24.8516056,39.0451973 24.9459306,39.1606129 C25.4392119,39.7477479 25.7611681,40.4862162 25.8218056,41.3080137 C25.8766681,42.05175 25.7082306,42.7590897 25.3780931,43.3706487 C25.0315931,43.9922648 24.8621931,44.716366 24.9180181,45.4783006 C24.9618119,46.0716614 25.1442056,46.6204842 25.4257369,47.1022605 C25.4363244,47.1180643 25.4459494,47.134347 25.4560556,47.1506297 C25.4791556,47.1865475 25.4988869,47.2248597 25.5205431,47.2622141 C25.8025556,47.7439905 25.9849494,48.2928133 26.0282619,48.8861741 C26.0778306,49.5599905 25.9450056,50.204115 25.6745431,50.7740095 C25.4088931,51.3405517 25.2702931,51.9770137 25.3193806,52.6446044 C25.3703931,53.337577 25.6086119,53.9716445 25.9777306,54.5061002 L25.9743619,54.5065791 C26.0090119,54.5539905 26.0479931,54.5985285 26.0802369,54.6478555 C26.0898619,54.6641382 26.0990056,54.6804209 26.1086306,54.6967036 C26.1307681,54.7335791 26.1519431,54.7718914 26.1755244,54.8078091 C26.4570556,55.2895854 26.6394494,55.8384082 26.6832431,56.431769 C26.8362806,58.5173914 25.2616306,60.3319546 23.1657869,60.4842458 C21.0694619,60.6370158 19.2464869,59.0700454 19.0929681,56.9839441 C18.9423369,54.9318449 20.4659744,53.1460158 22.5112869,52.9439188 L22.5108056,52.9386508 C20.4149619,53.0914209 18.5915056,51.5239715 18.4384681,49.4383492 C18.2849494,47.3527268 19.8600806,45.5381635 21.9559244,45.3858724 C21.9896119,45.3834778 22.0223369,45.3849146 22.0560244,45.3834778 L22.0545806,45.3662373 C20.6729119,45.3772521 19.4385056,44.6459673 18.7633119,43.5282078" id="Fill-22" fill="#935F36" mask="url(#mask-2)"></path>
                <path id="Fill-23" fill="#935F36" mask="url(#mask-2)"></path>
                <polygon id="Fill-24" fill="#935F36" mask="url(#mask-2)" points="20.6730562 46.2112616 22.561 46.2112616 22.561 44.6509958 20.6730562 44.6509958"></polygon>
                <polygon id="Fill-25" fill="#F6CEA7" mask="url(#mask-2)" points="1.03035625 9.03962848 5.48769375 8.48889008 11.2574 37.5851179 17.5285688 62.7414112 11.6756063 64.6943774 5.36256875 39.4087804"></polygon>
                <path d="M9.23923,61.1916333 L17.0359612,57.3465215 C17.0359612,57.3465215 20.9283112,60.7524793 26.0892362,60.9344624 L15.2601487,75.5515384 L9.23923,61.1916333 Z" id="Fill-26" fill="#F94235" mask="url(#mask-2)"></path>
                <path d="M0.15910125,5.41304008 L1.03016375,9.03977215 L5.48750125,8.48855485 L5.44130125,4.76029536 C5.45958875,4.56729747 5.45862625,4.36951055 5.43360125,4.16932911 C5.24783875,2.68185654 3.88590125,1.62587553 2.39113875,1.81073207 C0.8968575,1.99558861 -0.16478,3.35088397 0.0209825,4.83835654 C0.0460075,5.03853797 0.0941325,5.23009916 0.15910125,5.41304008" id="Fill-27" fill="#F6CEA7" mask="url(#mask-2)"></path>
                <path d="M153.707641,21.3882848 C153.707641,33.2004262 142.190366,42.7765696 127.983384,42.7765696 C113.776403,42.7765696 102.259128,33.2004262 102.259128,21.3882848 C102.259128,9.57614346 113.776403,0 127.983384,0 C142.190366,0 153.707641,9.57614346 153.707641,21.3882848" id="Fill-28" fill="#D6EDEC" mask="url(#mask-2)"></path>
                <polyline id="Fill-29" fill="#D6EDEC" mask="url(#mask-2)" points="110.454334 35.2584637 102.914591 43.6794932 120.400328 39.9076536"></polyline>
                <path d="M114.927649,143.745068 L114.512331,140.039317 L110.020343,140.039317 L109.605024,143.745068 C109.563156,143.934714 109.539093,144.130585 109.539093,144.332682 C109.539093,145.831169 110.760506,147.046146 112.266337,147.046146 C113.772649,147.046146 114.993581,145.831169 114.993581,144.332682 C114.993581,144.130585 114.969518,143.934714 114.927649,143.745068" id="Fill-30" fill="#F6CEA7" mask="url(#mask-2)"></path>
                <path d="M71.758225,143.745068 L71.3429062,140.039317 L66.8509187,140.039317 L66.4356,143.745068 C66.3937312,143.934714 66.3696687,144.130585 66.3696687,144.332682 C66.3696687,145.831169 67.5910812,147.046146 69.0969125,147.046146 C70.603225,147.046146 71.8241562,145.831169 71.8241562,144.332682 C71.8241562,144.130585 71.8000937,143.934714 71.758225,143.745068" id="Fill-31" fill="#F6CEA7" mask="url(#mask-2)"></path>
                <polygon id="Fill-32" fill="#16152D" mask="url(#mask-2)" points="87.0169781 221.190332 81.6553719 221.190332 72.7180781 127.679263 92.5162219 127.679263"></polygon>
                <polygon id="Fill-33" fill="#16152D" mask="url(#mask-2)" points="98.3200969 221.190332 92.9584906 221.190332 89.3149469 127.679263 109.113091 127.679263"></polygon>
                <polygon id="Fill-34" fill="#F6CEA7" mask="url(#mask-2)" points="114.501021 140.056845 108.487803 140.09372 108.919965 107.357351 102.266684 76.1668808 108.279903 75.1721994 114.963503 106.54178"></polygon>
                <polygon id="Fill-35" fill="#F6CEA7" mask="url(#mask-2)" points="66.8322944 140.056845 72.8455131 140.09372 72.4133506 107.357351 79.0666319 76.1668808 73.0534131 75.1721994 66.3698131 106.54178"></polygon>
                <path d="M104.575577,221.190332 L92.9582019,221.190332 L92.9582019,226.43863 L104.575577,226.43863 C106.031839,226.43863 107.212827,225.263881 107.212827,223.814721 C107.212827,222.365081 106.031839,221.190332 104.575577,221.190332" id="Fill-36" fill="#775124" mask="url(#mask-2)"></path>
                <path d="M75.3829037,221.190332 C73.9266412,221.190332 72.7456537,222.365081 72.7456537,223.814721 C72.7456537,225.263881 73.9266412,226.43863 75.3829037,226.43863 L87.0002787,226.43863 L87.0002787,221.190332 L75.3829037,221.190332 Z" id="Fill-37" fill="#775124" mask="url(#mask-2)"></path>
                <polygon id="Fill-38" fill="#72C5CE" mask="url(#mask-2)" points="65.1894994 96.8157873 80.9220431 102.562623 80.9220431 76.6127873 73.9338119 73.2255068"></polygon>
                <path d="M108.615045,99.6891572 L108.771932,78.4028787 C108.771932,71.8821361 104.372826,66.5466783 97.8201262,66.5466783 L90.8352637,66.5466783 L83.8508825,66.5466783 C77.2981825,66.5466783 72.8990762,71.8821361 72.8990762,78.4028787 L73.0559637,99.6891572 L69.8681637,140.076959 L90.8352637,140.076959 L111.802845,140.076959 L108.615045,99.6891572 Z" id="Fill-39" fill="#72C5CE" mask="url(#mask-2)"></path>
                <polygon id="Fill-40" fill="#72C5CE" mask="url(#mask-2)" points="116.481365 96.8157873 100.748821 102.562623 100.748821 76.6127873 107.737052 73.2255068"></polygon>
                <path d="M97.0412712,66.5467262 L95.6985837,66.5467262 L95.6985837,61.0757388 L85.9725212,61.0757388 L85.9725212,66.5467262 L84.3579275,66.5467262 L84.3579275,68.2113928 L84.37044,68.2113928 C84.4517712,70.1255679 87.2512025,71.6638042 90.6993587,71.6638042 C94.1479962,71.6638042 96.9469462,70.1255679 97.0287587,68.2113928 L97.0412712,68.2113928 L97.0412712,66.5467262 Z" id="Fill-41" fill="#E9BC96" mask="url(#mask-2)"></path>
                <path d="M101.81094,46.5258051 C101.81094,55.2882924 97.4349337,62.3918599 90.6796275,62.3918599 C84.2005587,62.3918599 79.548315,55.2882924 79.548315,46.5258051 C79.548315,37.7633177 83.806415,32.575362 90.6796275,32.575362 C98.00329,32.575362 101.81094,37.7633177 101.81094,46.5258051" id="Fill-42" fill="#F6CEA7" mask="url(#mask-2)"></path>
                <path d="M87.1726625,45.5457781 C87.1726625,45.9039975 86.881025,46.1942127 86.52105,46.1942127 C86.161075,46.1942127 85.8694375,45.9039975 85.8694375,45.5457781 C85.8694375,45.1875586 86.161075,44.8973435 86.52105,44.8973435 C86.881025,44.8973435 87.1726625,45.1875586 87.1726625,45.5457781" id="Fill-43" fill="#3C3C3B" mask="url(#mask-2)"></path>
                <path d="M95.4901544,45.5457781 C95.4901544,45.9039975 95.1985169,46.1942127 94.8385419,46.1942127 C94.4785669,46.1942127 94.1869294,45.9039975 94.1869294,45.5457781 C94.1869294,45.1875586 94.4785669,44.8973435 94.8385419,44.8973435 C95.1985169,44.8973435 95.4901544,45.1875586 95.4901544,45.5457781" id="Fill-44" fill="#3C3C3B" mask="url(#mask-2)"></path>
                <path d="M94.601815,54.0066523 C93.8332588,54.6895679 92.364965,55.1517093 90.6796275,55.1517093 C88.9947713,55.1517093 87.5259963,54.6895679 86.75744,54.0066523" id="Fill-45" fill="#3C3C3B" mask="url(#mask-2)"></path>
                <path d="M103.216768,47.6310173 C103.216768,49.0528802 102.544461,50.2051207 101.714786,50.2051207 C100.885111,50.2051207 100.212805,49.0528802 100.212805,47.6310173 C100.212805,46.2091544 100.885111,45.0569139 101.714786,45.0569139 C102.544461,45.0569139 103.216768,46.2091544 103.216768,47.6310173" id="Fill-46" fill="#F6CEA7" mask="url(#mask-2)"></path>
                <path d="M81.18649,47.6310173 C81.18649,49.0528802 80.5141838,50.2051207 79.6845088,50.2051207 C78.8548338,50.2051207 78.1825275,49.0528802 78.1825275,47.6310173 C78.1825275,46.2091544 78.8548338,45.0569139 79.6845088,45.0569139 C80.5141838,45.0569139 81.18649,46.2091544 81.18649,47.6310173" id="Fill-47" fill="#F6CEA7" mask="url(#mask-2)"></path>
                <path d="M100.384707,51.9765348 C99.9130825,53.860539 99.1392325,54.6737162 98.347095,55.3504061 C97.3889262,56.1678935 96.0784825,56.5965116 94.9230012,56.5965116 C93.36712,56.5965116 92.33917,55.3628576 91.6110387,55.2215812 C91.3737825,55.1751276 91.598045,55.1669863 91.1062075,55.1669863 C90.6134075,55.1669863 90.1903887,55.1286741 89.9507262,55.1751276 C89.2269262,55.316404 87.9564262,56.5965116 86.4015075,56.5965116 C85.2426575,56.5965116 83.9355825,56.1678935 82.9754887,55.3504061 C82.1819075,54.6737162 81.12797,53.9089082 80.9398012,51.9765348 C80.8786825,51.3482141 81.0346075,50.0944462 79.2486887,50.0944462 L79.2486887,52.636942 C79.2486887,57.1156424 84.6791137,64.7297205 91.1062075,64.7297205 C97.5299325,64.7297205 102.259176,56.9676614 102.259176,52.488961 L102.259176,50.879847 C101.029582,50.879847 100.384707,51.9765348 100.384707,51.9765348" id="Fill-48" fill="#AD6427" mask="url(#mask-2)"></path>
            </g>
            <g id="Group-11" transform="translate(121.000000, 50.000000)">
                <path d="M50.5914662,31.771041 L51.8828541,30.7735457 L53.2808968,31.7234267 L54.3551317,30.8038457 C54.3551317,30.8038457 55.2549715,27.7286362 55.5826228,26.0808933 C61.7791708,-5.04826857 38.3785302,0.943917143 38.3785302,0.943917143 C38.3785302,0.943917143 25.1917687,-0.567235238 27.8374804,25.9967267 C27.9936192,27.55886 27.961911,27.5006648 28.426484,30.6167552 L29.6645445,29.4417886 L30.8439929,30.75046 L31.7284591,29.8645457 L32.9814128,31.174179 L34.3025872,30.1324362 L35.8240996,31.4550552 L48.0178185,31.771041 L49.0872491,30.761041 L50.5914662,31.771041 Z" id="Fill-38" fill="#1E1814"></path>
                <path d="M52.9917278,16.1391748 C52.9917278,24.9391605 48.6232046,32.0731271 41.8794502,32.0731271 C35.4114609,32.0731271 30.7671726,24.9391605 30.7671726,16.1391748 C30.7671726,7.33918905 35.0179911,2.1290319 41.8794502,2.1290319 C49.190589,2.1290319 52.9917278,7.33918905 52.9917278,16.1391748" id="Fill-39" fill="#F6CEA7"></path>
                <path d="M54.3951032,17.2491648 C54.3951032,18.6771124 53.7239466,19.8342838 52.8956904,19.8342838 C52.0674342,19.8342838 51.3962776,18.6771124 51.3962776,17.2491648 C51.3962776,15.8212171 52.0674342,14.6640457 52.8956904,14.6640457 C53.7239466,14.6640457 54.3951032,15.8212171 54.3951032,17.2491648" id="Fill-40" fill="#F6CEA7"></path>
                <path d="M32.4024982,17.2491648 C32.4024982,18.6771124 31.7313416,19.8342838 30.9030854,19.8342838 C30.0748292,19.8342838 29.4036726,18.6771124 29.4036726,17.2491648 C29.4036726,15.8212171 30.0748292,14.6640457 30.9030854,14.6640457 C31.7313416,14.6640457 32.4024982,15.8212171 32.4024982,17.2491648" id="Fill-41" fill="#F6CEA7"></path>
                <path d="M38.3784342,15.1550019 C38.3784342,15.5147543 38.0872954,15.8062114 37.7279359,15.8062114 C37.3685765,15.8062114 37.0774377,15.5147543 37.0774377,15.1550019 C37.0774377,14.7952495 37.3685765,14.5037924 37.7279359,14.5037924 C38.0872954,14.5037924 38.3784342,14.7952495 38.3784342,15.1550019" id="Fill-42" fill="#3C3C3B"></path>
                <path d="M46.6817028,15.1550019 C46.6817028,15.5147543 46.3905641,15.8062114 46.0312046,15.8062114 C45.6718452,15.8062114 45.3807064,15.5147543 45.3807064,15.1550019 C45.3807064,14.7952495 45.6718452,14.5037924 46.0312046,14.5037924 C46.3905641,14.5037924 46.6817028,14.7952495 46.6817028,15.1550019" id="Fill-43" fill="#3C3C3B"></path>
                <path d="M45.7948826,23.6520357 C45.0276406,24.3378738 43.5618577,24.8019929 41.8794021,24.8019929 C40.197427,24.8019929 38.7311637,24.3378738 37.9639217,23.6520357" id="Fill-44" fill="#3C3C3B"></path>
                <path d="M30.0748772,14.7740395 C30.0748772,14.7740395 42.7254822,11.7652014 46.7980623,7.68768714 C46.7980623,7.68768714 50.5641299,14.6639014 52.9542544,14.6639014 L53.4039342,12.0162586 L51.8425463,5.88411571 L47.8790231,2.51744905 L41.8794502,1.3150681 L35.087653,3.11863952 L30.7671726,8.22875857 L29.8630089,13.2186395" id="Fill-45" fill="#1E1814"></path>
                <polygon id="Fill-46" fill="#F89E1B" points="46.8440391 36.783719 51.882758 36.783719 51.882758 34.5612381 46.8440391 34.5612381"></polygon>
                <polygon id="Fill-47" fill="#F89E1B" points="32.1112633 36.783719 37.1499822 36.783719 37.1499822 34.5612381 32.1112633 34.5612381"></polygon>
                <polygon id="Fill-48" fill="#3C3C3B" points="38.2032705 192.089159 32.8508327 192.089159 23.9288221 98.1779157 43.6931103 98.1779157"></polygon>
                <polygon id="Fill-49" fill="#3C3C3B" points="49.4870605 192.089159 44.1346228 192.089159 40.4973096 98.1779157 60.2615979 98.1779157"></polygon>
                <path d="M59.6286833,70.0680286 L59.7853025,48.6906571 C59.7853025,42.1420095 55.3937189,36.783719 48.8522242,36.783719 L41.879306,36.783719 L34.9068683,36.783719 C28.3653737,36.783719 23.97379,42.1420095 23.97379,48.6906571 L24.1304093,70.0680286 L22.8697687,110.628186 L41.879306,110.628186 L60.8893238,110.628186 L59.6286833,70.0680286 Z" id="Fill-50" fill="#FCB21C"></path>
                <polygon id="Fill-51" fill="#FCB21C" points="65.6403149 110.608467 59.637379 110.6455 59.1079484 77.7690381 53.4268986 46.4450905 59.4298345 45.4461524 66.1020053 76.9499762"></polygon>
                <polygon id="Fill-52" fill="#FCB21C" points="18.0530552 110.608467 24.0559911 110.6455 24.5854217 77.7690381 30.2664715 46.4450905 24.2635356 45.4461524 17.5913648 76.9499762"></polygon>
                <path d="M55.7318434,192.089159 L44.1343345,192.089159 L44.1343345,197.359916 L55.7318434,197.359916 C57.1856157,197.359916 58.3645836,196.18014 58.3645836,194.724778 C58.3645836,193.268935 57.1856157,192.089159 55.7318434,192.089159" id="Fill-53" fill="#775124"></path>
                <path d="M26.5890907,192.089159 C25.1353185,192.089159 23.9563505,193.268935 23.9563505,194.724778 C23.9563505,196.18014 25.1353185,197.359916 26.5890907,197.359916 L38.1865996,197.359916 L38.1865996,192.089159 L26.5890907,192.089159 Z" id="Fill-54" fill="#775124"></path>
                <path d="M26.4845498,105.419135 L28.1770943,95.9342729 C30.8473078,95.9342729 33.0116317,93.2539252 33.0116317,89.9473776 L42.0984288,89.9473776 L41.8293897,89.9473776 L50.9161868,89.9473776 C50.9161868,93.2539252 53.0805107,95.9342729 55.7507242,95.9342729 L57.4432687,105.419135" id="Fill-55" fill="#F89E1B"></path>
                <path d="M54.1464342,36.78319 C54.1464342,38.015871 53.1481068,39.014809 51.9172527,39.014809 C50.6859181,39.014809 49.6875907,38.015871 49.6875907,36.78319 C49.6875907,35.550509 50.6859181,34.551571 51.9172527,34.551571 C53.1481068,34.551571 54.1464342,35.550509 54.1464342,36.78319" id="Fill-56" fill="#F89E1B"></path>
                <path d="M34.0714537,36.78319 C34.0714537,38.015871 33.0731263,39.014809 31.8422722,39.014809 C30.6109377,39.014809 29.6126103,38.015871 29.6126103,36.78319 C29.6126103,35.550509 30.6109377,34.551571 31.8422722,34.551571 C33.0731263,34.551571 34.0714537,35.550509 34.0714537,36.78319" id="Fill-57" fill="#F89E1B"></path>
                <polygon id="Fill-58" fill="#F89E1B" points="41.8795943 36.78319 41.8795943 36.78319 41.8795943 42.7229519"></polygon>
                <path d="M54.1464342,36.78319 L49.1596014,36.78319 L41.8892989,49.0628662 C48.6599573,49.0575757 54.1464342,43.5617329 54.1464342,36.78319" id="Fill-59" fill="#F89E1B"></path>
                <path d="M29.6126584,36.78319 C29.6126584,43.5617329 35.0996157,49.0575757 41.8693132,49.0628662 L34.5994911,36.78319 L29.6126584,36.78319 Z" id="Fill-60" fill="#F89E1B"></path>
                <path id="Fill-61" fill="#F89E1B"></path>
                <path d="M48.2104217,36.7838152 L46.8700302,36.7838152 L46.8700302,31.2894152 L37.1605996,31.2894152 L37.1605996,36.7838152 L35.5487669,36.7838152 L35.5487669,38.4556057 L35.561258,38.4556057 C35.6424502,40.3779724 40.5980552,49.0630105 41.8793541,49.0630105 C43.1505641,49.0630105 48.116258,40.3779724 48.1979306,38.4556057 L48.2104217,38.4556057 L48.2104217,36.7838152 Z" id="Fill-62" fill="#E9BC96"></path>
                <polygon id="Fill-63" fill="#F89E1B" points="48.2103737 39.3269952 50.2766904 39.3269952 50.2766904 36.3210429 48.2103737 36.3210429"></polygon>
                <polygon id="Fill-64" fill="#F89E1B" points="33.4824021 39.3269952 35.5487189 39.3269952 35.5487189 36.3210429 33.4824021 36.3210429"></polygon>
                <polygon id="Fill-72" fill="#F7E7DB" points="40.6561388 109.134829 78.872669 109.134829 78.872669 46.9573048 40.6561388 46.9573048"></polygon>
                <polygon id="Fill-73" fill="#E5D0C4" points="2.43960854 109.134829 40.6561388 109.134829 40.6561388 46.9573048 2.43960854 46.9573048"></polygon>
                <polygon id="Fill-74" fill="#BAACA4" points="43.8951779 61.0795095 76.281726 61.0795095 76.281726 58.4602429 43.8951779 58.4602429"></polygon>
                <polygon id="Fill-75" fill="#BAACA4" points="43.8951779 64.7458095 76.281726 64.7458095 76.281726 62.1265429 43.8951779 62.1265429"></polygon>
                <polygon id="Fill-76" fill="#BAACA4" points="43.8951779 68.4121095 61.4062633 68.4121095 61.4062633 65.7928429 43.8951779 65.7928429"></polygon>
                <polygon id="Fill-77" fill="#BAACA4" points="43.8946975 87.213019 54.9507651 87.213019 54.9507651 86.4247381 43.8946975 86.4247381"></polygon>
                <polygon id="Fill-78" fill="#BAACA4" points="43.8946975 96.3703524 54.9507651 96.3703524 54.9507651 95.5820714 43.8946975 95.5820714"></polygon>
                <polygon id="Fill-79" fill="#BAACA4" points="43.8946975 94.5388857 54.9507651 94.5388857 54.9507651 93.7506048 43.8946975 93.7506048"></polygon>
                <polygon id="Fill-80" fill="#BAACA4" points="43.8946975 92.707419 54.9507651 92.707419 54.9507651 91.9191381 43.8946975 91.9191381"></polygon>
                <polygon id="Fill-81" fill="#BAACA4" points="43.8946975 90.8759524 54.9507651 90.8759524 54.9507651 90.0876714 43.8946975 90.0876714"></polygon>
                <polygon id="Fill-82" fill="#BAACA4" points="43.8946975 89.0444857 54.9507651 89.0444857 54.9507651 88.2562048 43.8946975 88.2562048"></polygon>
                <polygon id="Fill-83" fill="#9D928D" points="5.35676157 53.7675905 37.747153 53.7675905 37.747153 52.9793095 5.35676157 52.9793095"></polygon>
                <polygon id="Fill-84" fill="#9D928D" points="5.35676157 62.9254048 37.747153 62.9254048 37.747153 62.1371238 5.35676157 62.1371238"></polygon>
                <polygon id="Fill-85" fill="#9D928D" points="5.35676157 61.0939381 37.747153 61.0939381 37.747153 60.3056571 5.35676157 60.3056571"></polygon>
                <polygon id="Fill-86" fill="#9D928D" points="5.35676157 59.2624714 37.747153 59.2624714 37.747153 58.4741905 5.35676157 58.4741905"></polygon>
                <polygon id="Fill-87" fill="#9D928D" points="5.35676157 57.4310048 37.747153 57.4310048 37.747153 56.6427238 5.35676157 56.6427238"></polygon>
                <polygon id="Fill-88" fill="#9D928D" points="5.35676157 55.5995381 37.747153 55.5995381 37.747153 54.8112571 5.35676157 54.8112571"></polygon>
                <polygon id="Fill-89" fill="#9D928D" points="5.35628114 81.4819905 23.0441637 81.4819905 23.0441637 80.6937095 5.35628114 80.6937095"></polygon>
                <polygon id="Fill-90" fill="#9D928D" points="5.35628114 86.9768714 23.0441637 86.9768714 23.0441637 86.1885905 5.35628114 86.1885905"></polygon>
                <polygon id="Fill-91" fill="#9D928D" points="5.35628114 85.1454048 23.0441637 85.1454048 23.0441637 84.3571238 5.35628114 84.3571238"></polygon>
                <polygon id="Fill-92" fill="#9D928D" points="5.35628114 83.3139381 23.0441637 83.3139381 23.0441637 82.5256571 5.35628114 82.5256571"></polygon>
                <polygon id="Fill-93" fill="#BAACA4" points="55.6776512 96.3703524 75.8839324 96.3703524 75.8839324 86.4242571 55.6776512 86.4242571"></polygon>
                <polygon id="Fill-94" fill="#9D928D" points="5.35628114 79.4018714 23.0235053 79.4018714 23.0235053 66.0592905 5.35628114 66.0592905"></polygon>
                <polygon id="Fill-95" fill="#9D928D" points="26.157331 81.4819905 37.7601246 81.4819905 37.7601246 80.6937095 26.157331 80.6937095"></polygon>
                <polygon id="Fill-96" fill="#9D928D" points="26.157331 86.9768714 37.7601246 86.9768714 37.7601246 86.1885905 26.157331 86.1885905"></polygon>
                <polygon id="Fill-97" fill="#9D928D" points="26.157331 85.1454048 37.7601246 85.1454048 37.7601246 84.3571238 26.157331 84.3571238"></polygon>
                <polygon id="Fill-98" fill="#9D928D" points="26.157331 83.3139381 37.7601246 83.3139381 37.7601246 82.5256571 26.157331 82.5256571"></polygon>
                <polygon id="Fill-99" fill="#9D928D" points="26.157331 79.4018714 37.7466726 79.4018714 37.7466726 66.0592905 26.157331 66.0592905"></polygon>
                <polygon id="Fill-100" fill="#BAACA4" points="43.8951779 100.870624 59.1131851 100.870624 59.1131851 99.524919 43.8951779 99.524919"></polygon>
                <polygon id="Fill-101" fill="#9D928D" points="5.35628114 51.692281 37.7067972 51.692281 37.7067972 50.3465762 5.35628114 50.3465762"></polygon>
                <polygon id="Fill-102" fill="#BAACA4" points="43.8951779 106.42899 59.1131851 106.42899 59.1131851 101.47999 43.8951779 101.47999"></polygon>
                <polygon id="Fill-103" fill="#9D928D" points="5.35628114 92.0384143 14.5127402 92.0384143 14.5127402 90.6927095 5.35628114 90.6927095"></polygon>
                <polygon id="Fill-104" fill="#9D928D" points="5.35628114 106.424181 14.4666192 106.424181 14.4666192 92.647781 5.35628114 92.647781"></polygon>
                <polygon id="Fill-105" fill="#9D928D" points="16.9696441 92.0384143 26.1261032 92.0384143 26.1261032 90.6927095 16.9696441 90.6927095"></polygon>
                <polygon id="Fill-106" fill="#9D928D" points="16.9696441 106.424181 26.0799822 106.424181 26.0799822 92.647781 16.9696441 92.647781"></polygon>
                <polygon id="Fill-107" fill="#BAACA4" points="60.6659253 100.870624 75.8839324 100.870624 75.8839324 99.524919 60.6659253 99.524919"></polygon>
                <polygon id="Fill-108" fill="#BAACA4" points="60.6659253 106.42899 75.8839324 106.42899 75.8839324 101.47999 60.6659253 101.47999"></polygon>
                <polygon id="Fill-109" fill="#BAACA4" points="43.8951779 83.8352905 76.2476157 83.8352905 76.2476157 69.7395381 43.8951779 69.7395381"></polygon>
                <polygon id="Fill-110" fill="#BAACA4" points="43.8946975 85.1823381 75.8839324 85.1823381 75.8839324 84.8895381 43.8946975 84.8895381"></polygon>
                <polygon id="Fill-111" fill="#BAACA4" points="43.8946975 98.2012381 75.8839324 98.2012381 75.8839324 97.9084381 43.8946975 97.9084381"></polygon>
                <polygon id="Fill-112" fill="#BAACA4" points="59.7430249 106.466986 60.0365196 106.466986 60.0365196 99.5898476 59.7430249 99.5898476"></polygon>
                <polygon id="Fill-113" fill="#9D928D" points="24.2500356 87.0543048 24.5435302 87.0543048 24.5435302 66.0564048 24.2500356 66.0564048"></polygon>
                <polygon id="Fill-114" fill="#9D928D" points="15.4932918 106.424181 15.7867865 106.424181 15.7867865 90.7191619 15.4932918 90.7191619"></polygon>
                <polygon id="Fill-115" fill="#9D928D" points="28.6036655 92.0384143 37.7601246 92.0384143 37.7601246 90.6927095 28.6036655 90.6927095"></polygon>
                <polygon id="Fill-116" fill="#9D928D" points="28.6036655 106.424181 37.7140036 106.424181 37.7140036 92.647781 28.6036655 92.647781"></polygon>
                <polygon id="Fill-117" fill="#9D928D" points="27.1273132 106.424181 27.4208078 106.424181 27.4208078 90.7191619 27.1273132 90.7191619"></polygon>
                <polygon id="Fill-118" fill="#BAACA4" points="43.8452135 56.8470286 76.2283986 56.8470286 76.2283986 56.5542286 43.8452135 56.5542286"></polygon>
                <polygon id="Fill-119" fill="#9D928D" points="5.35676157 64.5009047 37.7399466 64.5009047 37.7399466 64.2081048 5.35676157 64.2081048"></polygon>
                <polygon id="Fill-120" fill="#9D928D" points="5.35676157 88.7995809 37.7399466 88.7995809 37.7399466 88.506781 5.35676157 88.506781"></polygon>
                <g id="Group-134" transform="translate(64.857651, 51.938529)" fill="#A3D6DC">
                    <path id="Fill-121"></path>
                    <path id="Fill-122"></path>
                    <path id="Fill-123"></path>
                    <path id="Fill-124"></path>
                    <path id="Fill-125"></path>
                    <path id="Fill-126"></path>
                    <path id="Fill-127"></path>
                    <path id="Fill-128"></path>
                    <path id="Fill-129"></path>
                    <path id="Fill-130"></path>
                    <path id="Fill-131"></path>
                    <path id="Fill-132"></path>
                    <path id="Fill-133"></path>
                </g>
                <path id="Fill-135" fill="#F6BC39"></path>
                <path id="Fill-136" fill="#D96250"></path>
                <path id="Fill-137" fill="#B02D59"></path>
                <path id="Fill-138" fill="#77B5BE"></path>
                <path id="Fill-139" fill="#77B5BE"></path>
                <path id="Fill-140" fill="#F6BC39"></path>
                <path id="Fill-141" fill="#D96250"></path>
                <path id="Fill-142" fill="#B02D59"></path>
                <path id="Fill-143" fill="#77B5BE"></path>
                <path id="Fill-144" fill="#77B5BE"></path>
                <path id="Fill-145" fill="#77B5BE"></path>
                <path id="Fill-146" fill="#77B5BE"></path>
                <path id="Fill-147" fill="#77B5BE"></path>
                <g id="Group-153" transform="translate(66.298932, 51.457576)" fill="#6D6F6E">
                    <path d="M0.667072954,2.37580857 C0.696859431,2.37580857 0.724724199,2.39408476 0.735293594,2.42342286 C0.746823843,2.45420381 0.761236655,2.48450381 0.778051601,2.51239905 C0.874617438,2.67448 1.04516904,2.77115143 1.23349644,2.77115143 C1.27385231,2.77115143 1.30652135,2.80385619 1.30652135,2.84377524 C1.30652135,2.88369429 1.27385231,2.91639905 1.23349644,2.91639905 C0.997126335,2.91639905 0.775169039,2.79038952 0.653620996,2.58742762 C0.632001779,2.55135619 0.613745552,2.51336095 0.59933274,2.4734419 C0.585400356,2.43592762 0.604617438,2.39408476 0.642090747,2.38013714 C0.650258007,2.37725143 0.658905694,2.37580857 0.667072954,2.37580857" id="Fill-148"></path>
                    <path id="Fill-149"></path>
                    <path d="M2.02720996,1.72243476 L1.99021708,1.66712524 L1.9887758,1.66712524 C1.95274377,1.61422048 1.91527046,1.56708714 1.87875801,1.52139667 L1.78219217,1.5978681 C1.82206762,1.64740619 1.86290391,1.6988681 1.8998968,1.75513952 L1.92343772,1.79024905 L1.92439858,1.79024905 C2.01087544,1.92203 2.05651601,2.07641571 2.05651601,2.23993952 C2.05603559,2.69155381 1.68946975,3.05948238 1.23786833,3.06044429 C0.786747331,3.05948238 0.419701068,2.69155381 0.420181495,2.23993952 C0.420181495,2.07641571 0.465822064,1.92203 0.552298932,1.79024905 L0.553740214,1.79024905 L0.576800712,1.75513952 C0.614274021,1.6988681 0.65511032,1.64692524 0.695466192,1.59738714 C0.797316726,1.46897286 0.893882562,1.34825381 0.893882562,1.18617286 L0.893882562,1.13278714 C0.89580427,1.02938238 0.936160142,0.991387143 1.0437758,0.991387143 L1.24891815,0.991387143 L1.43340214,0.991387143 C1.54101779,0.991387143 1.58185409,1.02938238 1.58329537,1.13134429 L1.58329537,1.18617286 C1.58329537,1.34825381 1.67986121,1.46897286 1.78171174,1.59738714 L1.78219217,1.5978681 L1.87779715,1.51995381 C1.78219217,1.39971571 1.7062847,1.3049681 1.7062847,1.18617286 L1.7062847,1.12893952 C1.70340214,0.96060619 1.6068363,0.868263333 1.43340214,0.868263333 L1.0437758,0.868263333 C0.822298932,0.868263333 0.772814947,1.01062524 0.770893238,1.13038238 L0.770893238,1.18617286 C0.770893238,1.3049681 0.691622776,1.40452524 0.599380783,1.51995381 C0.559505338,1.56997286 0.522992883,1.61614429 0.487921708,1.66712524 L0.486,1.66712524 L0.449487544,1.72243476 C0.350039146,1.87441571 0.297192171,2.05333 0.297192171,2.23993952 C0.296711744,2.75888714 0.719007117,3.18212524 1.2373879,3.1835681 L1.23786833,3.1835681 L1.23834875,3.1835681 C1.75720996,3.18212524 2.17902491,2.75888714 2.17950534,2.23993952 C2.17950534,2.05284905 2.12665836,1.87393476 2.02720996,1.72243476" id="Fill-150"></path>
                    <path id="Fill-151"></path>
                    <path id="Fill-152"></path>
                </g>
                <path d="M52.4088256,53.4240462 L52.2618149,53.4240462 L52.2229004,53.2061748 C52.1892705,53.172989 52.1474733,53.1460557 52.0984698,53.1248938 C52.0489858,53.1037319 51.9903737,53.093151 51.9216726,53.093151 C51.7621708,53.093151 51.6391815,53.1508652 51.5531851,53.2667748 C51.4671886,53.3831652 51.4244306,53.5303367 51.4244306,53.70877 L51.4244306,53.7328176 C51.4244306,53.911251 51.4662278,54.0589033 51.5503025,54.1752938 C51.6348577,54.2921652 51.7516014,54.3503605 51.9005338,54.3503605 C51.9706762,54.3503605 52.0336121,54.3392986 52.0907829,54.3176557 C52.1479537,54.2955319 52.192153,54.2690795 52.2229004,54.2373367 L52.2618149,54.0194652 L52.4088256,54.0194652 L52.4088256,54.2931271 C52.3646263,54.3503605 52.297847,54.4013414 52.208968,54.44607 C52.1205694,54.4907986 52.017758,54.5134033 51.9005338,54.5134033 C51.7006762,54.5134033 51.5363701,54.4393367 51.4085765,54.2912033 C51.2803025,54.14307 51.2159253,53.9569414 51.2159253,53.7328176 L51.2159253,53.7106938 C51.2159253,53.4851271 51.2793416,53.2985176 51.4052135,53.1503843 C51.5310854,53.0032129 51.6963523,52.9291462 51.9005338,52.9291462 C52.017758,52.9291462 52.1205694,52.951751 52.208968,52.9974414 C52.297847,53.042651 52.3646263,53.0936319 52.4088256,53.1499033 L52.4088256,53.4240462 Z" id="Fill-154" fill="#151B36"></path>
                <path d="M52.8396726,53.9315952 C52.8396726,54.0527952 52.8651352,54.1533143 52.9165409,54.2321905 C52.9674662,54.3110667 53.0433737,54.3505048 53.1442633,54.3505048 C53.2427509,54.3505048 53.3176975,54.3110667 53.3691032,54.2321905 C53.4205089,54.1533143 53.4459715,54.0527952 53.4459715,53.9315952 L53.4459715,53.9085095 C53.4459715,53.7887524 53.4205089,53.6887143 53.3691032,53.6088762 C53.3176975,53.529519 53.24179,53.4896 53.1418612,53.4896 C53.0419324,53.4896 52.9665053,53.529519 52.9155801,53.6088762 C52.8651352,53.6887143 52.8396726,53.7887524 52.8396726,53.9085095 L52.8396726,53.9315952 Z M52.6316477,53.9085095 C52.6316477,53.7392143 52.6772883,53.5997381 52.7690498,53.490081 C52.860331,53.3804238 52.9847616,53.3255952 53.1418612,53.3255952 C53.2994413,53.3255952 53.4243523,53.3804238 53.5165943,53.4896 C53.6083559,53.5987762 53.6544769,53.7387333 53.6544769,53.9085095 L53.6544769,53.9315952 C53.6544769,54.1023333 53.6083559,54.2418095 53.5170747,54.3505048 C53.4253132,54.4592 53.3008826,54.5130667 53.1442633,54.5130667 C52.9857224,54.5130667 52.860331,54.458719 52.7690498,54.3500238 C52.6772883,54.2408476 52.6316477,54.1013714 52.6316477,53.9315952 L52.6316477,53.9085095 Z" id="Fill-155" fill="#151B36"></path>
                <path d="M53.8032651,54.3577671 L53.975258,54.3279481 L53.975258,53.51081 L53.8032651,53.480991 L53.8032651,53.3468052 L54.1626246,53.3468052 L54.1760765,53.4959005 C54.212589,53.4415529 54.2596708,53.39971 54.3178025,53.369891 C54.3754537,53.3405529 54.4422331,53.3256433 54.5181406,53.3256433 C54.5945285,53.3256433 54.6598665,53.3434386 54.7146352,53.3785481 C54.7689235,53.4136576 54.8097598,53.4665624 54.8376246,53.5372624 C54.8731762,53.4723338 54.9207384,53.4208719 54.9803114,53.3828767 C55.0394039,53.3444005 55.108105,53.3256433 55.186895,53.3256433 C55.3041192,53.3256433 55.3963612,53.3655624 55.463621,53.4454005 C55.5313612,53.5257195 55.5654715,53.6459576 55.5654715,53.8070767 L55.5654715,54.3279481 L55.7374644,54.3577671 L55.7374644,54.490991 L55.1840125,54.490991 L55.1840125,54.3577671 L55.3560053,54.3279481 L55.3560053,53.8046719 C55.3560053,53.692129 55.3367883,53.612291 55.2978737,53.5651576 C55.2594395,53.5185052 55.2017883,53.4949386 55.1258808,53.4949386 C55.0533363,53.4949386 54.9952046,53.520429 54.9510053,53.57141 C54.906806,53.622391 54.8813434,53.6868386 54.8746174,53.7642719 L54.8746174,54.3279481 L55.0466103,54.3577671 L55.0466103,54.490991 L54.4941192,54.490991 L54.4941192,54.3577671 L54.6661121,54.3279481 L54.6661121,53.8046719 C54.6661121,53.6974195 54.6464146,53.6190243 54.6065391,53.5694862 C54.5666637,53.5199481 54.5090125,53.4949386 54.4340658,53.4949386 C54.3706495,53.4949386 54.3182829,53.5079243 54.2774466,53.5338957 C54.2366103,53.5598671 54.2053826,53.5969005 54.1837633,53.6440338 L54.1837633,54.3279481 L54.3557562,54.3577671 L54.3557562,54.490991 L53.8032651,54.490991 L53.8032651,54.3577671 Z" id="Fill-156" fill="#151B36"></path>
                <path d="M56.7061014,54.3218881 C56.6700694,54.382969 56.623468,54.4301024 56.567258,54.463769 C56.5105676,54.4969548 56.4452295,54.5133071 56.3712438,54.5133071 C56.2472936,54.5133071 56.1502473,54.4733881 56.0805854,54.39355 C56.0109235,54.3141929 55.9763327,54.1901071 55.9763327,54.0212929 L55.9763327,53.5105214 L55.8451762,53.4811833 L55.8451762,53.3469976 L55.9763327,53.3469976 L56.1843577,53.3469976 L56.1843577,54.0236976 C56.1843577,54.1458595 56.2021335,54.2295452 56.2381655,54.2752357 C56.2737171,54.3209262 56.329927,54.3440119 56.4063149,54.3440119 C56.4798203,54.3440119 56.5413149,54.3291024 56.5893577,54.2992833 C56.6374004,54.2689833 56.6739128,54.2266595 56.698895,54.171831 L56.698895,53.5105214 L56.5456388,53.4811833 L56.5456388,53.3469976 L56.698895,53.3469976 L56.9069199,53.3469976 L56.9069199,54.3281405 L57.0375961,54.3579595 L57.0375961,54.4911833 L56.7200338,54.4911833 L56.7061014,54.3218881 Z" id="Fill-157" fill="#151B36"></path>
                <path d="M57.1718754,54.3577671 L57.3443488,54.3279481 L57.3443488,53.51081 L57.1718754,53.480991 L57.1718754,53.3468052 L57.530274,53.3468052 L57.5446868,53.5170624 C57.583121,53.4564624 57.6306833,53.409329 57.6878541,53.3761433 C57.7455053,53.3424767 57.8108434,53.3256433 57.8838683,53.3256433 C58.0073381,53.3256433 58.1024626,53.3617148 58.1702028,53.4338576 C58.2379431,53.5064814 58.271573,53.6180624 58.271573,53.7686005 L58.271573,54.3279481 L58.4435658,54.3577671 L58.4435658,54.490991 L57.8915552,54.490991 L57.8915552,54.3577671 L58.063548,54.3279481 L58.063548,53.772929 C58.063548,53.67241 58.0433701,53.6007481 58.0039751,53.5584243 C57.9640996,53.5161005 57.9035658,53.4949386 57.8214128,53.4949386 C57.7618399,53.4949386 57.7089929,53.5093671 57.6628719,53.5382243 C57.6162705,53.5670814 57.579758,53.6065195 57.5523737,53.6565386 L57.5523737,54.3279481 L57.7243665,54.3577671 L57.7243665,54.490991 L57.1718754,54.490991 L57.1718754,54.3577671 Z" id="Fill-158" fill="#151B36"></path>
                <path d="M58.7672776,53.0538571 L58.9753025,53.0538571 L58.9753025,52.8412762 L58.7672776,52.8412762 L58.7672776,53.0538571 Z M58.5948043,54.357719 L58.7667972,54.328381 L58.7667972,53.5107619 L58.5948043,53.4809429 L58.5948043,53.3467571 L58.9753025,53.3467571 L58.9753025,54.328381 L59.1472954,54.357719 L59.1472954,54.4909429 L58.5948043,54.4909429 L58.5948043,54.357719 Z" id="Fill-159" fill="#151B36"></path>
                <path d="M59.5148701,53.9623281 C59.5148701,54.0772757 59.538411,54.1696186 59.5859733,54.2393567 C59.6330552,54.3090948 59.7055996,54.3442043 59.8045676,54.3442043 C59.8665427,54.3442043 59.9184288,54.3297757 59.9607064,54.3018805 C60.002984,54.2735043 60.0380552,54.2335852 60.0654395,54.1821233 L60.0654395,53.6516329 C60.0385356,53.6035376 60.0039448,53.5655424 59.9607064,53.5371662 C59.917468,53.50879 59.8665427,53.4948424 59.8064893,53.4948424 C59.7070409,53.4948424 59.634016,53.5362043 59.5859733,53.6184471 C59.5388915,53.701171 59.5148701,53.8084233 59.5148701,53.9402043 L59.5148701,53.9623281 Z M60.0760089,54.3547852 C60.0385356,54.4067281 59.992895,54.4461662 59.9390872,54.4730995 C59.8852794,54.5000329 59.8228238,54.5130186 59.7517206,54.5130186 C59.6119164,54.5130186 59.5033399,54.4625186 59.4245498,54.3615186 C59.3462402,54.2605186 59.3068452,54.1272948 59.3068452,53.9623281 L59.3068452,53.9402043 C59.3068452,53.7559995 59.3462402,53.6078662 59.4245498,53.4948424 C59.5033399,53.3818186 59.6128772,53.3255471 59.7536423,53.3255471 C59.8213826,53.3255471 59.8809555,53.3380519 59.9328416,53.3630614 C59.9842473,53.388071 60.028927,53.4246233 60.0654395,53.4717567 L60.0654395,53.0052329 L59.8929662,52.9758948 L59.8929662,52.8412281 L60.0654395,52.8412281 L60.2734644,52.8412281 L60.2734644,54.3283329 L60.4454573,54.357671 L60.4454573,54.4908948 L60.0928238,54.4908948 L60.0760089,54.3547852 Z" id="Fill-160" fill="#151B36"></path>
                <path d="M61.0148114,54.3386733 C61.0839929,54.3386733 61.1469288,54.322321 61.2040996,54.2891352 C61.2612705,54.2559495 61.3021068,54.2160305 61.3266085,54.1693781 L61.3266085,53.9813257 L61.1046512,53.9813257 C61.0196157,53.9813257 60.9518754,54.0010448 60.9023915,54.0404829 C60.8529075,54.079921 60.8279253,54.1280162 60.8279253,54.1842876 C60.8279253,54.2343067 60.8432989,54.2727829 60.8745267,54.2992352 C60.905274,54.3256876 60.9523559,54.3386733 61.0148114,54.3386733 L61.0148114,54.3386733 Z M61.349669,54.4911352 C61.3434235,54.4603543 61.3386192,54.432459 61.3347758,54.4074495 C61.3314128,54.382921 61.3290107,54.3579114 61.3275694,54.3333829 C61.2872135,54.3848448 61.2372491,54.4276495 61.1767153,54.4617971 C61.1166619,54.4964257 61.0527651,54.513259 60.9840641,54.513259 C60.8653986,54.513259 60.7745979,54.4844019 60.7126228,54.4257257 C60.6506477,54.3680114 60.6199004,54.2857686 60.6199004,54.18044 C60.6199004,54.0717448 60.6636192,53.988059 60.7515374,53.9289019 C60.8389751,53.8702257 60.9590819,53.8408876 61.1118577,53.8408876 L61.3266085,53.8408876 L61.3266085,53.7076638 C61.3266085,53.6403305 61.3054698,53.5874257 61.2631922,53.5484686 C61.2209146,53.5090305 61.1623025,53.4893114 61.0868754,53.4893114 C61.0345089,53.4893114 60.9888683,53.4960448 60.9489929,53.5095114 C60.9091174,53.5229781 60.8769288,53.5412543 60.8519466,53.564821 L60.829847,53.685059 L60.6693843,53.685059 L60.6693843,53.46334 C60.7212705,53.4214971 60.7846868,53.3883114 60.8586726,53.3633019 C60.9321779,53.3382924 61.0128897,53.3257876 61.0993665,53.3257876 C61.2290819,53.3257876 61.3338149,53.3589733 61.4140463,53.4248638 C61.4942776,53.4912352 61.5346335,53.5859829 61.5346335,53.7095876 L61.5346335,54.260759 C61.5346335,54.2751876 61.5346335,54.2896162 61.5351139,54.3040448 C61.5355943,54.3179924 61.5360747,54.33194 61.5379964,54.3463686 L61.6220712,54.3579114 L61.6220712,54.4911352 L61.349669,54.4911352 Z" id="Fill-161" fill="#151B36"></path>
                <path d="M62.0045391,53.9623281 C62.0045391,54.0772757 62.0280801,54.1696186 62.0756423,54.2393567 C62.1227242,54.3090948 62.1952687,54.3442043 62.2942367,54.3442043 C62.3562117,54.3442043 62.4080979,54.3297757 62.4503754,54.3018805 C62.492653,54.2735043 62.5277242,54.2335852 62.5551085,54.1821233 L62.5551085,53.6516329 C62.5282046,53.6035376 62.4936139,53.5655424 62.4503754,53.5371662 C62.407137,53.50879 62.3562117,53.4948424 62.2961584,53.4948424 C62.19671,53.4948424 62.1236851,53.5362043 62.0756423,53.6184471 C62.0285605,53.701171 62.0045391,53.8084233 62.0045391,53.9402043 L62.0045391,53.9623281 Z M62.5656779,54.3547852 C62.5282046,54.4067281 62.4825641,54.4461662 62.4287562,54.4730995 C62.3749484,54.5000329 62.3124929,54.5130186 62.2413897,54.5130186 C62.1015854,54.5130186 61.9930089,54.4625186 61.9142189,54.3615186 C61.8359093,54.2605186 61.7965142,54.1272948 61.7965142,53.9623281 L61.7965142,53.9402043 C61.7965142,53.7559995 61.8359093,53.6078662 61.9142189,53.4948424 C61.9930089,53.3818186 62.1025463,53.3255471 62.2433114,53.3255471 C62.3110516,53.3255471 62.3706246,53.3380519 62.4225107,53.3630614 C62.4739164,53.388071 62.5185961,53.4246233 62.5551085,53.4717567 L62.5551085,53.0052329 L62.3826352,52.9758948 L62.3826352,52.8412281 L62.5551085,52.8412281 L62.7631335,52.8412281 L62.7631335,54.3283329 L62.9351263,54.357671 L62.9351263,54.4908948 L62.5824929,54.4908948 L62.5656779,54.3547852 Z" id="Fill-162" fill="#151B36"></path>
                <polygon id="Fill-163" fill="#151B36" points="63.1627046 53.9216533 63.6791637 53.9216533 63.6791637 53.7589333 63.1627046 53.7589333"></polygon>
                <path d="M64.1081851,53.0538571 L64.31621,53.0538571 L64.31621,52.8412762 L64.1081851,52.8412762 L64.1081851,53.0538571 Z M63.9357117,54.357719 L64.1081851,54.328381 L64.1081851,53.5107619 L63.9357117,53.4809429 L63.9357117,53.3467571 L64.31621,53.3467571 L64.31621,54.328381 L64.4882028,54.357719 L64.4882028,54.4909429 L63.9357117,54.4909429 L63.9357117,54.357719 Z" id="Fill-164" fill="#151B36"></path>
                <polygon id="Fill-165" fill="#BAACA4" points="43.8951779 50.9328571 49.9077224 50.9328571 49.9077224 50.3460952 43.8951779 50.3460952"></polygon>
                <polygon id="Fill-166" fill="#BAACA4" points="50.4751068 50.9328571 56.4876512 50.9328571 56.4876512 50.3460952 50.4751068 50.3460952"></polygon>
                <polygon id="Fill-167" fill="#BAACA4" points="57.055516 50.9328571 63.0680605 50.9328571 63.0680605 50.3460952 57.055516 50.3460952"></polygon>
                <polygon id="Fill-168" fill="#BAACA4" points="63.6354448 50.9328571 69.6479893 50.9328571 69.6479893 50.3460952 63.6354448 50.3460952"></polygon>
                <polygon id="Fill-169" fill="#BAACA4" points="70.2158541 50.9328571 76.2283986 50.9328571 76.2283986 50.3460952 70.2158541 50.3460952"></polygon>
                <path d="M2.55414235,76.7477838 L0.764551601,77.059441 C0.321117438,77.1368743 -0.00797508897,77.6837171 0.000192170818,78.3301171 L0.0275765125,80.5357648 C0.0357437722,81.189379 0.382131673,81.7342981 0.832291815,81.8011505 L2.62044128,82.0666362 C2.95866192,82.170041 3.32618861,82.1527267 3.71197153,81.9242743 C4.32643772,81.5597124 4.78092171,80.7396886 4.86451601,79.7845171 C5.01152669,78.0973362 4.09391103,76.6626552 2.96106406,76.6770838 C2.82077936,76.6785267 2.68529893,76.7040171 2.55414235,76.7477838" id="Fill-173" fill="#F6CEA7"></path>
                <path d="M78.9867705,76.7477838 L77.1971797,77.059441 C76.7537456,77.1368743 76.424653,77.6837171 76.4328203,78.3301171 L76.4602046,80.5357648 C76.4683719,81.189379 76.8147598,81.7342981 77.2649199,81.8011505 L79.0530694,82.0666362 C79.39129,82.170041 79.7588167,82.1527267 80.1445996,81.9242743 C80.7590658,81.5597124 81.2135498,80.7396886 81.2971441,79.7845171 C81.4441548,78.0973362 80.5265391,76.6626552 79.3936922,76.6770838 C79.2534075,76.6785267 79.117927,76.7040171 78.9867705,76.7477838" id="Fill-174" fill="#F6CEA7"></path>
                <path d="M78.7583754,82.0563919 L80.5479662,81.7447348 C80.9914004,81.6673014 81.3204929,81.1204586 81.3123256,80.4740586 L81.2849413,78.268411 C81.276774,77.6147967 80.9303861,77.0698776 80.480226,77.0030252 L78.6920765,76.7375395 C78.3538559,76.6341348 77.9863292,76.651449 77.6005463,76.8799014 C76.9860801,77.2444633 76.5315961,78.0644871 76.4480018,79.0196586 C76.3009911,80.7068395 77.2186068,82.1415205 78.3514537,82.1270919 C78.4917384,82.125649 78.6272189,82.1001586 78.7583754,82.0563919" id="Fill-175" fill="#F6CEA7"></path>
            </g>
            <g id="Group-13" transform="translate(123.000000, 47.000000)">
                <polygon id="Fill-1" fill="#422918" points="89 38.2220238 115.312989 38.2220238 115.312989 17 89 17"></polygon>
                <path d="M85.3793416,113.72161 L84.9647331,110 L80.480427,110 L80.0658185,113.72161 C80.0240214,113.912067 80,114.108776 80,114.311738 C80,115.816638 81.2193238,117.036814 82.7225801,117.036814 C84.2263167,117.036814 85.4451601,115.816638 85.4451601,114.311738 C85.4451601,114.108776 85.4211388,113.912067 85.3793416,113.72161 L85.3793416,113.72161 Z" id="Fill-2" fill="#F6CEA7"></path>
                <polygon id="Fill-4" fill="#21213B" points="116.660712 195.454038 111.163185 195.454038 102 99 119.896868 99"></polygon>
                <polygon id="Fill-6" fill="#21213B" points="95.6640214 192.454038 101.161548 192.454038 104.896868 96 87 96"></polygon>
                <path d="M88.9582885,194.291157 L100.406865,191 L101.899552,196.203424 L90.4509753,199.494581 C89.0154593,199.907238 87.5179682,199.076633 87.1057618,197.640029 C86.6935554,196.202943 87.5227725,194.703814 88.9582885,194.291157" id="Fill-8" fill="#1B1B1B"></path>
                <g id="Group-12" transform="translate(102.000000, 194.000000)">
                    <mask id="mask-4" fill="white">
                        <use xlink:href="#path-3"></use>
                    </mask>
                    <g id="Clip-11"></g>
                    <path d="M2.19896263,2.82266143 C0.73894484,3.13768524 -0.189240214,4.57765667 0.125439502,6.03927095 C0.440119217,7.50040429 1.87851779,8.42960429 3.33853559,8.11506143 L14.9821655,5.60256619 L13.843073,0.31016619 L2.19896263,2.82266143 Z" id="Fill-10" fill="#1B1B1B" mask="url(#mask-4)"></path>
                </g>
                <polygon id="Fill-13" fill="#F6CEA7" points="80 110.777871 84.4838256 110.777871 86.3690214 81.0689619 89.4711388 55.2254667 83.43121 54 80.3036299 79.977681"></polygon>
                <polygon id="Fill-15" fill="#D43270" points="80 57.4478095 88.089911 60.6144 94.8764235 44.4861429 84.5952847 43"></polygon>
                <path d="M118.026975,60.5179905 L121.784875,41.5203714 C121.784875,41.5203714 118.484342,36 112.046139,36 L102.546655,36 L93.0476512,36 C86.6094484,36 83.5568149,41.8810857 83.5568149,49.0694 L87.0668149,60.5179905 L83,114.240852 L122.09331,115.710643 L118.026975,60.5179905 Z" id="Fill-17" fill="#D43270"></path>
                <path d="M115.312989,16.3601762 C115.312989,26.008081 110.140712,33.8298095 102.156495,33.8298095 C94.4984875,33.8298095 89,26.008081 89,16.3601762 C89,6.71227143 94.0324733,1 102.156495,1 C110.812349,1 115.312989,6.71227143 115.312989,16.3601762" id="Fill-19" fill="#422918"></path>
                <path d="M96,35.6434952 L97.3769039,35.6434952 L97.3769039,30 L107.349128,30 L107.349128,35.6434952 L109.00468,35.6434952 L109.00468,37.3604952 L108.991708,37.3604952 C108.908114,39.3348048 106.038043,40.9219476 102.5021,40.9219476 C98.966637,40.9219476 96.0965658,39.3348048 96.0129715,37.3604952 L96,37.3604952 L96,35.6434952 Z" id="Fill-21" fill="#E9BC96"></path>
                <path d="M91,17.3896143 C91,26.4281524 95.4867082,33.754981 102.413025,33.754981 C109.05637,33.754981 113.82605,26.4281524 113.82605,17.3896143 C113.82605,8.35107619 109.460409,3 102.413025,3 C94.9044306,3 91,8.35107619 91,17.3896143" id="Fill-23" fill="#F6CEA7"></path>
                <path d="M104,15.6690048 C104,16.0383762 104.299306,16.3380095 104.668274,16.3380095 C105.037242,16.3380095 105.336548,16.0383762 105.336548,15.6690048 C105.336548,15.2996333 105.037242,15 104.668274,15 C104.299306,15 104,15.2996333 104,15.6690048" id="Fill-25" fill="#3C3C3B"></path>
                <path d="M95,15.6690048 C95,16.0383762 95.299306,16.3380095 95.668274,16.3380095 C96.037242,16.3380095 96.336548,16.0383762 96.336548,15.6690048 C96.336548,15.2996333 96.037242,15 95.668274,15 C95.299306,15 95,15.2996333 95,15.6690048" id="Fill-27" fill="#3C3C3B"></path>
                <path d="M96,25 C96.7879004,25.7045952 98.2935587,26.1807381 100.021174,26.1807381 C101.74927,26.1807381 103.254929,25.7045952 104.042829,25" id="Fill-29" fill="#3C3C3B"></path>
                <path d="M112.998826,19.585119 C112.998826,21.0130667 112.327669,22.1702381 111.499413,22.1702381 C110.671157,22.1702381 110,21.0130667 110,19.585119 C110,18.1571714 110.671157,17 111.499413,17 C112.327669,17 112.998826,18.1571714 112.998826,19.585119" id="Fill-31" fill="#F6CEA7"></path>
                <path d="M108.732331,16.9066381 C108.732331,16.9066381 99.2880961,11.1780143 94.846548,9.07865714 C94.846548,9.07865714 91.4811566,12.2601571 90,16.8258381 L90.4597687,13.0662333 L92.0211566,6.93409048 L95.9846797,3.56742381 L102.090427,2 L108.77605,4.16861429 L113.09605,9.27873333 L114.000694,14.2686143" id="Fill-33" fill="#422918"></path>
                <mask id="mask-6" fill="white">
                    <use xlink:href="#path-5"></use>
                </mask>
                <g id="Clip-36"></g>
                <polygon id="Fill-35" fill="#422918" mask="url(#mask-6)" points="108 51.9986238 115.331317 51.9986238 115.331317 19 108 19"></polygon>
                <polygon id="Fill-37" fill="#422918" mask="url(#mask-6)" points="108 19.3024 113.892438 19.3024 113.892438 13 108 13"></polygon>
                <polygon id="Fill-65" fill="#72C5CE" mask="url(#mask-6)" points="109.92452 84.7099905 106.289609 87.3662905 89 63.6563 92.634911 61"></polygon>
                <path d="M110.067799,84.9246218 C110.80045,85.9293314 110.580895,87.3385218 109.577283,88.0724552 C108.573191,88.8059076 107.165539,88.5861123 106.432888,87.5809218 C105.700237,86.5762123 105.919792,85.1670218 106.923404,84.4335695 C107.927497,83.6996361 109.335148,83.9199123 110.067799,84.9246218" id="Fill-66" fill="#72C5CE" mask="url(#mask-6)"></path>
                <polygon id="Fill-67" fill="#72C5CE" mask="url(#mask-6)" points="93.7343772 62.9340905 91.5983986 64.4952619 88 59.5611714 90.1364591 58"></polygon>
                <path d="M91.6149528,38.0495701 C96.4091343,44.6241892 94.9716966,53.8445273 88.4047393,58.6439511 C81.8373016,63.4433749 72.6265543,62.0043654 67.8323728,55.4302273 C63.0381913,48.8556082 64.475629,39.6352701 71.0430667,34.8358463 C77.6105044,30.0359415 86.8207714,31.4749511 91.6149528,38.0495701" id="Fill-68" fill="#D6EDEC" mask="url(#mask-6)"></path>
                <path d="M72.137907,36.2216228 C66.1700423,40.582899 64.8594373,48.9918704 69.2159497,54.9662609 C73.5724622,60.9406514 81.9722487,62.2531704 87.9401134,57.8918942 C93.9079782,53.5301371 95.2185832,45.1216466 90.8620707,39.1472561 C86.5055583,33.1728657 78.1057718,31.8603466 72.137907,36.2216228 M89.4995796,60.0302085 C82.3537077,65.2523895 72.296448,63.681118 67.0799711,56.5274323 C61.8634942,49.3737466 63.4330494,39.3054895 70.5784408,34.0833085 C77.7243127,28.8611276 87.7815725,30.432399 92.9980494,37.5860847 C98.2145262,44.7397704 96.6449711,54.8080276 89.4995796,60.0302085" id="Fill-69" fill="#72C5CE" mask="url(#mask-6)"></path>
                <polygon id="Fill-170" fill="#F6CEA7" mask="url(#mask-6)" points="109.195552 81.7712952 107 77.8193095 126.927153 69.381 115.850907 41 123.519004 43.6611095 135.12468 71.0345143 135.018025 72.764981 133.903915 74.2333286"></polygon>
                <path d="M106.460868,84.0624048 L109.578359,81.9928667 L107.529818,78 L104.03327,79.3307952 C103.844943,79.3803333 103.659498,79.4491095 103.479338,79.5419333 C102.141829,80.2292143 101.61432,81.8721476 102.301331,83.211119 C102.988341,84.5500905 104.629,85.0781762 105.966509,84.3904143 C106.146669,84.2975905 106.310975,84.1864905 106.460868,84.0624048" id="Fill-171" fill="#F6CEA7" mask="url(#mask-6)"></path>
                <polygon id="Fill-172" fill="#D43270" mask="url(#mask-6)" points="128.973452 55.6640381 121.444199 60.0003048 116.001922 52.6018143 116 39 122.082206 41.6433143"></polygon>
            </g>
        </g>
    </g>
</svg>