<?xml version="1.0" encoding="UTF-8" standalone="no"?>
<svg width="290px" height="250px" viewBox="0 0 290 250" version="1.1" xmlns="http://www.w3.org/2000/svg" xmlns:xlink="http://www.w3.org/1999/xlink">
    <!-- Generator: Sketch 3.8.3 (29802) - http://www.bohemiancoding.com/sketch -->
    <title>Artboard 7</title>
    <desc>Created with Sketch.</desc>
    <defs>
        <polygon id="path-1" points="0 249.388676 165.766069 249.388676 165.766069 0 0 0"></polygon>
        <polygon id="path-3" points="32.2397572 35.2347242 32.2397572 0.320095923 0.173272126 0.320095923 0.173272126 35.2347242 32.2397572 35.2347242"></polygon>
    </defs>
    <g id="Page-1" stroke="none" stroke-width="1" fill="none" fill-rule="evenodd">
        <g id="Artboard-7">
            <g id="Group-7" transform="translate(2.000000, 1.000000)">
                <polygon id="Fill-1" fill="#21213B" points="16.3403209 240.469194 21.7857907 240.469194 30.8626898 143.783013 10.7551624 143.783013"></polygon>
                <polygon id="Fill-2" fill="#21213B" points="36.7573642 237.755854 31.3118944 237.755854 27.6115774 141.069674 45.7191048 152.069674"></polygon>
                <path d="M40.4804634,238.787908 L29.1398409,235.488964 L27.6611493,240.704894 L39.0022501,244.003839 C40.4240138,244.417466 41.9074893,243.584933 42.3155527,242.144914 C42.7236161,240.704415 41.9022271,239.201536 40.4804634,238.787908 L40.4804634,238.787908 Z" id="Fill-3" fill="#775124"></path>
                <path d="M25.4259856,241.155086 C26.872147,241.470825 27.7916052,242.914203 27.4796974,244.379175 C27.168268,245.844146 25.7431556,246.775528 24.2974726,246.459789 L12.7631037,243.941555 L13.8920951,238.636852 L25.4259856,241.155086 Z" id="Fill-5" fill="#775124"></path>
                <path d="M44.3358732,114.819098 L44.4961326,92.6948177 C44.4961326,85.9174664 40.0045648,80.371881 33.3143343,80.371881 L26.1835101,80.371881 L19.0526859,80.371881 C12.3624553,80.371881 7.87136599,85.9174664 7.87136599,92.6948177 L8.03114697,114.819098 L4.77668588,159.21977 L46.633562,157.28167 L44.3358732,114.819098 Z" id="Fill-7" fill="#D43270"></path>
                <polygon id="Fill-9" fill="#D43270" points="57.8445896 110.666123 42.7275867 118.749616 39.1148144 92.0226488 42.1769643 84.9679463"></polygon>
                <path d="M37.0180957,136.220825 C36.5918536,135.907965 36.3545741,135.369098 36.4512081,134.811036 L60.04043,1.32399232 C60.1762916,0.540882917 60.9197037,0.0164107486 61.7009084,0.153166987 C62.4811562,0.289923225 63.0040323,1.03512476 62.8681706,1.81871401 L39.2794271,135.305758 C39.143087,136.088868 38.3996749,136.61334 37.6189487,136.476583 C37.3941072,136.437236 37.1907931,136.347505 37.0180957,136.220825" id="Fill-11" fill="#775224"></path>
                <polygon id="Fill-13" fill="#F7E7DB" points="23.9328467 38.5399712 30.6556075 0.970393474 91.5288121 11.9296065 84.8060513 49.4991843"></polygon>
                <polygon id="Fill-15" fill="#F6CEA7" points="31.4118403 132.684597 29.3987914 128.650048 49.587166 121.104942 47.8530161 116.008973 53.8314081 112.812236 57.6704571 123.108781 57.4896271 124.829031 56.3180594 126.244098"></polygon>
                <path d="M28.2430582,134.589923 L31.4338939,132.66238 L29.5686663,128.593282 L26.0329141,129.767946 C25.8434732,129.809213 25.6554674,129.869674 25.4722455,129.954607 C24.1121937,130.581766 23.5166029,132.196449 24.1418536,133.560653 C24.7671043,134.925336 26.3768738,135.522745 27.737404,134.895585 C27.9206259,134.810653 28.0885395,134.707006 28.2430582,134.589923" id="Fill-17" fill="#F6CEA7"></path>
                <path d="M2.12967954,158.541507 L2.5425268,154.791507 L7.00778329,154.791507 L7.42063055,158.541507 C7.46225014,158.732965 7.48616945,158.931622 7.48616945,159.136036 C7.48616945,160.652831 6.27202536,161.882198 4.77515504,161.882198 C3.27780634,161.882198 2.06414063,160.652831 2.06414063,159.136036 C2.06414063,158.931622 2.08805994,158.732965 2.12967954,158.541507" id="Fill-19" fill="#F6CEA7"></path>
                <polygon id="Fill-21" fill="#F6CEA7" points="2.32361729 156.780134 7.22994582 156.810845 7.37489683 122.789251 14.1679804 90.3708253 8.02837233 89.3372361 1.20515043 121.941363"></polygon>
                <polygon id="Fill-23" fill="#D43270" points="0 111.832582 16.0622939 117.80571 16.0622939 90.8340211 8.92764265 87.3138676"></polygon>
                <path d="M32.6380398,80.371785 L31.266985,80.371785 L31.266985,74.6851248 L21.3371233,74.6851248 L21.3371233,80.371785 L19.6886046,80.371785 L19.6886046,82.1021113 L19.701521,82.1021113 C19.7847602,84.0915547 22.6426392,85.6904031 26.1635614,85.6904031 C29.6840052,85.6904031 32.5418841,84.0915547 32.6251233,82.1021113 L32.6380398,82.1021113 L32.6380398,80.371785 Z" id="Fill-25" fill="#E9BC96"></path>
                <path d="M37.6666916,61.8354607 C37.6666916,70.9429463 33.1990432,78.3263436 26.3021499,78.3263436 C19.6870259,78.3263436 14.9376081,70.9429463 14.9376081,61.8354607 C14.9376081,52.727975 19.2847032,47.3359405 26.3021499,47.3359405 C33.7788473,47.3359405 37.6666916,52.727975 37.6666916,61.8354607" id="Fill-27" fill="#F6CEA7"></path>
                <path d="M25.0234715,60.8168906 C25.0234715,61.1892514 24.7254369,61.4910749 24.3580363,61.4910749 C23.9906357,61.4910749 23.6926012,61.1892514 23.6926012,60.8168906 C23.6926012,60.4445298 23.9906357,60.1427063 24.3580363,60.1427063 C24.7254369,60.1427063 25.0234715,60.4445298 25.0234715,60.8168906" id="Fill-29" fill="#3C3C3B"></path>
                <path d="M33.5153043,60.8168906 C33.5153043,61.1892514 33.2172697,61.4910749 32.8498692,61.4910749 C32.4824686,61.4910749 32.184434,61.1892514 32.184434,60.8168906 C32.184434,60.4445298 32.4824686,60.1427063 32.8498692,60.1427063 C33.2172697,60.1427063 33.5153043,60.4445298 33.5153043,60.8168906" id="Fill-31" fill="#3C3C3B"></path>
                <path d="M32.6083798,69.6108445 C31.8238265,70.3210173 30.3245643,70.8008637 28.6042876,70.8008637 C26.8835326,70.8008637 25.3842703,70.3210173 24.599717,69.6108445" id="Fill-33" fill="#3C3C3B"></path>
                <path d="M16.4306513,63.0391555 C16.4306513,64.4638196 15.7623458,65.6183301 14.9376081,65.6183301 C14.1128703,65.6183301 13.4445648,64.4638196 13.4445648,63.0391555 C13.4445648,61.6144914 14.1128703,60.4599808 14.9376081,60.4599808 C15.7623458,60.4599808 16.4306513,61.6144914 16.4306513,63.0391555" id="Fill-35" fill="#F6CEA7"></path>
                <path d="M38.6811095,62.8309981 C38.6811095,64.2556622 38.012804,65.4101727 37.1880663,65.4101727 C36.3633285,65.4101727 35.6950231,64.2556622 35.6950231,62.8309981 C35.6950231,61.406334 36.3633285,60.2518234 37.1880663,60.2518234 C38.012804,60.2518234 38.6811095,61.406334 38.6811095,62.8309981" id="Fill-37" fill="#F6CEA7"></path>
            </g>
            <g id="Group-10" transform="translate(115.000000, 49.000000)">
                <path d="M27.5495477,16.1222062 C27.8679497,20.2493046 27.0222395,23.6795204 25.6612273,23.7840767 C24.2997349,23.8886331 22.97282,20.6517026 22.6544181,16.5246043 C22.3360161,12.3979856 23.1471487,8.94426859 24.5086411,8.83923261 C25.8696533,8.73467626 27.2311458,11.9951079 27.5495477,16.1222062" id="Fill-31" fill="#935F36"></path>
                <path d="M41.8104489,16.1222062 C41.4920469,20.2493046 42.337757,23.6795204 43.6987693,23.7840767 C45.0602617,23.8886331 46.3871766,20.6517026 46.7055785,16.5246043 C47.0239805,12.3979856 46.2128479,8.94426859 44.8513555,8.83923261 C43.4903432,8.73467626 42.1288508,11.9951079 41.8104489,16.1222062" id="Fill-33" fill="#935F36"></path>
                <path d="M45.7579606,15.7213909 C45.7579606,24.4969305 41.3910996,31.6110791 34.649911,31.6110791 C28.1843826,31.6110791 23.5418614,24.4969305 23.5418614,15.7213909 C23.5418614,6.94585132 27.7910626,1.75016787 34.649911,1.75016787 C41.958268,1.75016787 45.7579606,6.94585132 45.7579606,15.7213909" id="Fill-35" fill="#F6CEA7"></path>
                <path d="M47.2568989,16.8282494 C47.2568989,18.2522302 46.5859977,19.4061871 45.7580566,19.4061871 C44.9301155,19.4061871 44.2592143,18.2522302 44.2592143,16.8282494 C44.2592143,15.4042686 44.9301155,14.2503118 45.7580566,14.2503118 C46.5859977,14.2503118 47.2568989,15.4042686 47.2568989,16.8282494" id="Fill-37" fill="#F6CEA7"></path>
                <path d="M25.0409439,16.8282494 C25.0409439,18.2522302 24.3700426,19.4061871 23.5421015,19.4061871 C22.7141605,19.4061871 22.0432592,18.2522302 22.0432592,16.8282494 C22.0432592,15.4042686 22.7141605,14.2503118 23.5421015,14.2503118 C24.3700426,14.2503118 25.0409439,15.4042686 25.0409439,16.8282494" id="Fill-39" fill="#F6CEA7"></path>
                <path d="M30.9568807,14.739952 C30.9568807,15.098705 30.6658527,15.3893525 30.30663,15.3893525 C29.9474073,15.3893525 29.6563793,15.098705 29.6563793,14.739952 C29.6563793,14.381199 29.9474073,14.0905516 30.30663,14.0905516 C30.6658527,14.0905516 30.9568807,14.381199 30.9568807,14.739952" id="Fill-41" fill="#3C3C3B"></path>
                <path d="M39.2569902,14.739952 C39.2569902,15.098705 38.9659621,15.3893525 38.6067394,15.3893525 C38.2475167,15.3893525 37.9564887,15.098705 37.9564887,14.739952 C37.9564887,14.381199 38.2475167,14.0905516 38.6067394,14.0905516 C38.9659621,14.0905516 39.2569902,14.381199 39.2569902,14.739952" id="Fill-43" fill="#3C3C3B"></path>
                <path d="M38.3705073,23.2133813 C37.6035572,23.8973141 36.138332,24.3601439 34.4565166,24.3601439 C32.7751815,24.3601439 31.309476,23.8973141 30.542526,23.2133813" id="Fill-45" fill="#3C3C3B"></path>
                <path d="M46.2747034,10.8428777 C46.2747034,10.7675779 45.7425927,6.5459952 44.8915999,4.76901679 C44.8349311,4.65103118 44.7821042,4.5311271 44.722554,4.41505995 C44.7091071,4.40594724 44.6649246,4.31961631 44.6562802,4.28604317 C44.3268327,3.66014388 43.9527224,3.06110312 43.5358704,2.49515588 C42.9211578,1.9694964 42.1249128,1.65007194 41.252309,1.65007194 C41.1082357,1.65007194 40.9675241,1.66158273 40.8282533,1.6783693 C40.184726,0.836642686 39.1723711,0.291318945 38.0303503,0.291318945 C37.4919965,0.291318945 36.9838981,0.415539568 36.527666,0.631366906 C36.00468,0.236642686 35.35587,0.000191846523 34.649911,0.000191846523 C33.9439519,0.000191846523 33.295142,0.236642686 32.772156,0.631366906 C32.3159239,0.415539568 31.8078255,0.291318945 31.2694717,0.291318945 C30.1274509,0.291318945 29.1155762,0.836642686 28.4720489,1.6783693 C28.3327781,1.66158273 28.1915863,1.65007194 28.0479932,1.65007194 C27.1749092,1.65007194 26.3786642,1.9694964 25.7644318,2.49515588 C25.3475798,3.06110312 24.9734695,3.66014388 24.6435417,4.28604317 C24.6348973,4.31961631 24.5911951,4.40594724 24.5777483,4.41505995 C24.518198,4.5311271 24.4648909,4.65103118 24.4082221,4.76901679 C23.5577095,6.5459952 23.0251186,10.7675779 23.0251186,10.8428777 C23.0251186,14.0639808 23.6278251,15.5920384 25.4465101,17.9670983 L25.9267544,11.84 C25.9267544,11.4807674 25.9815022,11.1340048 26.081393,10.8073861 C26.5232177,9.36901679 27.8630992,8.322494 29.4483855,8.322494 C29.6054254,8.322494 33.1770019,9.04431655 34.649911,9.04431655 C36.1233004,9.04431655 39.6943966,8.322494 39.8514365,8.322494 C41.4367228,8.322494 42.7766042,9.36901679 43.218429,10.8073861 C43.3188,11.1340048 43.3730676,11.4807674 43.3730676,11.84 L43.8533119,17.9670983 C45.6724771,15.5920384 46.2747034,14.0639808 46.2747034,10.8428777" id="Fill-47" fill="#935F36"></path>
                <polygon id="Fill-49" fill="#16152D" points="30.839461 190.421007 25.4890598 190.421007 16.5704437 96.7706475 36.3272121 96.7706475"></polygon>
                <polygon id="Fill-51" fill="#16152D" points="38.1656351 190.421007 43.5160363 190.421007 52.4346523 96.7706475 32.677884 96.7706475"></polygon>
                <path d="M49.7428833,190.420959 L38.149787,190.420959 L38.149787,195.677074 L49.7428833,195.677074 C51.1961024,195.677074 52.3746218,194.500576 52.3746218,193.049257 C52.3746218,191.597458 51.1961024,190.420959 49.7428833,190.420959" id="Fill-53" fill="#775124"></path>
                <path d="M19.2297483,190.420959 C17.7765292,190.420959 16.5980098,191.597458 16.5980098,193.049257 C16.5980098,194.500576 17.7765292,195.677074 19.2297483,195.677074 L30.8228445,195.677074 L30.8228445,190.420959 L19.2297483,190.420959 Z" id="Fill-55" fill="#775124"></path>
                <path d="M52.3923908,68.7388489 L52.5489505,47.4208633 C52.5489505,40.8904077 48.1590378,35.5470024 41.620032,35.5470024 L34.6497669,35.5470024 L27.6799821,35.5470024 C21.1409763,35.5470024 16.7510636,40.8904077 16.7510636,47.4208633 L16.9076232,68.7388489 L15.1672181,109.186331 L34.6497669,109.186331 L54.132796,109.186331 L52.3923908,68.7388489 Z" id="Fill-57" fill="#EAEAEB"></path>
                <path d="M39.3671102,35.5470504 L39.3671102,30.0679137 L29.6613738,30.0679137 L29.6613738,35.5470504 C29.6613738,35.5470504 30.2866518,38.5767866 33.1460261,39.0827818 L34.514242,41.6002878 L35.8824579,39.0827818 C38.9012732,38.6789448 39.3671102,35.5470504 39.3671102,35.5470504" id="Fill-59" fill="#E9BC96"></path>
                <polygon id="Fill-61" fill="#FEFEFE" points="39.4999938 34.4047962 40.2856733 35.5458034 39.8443289 41.6004796 35.8823138 39.082494"></polygon>
                <polygon id="Fill-63" fill="#C6C6C6" points="34.514338 41.6004317 35.8825539 39.082446 37.3703506 40.0119424"></polygon>
                <polygon id="Fill-65" fill="#FEFEFE" points="29.5286343 34.4047962 28.7429547 35.5458034 29.1842992 41.6004796 33.1463143 39.082494"></polygon>
                <polygon id="Fill-67" fill="#C6C6C6" points="34.514338 41.6004317 33.1461222 39.082446 31.6583255 40.0119424"></polygon>
                <polygon id="Fill-69" fill="#72C5CE" points="14.7274584 109.203501 14.7274584 109.186715 11.9650935 109.186715"></polygon>
                <path d="M14.9978359,44.1960671 L20.9355759,45.1816787 L14.2961991,76.4186091 L14.7274584,113.422926 L27.5005148,113.422926 L27.5005148,35.5471463 C20.1292458,35.5471463 16.1883614,39.220048 14.9978359,44.1960671" id="Fill-71" fill="#EF4538"></path>
                <polygon id="Fill-73" fill="#72C5CE" points="11.5962179 109.186523 11.9640874 109.186523 11.5962179 109.184125"></polygon>
                <path d="M20.9354318,45.1816787 L14.9976918,44.1960671 C14.752287,45.2229257 14.6207001,46.3039808 14.6207001,47.4210072 L14.7772597,68.7389928 L14.7273143,109.186475 L14.296055,76.4186091 L20.9354318,45.1816787 Z" id="Fill-75" fill="#EF4538"></path>
                <polygon id="Fill-77" fill="#EF4538" points="54.5874432 109.203501 54.5874432 109.186715 57.3498082 109.186715"></polygon>
                <path d="M54.3170657,44.1960671 L48.3793258,45.1816787 L55.0187026,76.4186091 L54.5874432,113.422926 L41.8143869,113.422926 L41.8143869,35.5471463 C49.1856559,35.5471463 53.1265402,39.220048 54.3170657,44.1960671" id="Fill-79" fill="#EF4538"></path>
                <polygon id="Fill-81" fill="#EF4538" points="57.7176778 109.186523 57.3498082 109.186523 57.7176778 109.184125"></polygon>
                <path d="M48.3794218,45.1816787 L54.3171618,44.1960671 C54.5625666,45.2229257 54.6941535,46.3039808 54.6941535,47.4210072 L54.5375939,68.7389928 L54.5875393,109.186475 L55.0187986,76.4186091 L48.3794218,45.1816787 Z" id="Fill-83" fill="#EF4538"></path>
                <polygon id="Fill-89" fill="#EBEBEC" points="35.3030432 111.711655 12.6066998 98.7039808 30.9890091 66.7126139 53.6858327 79.7202878"></polygon>
                <polygon id="Fill-91" fill="#B1B1B1" points="46.9578989 84.2806235 30.4413385 74.8144365 31.8119556 72.4293046 48.3285159 81.8954916"></polygon>
                <polygon id="Fill-93" fill="#B1B1B1" points="41.9258515 86.4577938 31.2644291 80.347482 31.7840534 79.442446 42.4459561 85.5527578"></polygon>
                <polygon id="Fill-95" fill="#B1B1B1" points="43.540961 90.2326139 30.0326506 82.4906475 30.5527552 81.5860911 44.0610655 89.3275779"></polygon>
                <polygon id="Fill-97" fill="#B1B1B1" points="40.7005083 91.4539089 28.8010162 84.6342446 29.3211208 83.7292086 41.2206129 90.5488729"></polygon>
                <polygon id="Fill-99" fill="#B1B1B1" points="37.12922 92.2563549 27.5694779 86.7776978 28.0895824 85.8726619 37.6493245 91.3513189"></polygon>
                <polygon id="Fill-101" fill="#B1B1B1" points="38.7440893 96.0310312 26.3379395 88.9207194 26.858044 88.0161631 39.2641938 95.1259952"></polygon>
                <polygon id="Fill-103" fill="#B1B1B1" points="36.4315691 97.5549161 25.1064492 91.0642686 25.6260735 90.1592326 36.9516737 96.6498801"></polygon>
                <polygon id="Fill-105" fill="#B1B1B1" points="36.9140705 100.680624 23.8744786 93.2077218 24.3945831 92.3026859 37.4341751 99.7755875"></polygon>
                <polygon id="Fill-107" fill="#B1B1B1" points="29.3833124 79.2647482 30.2856913 79.7817746 30.8038749 78.8805755 29.9010157 78.3635492"></polygon>
                <polygon id="Fill-109" fill="#B1B1B1" points="28.1506695 81.4098801 29.0530484 81.9269065 29.571232 81.0257074 28.6683728 80.5086811"></polygon>
                <polygon id="Fill-111" fill="#B1B1B1" points="26.9190831 83.5532374 27.821462 84.0702638 28.3396456 83.1690647 27.4367864 82.6520384"></polygon>
                <polygon id="Fill-113" fill="#B1B1B1" points="25.6874967 85.6965468 26.5898756 86.2135731 27.1080592 85.3123741 26.2052 84.7953477"></polygon>
                <polygon id="Fill-115" fill="#B1B1B1" points="24.4558623 87.8399041 25.3582412 88.3569305 25.8764248 87.4557314 24.9735656 86.938705"></polygon>
                <polygon id="Fill-117" fill="#B1B1B1" points="23.2242759 89.9832614 24.1266548 90.5002878 24.6448384 89.5990887 23.7419792 89.0820624"></polygon>
                <polygon id="Fill-119" fill="#B1B1B1" points="21.9926895 92.1266187 22.8950685 92.6436451 23.413252 91.742446 22.5103928 91.2254197"></polygon>
                <polygon id="Fill-121" fill="#EF4538" points="17.4867018 87.726283 21.4011727 85.4783213 8.67229874 68.0154916 25.9798214 40.5564988 18.0413839 38.8855156 0.799174461 65.2111751 4.80244253e-05 66.744988 0.198869145 68.5728058"></polygon>
                <path d="M19.0861552,91.0681535 L17.4806987,87.6954916 L21.2899961,85.3372182 L23.6004512,88.2734293 C23.7363603,88.412518 23.8597831,88.5669544 23.9668776,88.7386571 C24.7588004,90.0144365 24.3650001,91.6897362 23.0875504,92.4806235 C21.8101006,93.2715108 20.1326075,92.878705 19.3406847,91.6029257 C19.2340705,91.4307434 19.150508,91.2513669 19.0861552,91.0681535" id="Fill-123" fill="#F6CEA7"></path>
                <polygon id="Fill-150" fill="#EF4538" points="40.7004603 82.4520863 38.5057441 78.5110791 58.4253152 70.096211 47.3532839 41.7940528 53.8202531 42.5959712 66.6197229 71.7451319 66.5131087 73.4707914 65.3994222 74.93506"></polygon>
                <path d="M37.6052861,84.4928537 L40.7215911,82.4290647 L38.6738296,78.4472902 L35.1786119,79.7743885 C34.9903561,79.823789 34.8049819,79.8923741 34.6248903,79.98494 C33.2878903,80.6703118 32.7605821,82.3086811 33.4473314,83.6439329 C34.1340806,84.9791847 35.7741148,85.5058034 37.1111148,84.819952 C37.2912064,84.7273861 37.4554499,84.6165947 37.6052861,84.4928537" id="Fill-152" fill="#F6CEA7"></path>
                <polygon id="Fill-154" fill="#16152D" points="46.9512235 72.6576019 48.788638 75.3276259 30.965333 87.5597602 29.1279185 84.8902158"></polygon>
                <polygon id="Fill-156" fill="#F7DFBD" points="28.9916732 87.714964 30.9649968 87.560048 29.1222996 84.8818705 28.2698661 86.6660432"></polygon>
                <polygon id="Fill-158" fill="#16152D" points="27.7214272 87.8147242 28.9916732 87.714964 28.2698661 86.6660432"></polygon>
                <path d="M46.9512235,72.6576019 C47.6893589,72.1511271 48.6993125,72.3376978 49.2064505,73.0753477 C49.7140686,73.812518 49.5267734,74.8206715 48.788638,75.3276259 C48.0500223,75.8341007 47.0405489,75.6470504 46.5329307,74.9098801 C46.0257928,74.1727098 46.213088,73.1640767 46.9512235,72.6576019" id="Fill-160" fill="#16152D"></path>
            </g>
            <g id="Group-8" transform="translate(118.000000, -8.000000)">
                <path d="M100.20121,70.324856 C100.20121,79.9505758 95.0509049,87.7543186 87.1006052,87.7543186 C79.4751297,87.7543186 74,79.9505758 74,70.324856 C74,60.6991363 79.0110951,55 87.1006052,55 C95.7196888,55 100.20121,60.6991363 100.20121,70.324856" id="Fill-39" fill="#AD6427"></path>
                <mask id="mask-2" fill="white">
                    <use xlink:href="#path-1"></use>
                </mask>
                <g id="Clip-42"></g>
                <path d="M70.3564899,164.713052 L69.9436427,161 L65.4783862,161 L65.0655389,164.713052 C65.0239193,164.903071 65,165.099328 65,165.301823 C65,166.803263 66.2141441,168.020633 67.7110144,168.020633 C69.2083631,168.020633 70.4220288,166.803263 70.4220288,165.301823 C70.4220288,165.099328 70.3981095,164.903071 70.3564899,164.713052" id="Fill-51" fill="#F6CEA7" mask="url(#mask-2)"></path>
                <polygon id="Fill-41" fill="#AD6427" mask="url(#mask-2)" points="74 89.1122841 100.20121 89.1122841 100.20121 71 74 71"></polygon>
                <polygon id="Fill-43" fill="#F6CEA7" mask="url(#mask-2)" points="84.3867205 243.695298 79.0570202 243.695298 74 150 86.504536 150"></polygon>
                <path d="M72.6215562,244 C71.1739597,244 70,245.177063 70,246.629559 C70,248.081574 71.1739597,249.258637 72.6215562,249.258637 L84.1697983,249.258637 L84.1697983,244 L72.6215562,244 Z" id="Fill-44" fill="#775124" mask="url(#mask-2)"></path>
                <polygon id="Fill-45" fill="#F6CEA7" mask="url(#mask-2)" points="89.1178156 243.695298 94.4475159 243.695298 99.504536 150 87 150"></polygon>
                <path d="M100.548242,244 C101.995839,244 103.169798,245.177063 103.169798,246.629559 C103.169798,248.081574 101.995839,249.258637 100.548242,249.258637 L89,249.258637 L89,244 L100.548242,244 Z" id="Fill-46" fill="#775124" mask="url(#mask-2)"></path>
                <path d="M100.776801,111.286468 L103.960939,100.879559 C103.960939,94.3459693 101.19204,89 95.3504669,89 L86.7328184,89 L78.11517,89 C72.2740749,89 69.5051758,94.3459693 69.5051758,100.879559 L72.6893141,111.286468 L69,176.75048 L104.466115,176.75048 L100.776801,111.286468 Z" id="Fill-47" fill="#FFB31A" mask="url(#mask-2)"></path>
                <polygon id="Fill-48" fill="#F6CEA7" mask="url(#mask-2)" points="65 162.46881 69.4647781 162.46881 70.6803573 129.605566 73.4947032 106.113724 68.015268 105 65.1774813 128.613244"></polygon>
                <polygon id="Fill-49" fill="#FFB31A" mask="url(#mask-2)" points="66 108.132917 73.3394006 111.011516 79.4962305 96.3507678 70.1691354 95"></polygon>
                <path d="M92.6078674,88.4817658 L91.1377867,88.4817658 L91.1377867,83 L81.4700807,83 L81.4700807,88.4817658 L80,88.4817658 L80,90.1497121 L80.012438,90.1497121 C80.0932853,92.0676583 82.8760576,93.6089251 86.3036945,93.6089251 C89.7318098,93.6089251 92.5141037,92.0676583 92.5954294,90.1497121 L92.6078674,90.1497121 L92.6078674,88.4817658 Z" id="Fill-50" fill="#E9BC96" mask="url(#mask-2)"></path>
                <path d="M98.1301441,70.9779271 C98.1301441,79.7576775 93.7801787,86.8752399 87.065072,86.8752399 C80.6245591,86.8752399 76,79.7576775 76,70.9779271 C76,62.1981766 80.2327608,57 87.065072,57 C94.3451527,57 98.1301441,62.1981766 98.1301441,70.9779271" id="Fill-52" fill="#F6CEA7" mask="url(#mask-2)"></path>
                <path d="M98.9860865,71.5791747 C98.9860865,73.0038388 98.317781,74.1583493 97.4930432,74.1583493 C96.6683055,74.1583493 96,73.0038388 96,71.5791747 C96,70.1545106 96.6683055,69 97.4930432,69 C98.317781,69 98.9860865,70.1545106 98.9860865,71.5791747" id="Fill-53" fill="#F6CEA7" mask="url(#mask-2)"></path>
                <path d="M76.9860865,71.5791747 C76.9860865,73.0038388 76.317781,74.1583493 75.4930432,74.1583493 C74.6683055,74.1583493 74,73.0038388 74,71.5791747 C74,70.1545106 74.6683055,69 75.4930432,69 C76.317781,69 76.9860865,70.1545106 76.9860865,71.5791747" id="Fill-54" fill="#F6CEA7" mask="url(#mask-2)"></path>
                <path d="M83.2954697,69.6497121 C83.2954697,70.0086372 83.0055677,70.2994242 82.6477349,70.2994242 C82.289902,70.2994242 82,70.0086372 82,69.6497121 C82,69.2907869 82.289902,69 82.6477349,69 C83.0055677,69 83.2954697,69.2907869 83.2954697,69.6497121" id="Fill-55" fill="#3C3C3B" mask="url(#mask-2)"></path>
                <path d="M91.2954697,69.6497121 C91.2954697,70.0086372 91.0055677,70.2994242 90.6477349,70.2994242 C90.289902,70.2994242 90,70.0086372 90,69.6497121 C90,69.2907869 90.289902,69 90.6477349,69 C91.0055677,69 91.2954697,69.2907869 91.2954697,69.6497121" id="Fill-56" fill="#3C3C3B" mask="url(#mask-2)"></path>
                <path d="M90.7976945,78 C90.0337118,78.684261 88.5741556,79.1473129 86.8988473,79.1473129 C85.2240173,79.1473129 83.7639827,78.684261 83,78" id="Fill-57" fill="#3C3C3B" mask="url(#mask-2)"></path>
                <polygon id="Fill-58" fill="#AD6427" mask="url(#mask-2)" points="98.5095043 64.9769674 76 64.9769674 77.2213199 61.4582534 81.5865937 57.1996161 87.254513 56 93.4266513 57.559501 96.7155562 61.4582534"></polygon>
                <path d="M99.3549495,65.0034353 C99.8041541,66.8618806 99.4616296,68.5403834 98.5895316,68.7524756 C97.7174336,68.9645677 96.6468054,67.6296349 96.1976008,65.7711896 C95.7483962,63.9127443 96.0909206,62.2342414 96.9630186,62.0221493 C97.8346382,61.8100572 98.9057449,63.14499 99.3549495,65.0034353" id="Fill-59" fill="#AD6427" mask="url(#mask-2)"></path>
                <path d="M75.1976008,65.0034353 C74.7483962,66.8618806 75.0909206,68.5403834 75.9630186,68.7524756 C76.8351166,68.9645677 77.9057449,67.6296349 78.3549495,65.7711896 C78.8041541,63.9127443 78.4616296,62.2342414 77.5895316,62.0221493 C76.717912,61.8100572 75.6468054,63.14499 75.1976008,65.0034353" id="Fill-60" fill="#AD6427" mask="url(#mask-2)"></path>
                <polygon id="Fill-61" fill="#F6CEA7" mask="url(#mask-2)" points="135.319343 94.1492322 132.098369 91 118.799712 108.00144 99.6800519 93.568618 95 97.9928023 118.247654 116.334933 119.936836 116.684741 121.63702 115.994722"></polygon>
                <path d="M138.098467,91.942297 L135.298473,94.4063085 L132,91.3875945 L134.190052,88.3655215 C134.286686,88.1970954 134.40102,88.035867 134.536882,87.8866348 C135.546277,86.7772298 137.260813,86.6980551 138.366363,87.7105311 C139.472392,88.7225273 139.551326,90.442297 138.542409,91.5517019 C138.406548,91.701414 138.256813,91.8304927 138.098467,91.942297" id="Fill-62" fill="#F6CEA7" mask="url(#mask-2)"></path>
                <path d="M131.590553,101.843479 C132.159354,105.270063 133.793522,105.500389 134.858409,105.322846 C135.923297,105.144823 139.946046,104.107395 139.694893,102.594439 C139.443741,101.081003 136.71981,98.6788921 136.248599,95.8410802 C135.777867,93.0032683 134.857931,83.3420399 134.857931,83.3420399 C128.928813,81.9557635 124,85.2311954 124,85.2311954 C124.472167,88.0757251 129.619124,89.9610418 131.590553,101.843479 Z" id="Fill-63" fill="#F9A621" mask="url(#mask-2)"></path>
                <path d="M164.154854,90.8763517 L164.154854,90.8763517 C162.933056,91.0802865 161.777275,90.2520715 161.57396,89.0265437 L156.0309,55.6196339 C155.827107,54.3936262 156.652802,53.234797 157.875079,53.0308623 C159.096877,52.8269275 160.252658,53.6551425 160.455972,54.8806703 L165.999032,88.2875801 C166.202347,89.5131079 165.376652,90.672417 164.154854,90.8763517" id="Fill-64" fill="#FFB31A" mask="url(#mask-2)"></path>
                <path d="M139.552881,82.1727447 C133.976333,82.2236084 124.811889,84.3877159 124.811889,84.3877159 C123.198293,84.6573896 121.672241,83.5638196 121.403866,81.9448177 L120.038552,73.7164107 C119.784051,72.184261 120.816408,70.7356046 122.343895,70.4803263 L137.201134,68 L139.552881,82.1727447 Z" id="Fill-65" fill="#FFB31A" mask="url(#mask-2)"></path>
                <path d="M161.630669,89.4193858 L161.630669,89.4193858 L155.919216,55 C155.919216,55 151.290352,63.9904031 137,68.4025912 L139.351746,82.574856 C155.45853,82.4692898 161.630669,89.4193858 161.630669,89.4193858" id="Fill-66" fill="#EBEBEC" mask="url(#mask-2)"></path>
                <path d="M121.740918,82.4889635 L121.740918,82.4889635 C120.764531,82.6521113 119.840768,81.9899232 119.678595,81.0105566 L119.024641,77.0690979 C118.86199,76.0892514 119.521684,75.1631478 120.49807,75 L121.740918,82.4889635 Z" id="Fill-67" fill="#EBEBEC" mask="url(#mask-2)"></path>
                <path d="M163,68.0247021 L163,68.0247021 C163.976386,67.8615543 164.90015,68.5237424 165.062323,69.503109 L165.716277,73.4445677 C165.878928,74.4244142 165.219233,75.3505178 164.242847,75.5136656 L163,68.0247021 Z" id="Fill-68" fill="#FFB31A" mask="url(#mask-2)"></path>
                <path d="M131.469031,72.3250169 L121.774057,73.943539 C121.411919,74.0039996 121.069395,73.7583183 121.009118,73.3950745 C120.948841,73.0318307 121.193775,72.6882607 121.555913,72.6278 L131.250887,71.009278 C131.613026,70.9483375 131.95555,71.1940188 132.015827,71.5577424 C132.076104,71.9209862 131.83117,72.2645563 131.469031,72.3250169" id="Fill-69" fill="#EBEBEC" mask="url(#mask-2)"></path>
                <path d="M131.469031,75.3250169 L121.774057,76.943539 C121.411919,77.0039996 121.069395,76.7583183 121.009118,76.3950745 C120.948841,76.0318307 121.193775,75.6882607 121.555913,75.6278 L131.250887,74.009278 C131.613026,73.9483375 131.95555,74.1940188 132.015827,74.5577424 C132.076104,74.9209862 131.83117,75.2645563 131.469031,75.3250169" id="Fill-70" fill="#EBEBEC" mask="url(#mask-2)"></path>
                <path d="M132.469031,78.3250169 L122.774057,79.943539 C122.411919,80.0039996 122.069395,79.7583183 122.009118,79.3950745 C121.948841,79.0318307 122.193775,78.6882607 122.555913,78.6278 L132.250887,77.009278 C132.613026,76.9483375 132.95555,77.1940188 133.015827,77.5577424 C133.076104,77.9209862 132.83117,78.2645563 132.469031,78.3250169" id="Fill-71" fill="#EBEBEC" mask="url(#mask-2)"></path>
                <path d="M132.469031,81.3250169 L122.774057,82.943539 C122.411919,83.0039996 122.069395,82.7583183 122.009118,82.3950745 C121.948841,82.0318307 122.193775,81.6882607 122.555913,81.6278 L132.250887,80.009278 C132.613026,79.9483375 132.95555,80.1940188 133.015827,80.5577424 C133.076104,80.9209862 132.83117,81.2645563 132.469031,81.3250169" id="Fill-72" fill="#EBEBEC" mask="url(#mask-2)"></path>
                <polygon id="Fill-73" fill="#FFB31A" mask="url(#mask-2)" points="110.304663 101.225048 104.997925 107.068618 93 96.6645873 100.475741 91"></polygon>
            </g>
            <g id="Group-9" transform="translate(58.000000, 49.000000)">
                <path d="M7.67614379,112.788969 L7.261693,109.077698 L2.77909314,109.077698 L2.36464235,112.788969 C2.3228611,112.978897 2.29884889,113.17506 2.29884889,113.377458 C2.29884889,114.878177 3.5177088,116.094964 5.02039307,116.094964 C6.52355758,116.094964 7.74193725,114.878177 7.74193725,113.377458 C7.74193725,113.17506 7.71792504,112.978897 7.67614379,112.788969" id="Fill-1" fill="#F6CEA7"></path>
                <polygon id="Fill-3" fill="#21213B" points="40.179507 193.523213 34.7128867 193.523213 25.6007323 97.838801 45.7863587 97.838801"></polygon>
                <polygon id="Fill-5" fill="#21213B" points="19.6832106 190.837986 25.1498309 190.837986 28.8645202 95.1535731 8.67889379 95.1535731"></polygon>
                <path d="M12.7409438,192.204125 L24.125614,188.939376 L25.610049,194.101007 L14.2248985,197.366235 C12.7976126,197.775348 11.3083751,196.951367 10.8987268,195.525947 C10.4890784,194.100528 11.3136578,192.613237 12.7409438,192.204125" id="Fill-7" fill="#775124"></path>
                <path d="M27.8538942,194.546763 C26.4021158,194.858993 25.4790864,196.28777 25.7922056,197.73765 C26.1048446,199.18705 27.5354923,200.109353 28.9867904,199.796643 L40.5659596,197.304556 L39.4325832,192.054676 L27.8538942,194.546763 Z" id="Fill-9" fill="#775124"></path>
                <polygon id="Fill-11" fill="#F6CEA7" points="2.83782701 111.041918 9.00128175 111.079808 8.55801631 77.4073861 15.3770045 45.3244125 9.21402996 44.3013909 2.36382593 76.5680576"></polygon>
                <path d="M8.87055927,69.5194724 L8.70967744,47.6245084 C8.70967744,40.9170743 13.2186907,35.4288249 19.9349066,35.4288249 L27.0934274,35.4288249 L34.2519483,35.4288249 C40.9681642,35.4288249 45.4766972,40.9170743 45.4766972,47.6245084 L45.3162956,69.5194724 L48.5833973,113.46048 L6.56394612,111.542014 L8.87055927,69.5194724 Z" id="Fill-13" fill="#72C5CE"></path>
                <polygon id="Fill-15" fill="#72C5CE" points="0.808074677 66.5639329 16.9327557 72.4752038 16.9327557 45.7831175 9.77039292 42.2991847"></polygon>
                <path d="M20.6138279,35.4290168 L21.9902079,35.4290168 L21.9902079,29.801199 L31.9586379,29.801199 L31.9586379,35.4290168 L33.6135596,35.4290168 L33.6135596,37.141247 L33.600593,37.141247 C33.5170305,39.1100719 30.6480513,40.6928058 27.1134536,40.6928058 C23.5793362,40.6928058 20.710357,39.1100719 20.6267945,37.141247 L20.6138279,37.141247 L20.6138279,35.4290168 Z" id="Fill-17" fill="#E9BC96"></path>
                <path d="M15.5655964,17.0847482 C15.5655964,26.0981775 20.0505974,33.4046523 26.9742788,33.4046523 C33.6150964,33.4046523 38.3829613,26.0981775 38.3829613,17.0847482 C38.3829613,8.07131894 34.0189818,2.73510791 26.9742788,2.73510791 C19.4685414,2.73510791 15.5655964,8.07131894 15.5655964,17.0847482" id="Fill-19" fill="#F6CEA7"></path>
                <path d="M28.2579717,16.0766906 C28.2579717,16.445036 28.5571639,16.7438369 28.9259915,16.7438369 C29.2948191,16.7438369 29.5940112,16.445036 29.5940112,16.0766906 C29.5940112,15.7083453 29.2948191,15.4095444 28.9259915,15.4095444 C28.5571639,15.4095444 28.2579717,15.7083453 28.2579717,16.0766906" id="Fill-21" fill="#3C3C3B"></path>
                <path d="M19.733108,16.0766906 C19.733108,16.445036 20.0323001,16.7438369 20.4011277,16.7438369 C20.7699553,16.7438369 21.0691475,16.445036 21.0691475,16.0766906 C21.0691475,15.7083453 20.7699553,15.4095444 20.4011277,15.4095444 C20.0323001,15.4095444 19.733108,15.7083453 19.733108,16.0766906" id="Fill-23" fill="#3C3C3B"></path>
                <path d="M20.6436031,24.7795683 C21.4312036,25.4822062 22.9362891,25.9570264 24.6632474,25.9570264 C26.390686,25.9570264 27.8957715,25.4822062 28.6833721,24.7795683" id="Fill-25" fill="#3C3C3B"></path>
                <path d="M15.5656444,18.0699281 L15.3197593,18.0699281 C15.3197593,18.0699281 14.974944,10.0579376 15.3197593,8.05458034 C15.7270065,5.69055156 18.7395787,0.703980815 23.850338,0.74235012 C23.850338,0.74235012 32.8635621,1.49582734 36.1493933,0.243069544 C36.1493933,0.243069544 35.490018,1.82196643 35.193227,1.90110312 C34.8959558,1.97976019 35.0068922,1.92028777 35.0068922,1.92028777 C35.0068922,1.92028777 37.4988797,1.70733813 38.2317324,0.951942446 C38.2317324,0.951942446 37.7769411,3.01477218 38.055963,3.78407674 C38.055963,3.78407674 43.4140481,18.0699281 36.2497644,26.7802398 C36.2497644,26.7802398 37.7313179,18.6660911 35.1298348,18.6660911 C35.1298348,18.6660911 34.670241,13.8219664 34.5295295,12.803741 C34.2798024,10.9917506 33.3788642,8.73419664 28.6835162,8.39414868 C28.6835162,8.39414868 21.5312385,7.97640288 20.4012238,8.1740048 C20.4012238,8.1740048 16.0401257,7.87472422 15.5656444,18.0699281" id="Fill-27" fill="#3C3C3B"></path>
                <path d="M37.1347105,19.3217266 C37.1347105,20.7457074 36.4638092,21.8996643 35.6358681,21.8996643 C34.807927,21.8996643 34.1370258,20.7457074 34.1370258,19.3217266 C34.1370258,17.8977458 34.807927,16.743789 35.6358681,16.743789 C36.4638092,16.743789 37.1347105,17.8977458 37.1347105,19.3217266" id="Fill-29" fill="#F6CEA7"></path>
                <polygon id="Fill-85" fill="#F6CEA7" points="75.6584157 73.1493525 74.876578 68.7076259 54.0992907 74.7052278 44.8445037 45.7594245 40.5655274 52.6428777 48.7753029 81.141199 49.9466186 82.4145803 51.7350482 82.8510312"></polygon>
                <path d="M79.3494769,72.7869065 L75.627584,73.1447002 L74.7059953,68.7638849 L78.2574015,67.5955396 C78.4346116,67.5159233 78.6223871,67.4521343 78.8202478,67.4104077 C80.2912359,67.1020144 81.7343699,68.042542 82.043167,69.5116067 C82.351964,70.9806715 81.410205,72.4214388 79.9392169,72.7303118 C79.7413562,72.7715588 79.5439759,72.7888249 79.3494769,72.7869065" id="Fill-87" fill="#F6CEA7"></path>
                <polygon id="Fill-125" fill="#72C5CE" points="53.3785881 66.5639329 37.2539071 72.4752038 37.2539071 45.7831175 44.4162699 42.2991847"></polygon>
                <g id="Group-129" transform="translate(54.541307, 44.941487)">
                    <mask id="mask-4" fill="white">
                        <use xlink:href="#path-3"></use>
                    </mask>
                    <g id="Clip-128"></g>
                    <path d="M6.10092694,20.1431175 L20.3776281,25.7061871 L10.0005103,10.1613429 L6.10092694,20.1431175 Z M32.2401414,35.2347242 L0.173272126,22.7402398 L8.93196681,0.320095923 L32.2401414,35.2347242 Z" id="Fill-127" fill="#FFB31A" mask="url(#mask-4)"></path>
                </g>
                <polygon id="Fill-130" fill="#6D6D99" points="57.3214415 65.7247482 55.7222281 65.1017266 55.812514 64.8705516 57.4117274 65.4935731"></polygon>
                <polygon id="Fill-132" fill="#6D6D99" points="58.6491247 62.3261871 57.0499114 61.7031655 57.1401973 61.4719904 58.7394106 62.095012"></polygon>
                <polygon id="Fill-134" fill="#6D6D99" points="59.976856 58.9276739 58.3776426 58.3046523 58.4679286 58.0734772 60.0671419 58.6964988"></polygon>
                <polygon id="Fill-136" fill="#6D6D99" points="61.3045393 55.5291607 59.7053259 54.9061391 59.7956118 54.674964 61.3948252 55.2979856"></polygon>
                <polygon id="Fill-138" fill="#6D6D99" points="62.6322705 52.1305995 61.0330572 51.5075779 61.1233431 51.2764029 62.7225565 51.8994245"></polygon>
                <polygon id="Fill-140" fill="#6D6D99" points="73.8509204 75.1380815 73.6199229 75.0479137 74.2437602 73.4507914 74.4747577 73.5409592"></polygon>
                <polygon id="Fill-142" fill="#6D6D99" points="70.4478135 73.8120384 70.2168161 73.7218705 70.8406533 72.1247482 71.0716508 72.2149161"></polygon>
                <polygon id="Fill-144" fill="#6D6D99" points="67.0449468 72.4861391 66.8139494 72.3959712 67.4377866 70.7988489 67.6687841 70.8890168"></polygon>
                <polygon id="Fill-146" fill="#6D6D99" points="63.64184 71.1601439 63.4108425 71.069976 64.0346798 69.4728537 64.2656773 69.5630216"></polygon>
                <polygon id="Fill-148" fill="#6D6D99" points="60.2389733 69.8341966 60.0079758 69.7440288 60.6318131 68.1469065 60.8628106 68.2370743"></polygon>
            </g>
        </g>
    </g>
</svg>