<?xml version="1.0" encoding="UTF-8" standalone="no"?>
<svg width="210px" height="315px" viewBox="0 0 210 315" version="1.1" xmlns="http://www.w3.org/2000/svg" xmlns:xlink="http://www.w3.org/1999/xlink">
    <!-- Generator: Sketch 3.8.3 (29802) - http://www.bohemiancoding.com/sketch -->
    <title>Artboard 6</title>
    <desc>Created with Sketch.</desc>
    <defs>
        <polygon id="path-1" points="0 312.399232 207.706882 312.399232 207.706882 0.164610365 0 0.164610365"></polygon>
    </defs>
    <g id="Page-1" stroke="none" stroke-width="1" fill="none" fill-rule="evenodd">
        <g id="Artboard-6">
            <g id="Page-1-Copy" transform="translate(1.000000, 1.000000)">
                <polygon id="Fill-1" fill="#21213B" points="16.474619 301.067431 23.2978582 301.067431 34.6713222 180.016333 9.47634813 180.016333"></polygon>
                <polygon id="Fill-2" fill="#21213B" points="42.0574202 297.670329 35.234181 297.670329 30.5976392 176.619231 55.7926133 176.619231"></polygon>
                <g id="Group-74" transform="translate(0.000000, 0.436157)">
                    <path d="M50.7225084,298.962461 L36.5125718,294.832182 L34.6597533,301.362528 L48.8702893,305.492806 C50.6517764,306.010668 52.510589,304.968336 53.0218974,303.165432 C53.5332058,301.361927 52.5039954,299.480322 50.7225084,298.962461 L50.7225084,298.962461 Z" id="Fill-3" fill="#775124"></path>
                    <path d="M31.8590663,301.926168 C33.6711239,302.321473 34.8232161,304.128583 34.4323919,305.962727 C34.0421671,307.796871 32.2564841,308.962961 30.4450259,308.567656 L15.9923228,305.414826 L17.4069625,298.773339 L31.8590663,301.926168 Z" id="Fill-5" fill="#775124"></path>
                    <path d="M55.5533833,143.753511 L55.7541902,116.053912 C55.7541902,107.568668 50.1262017,100.625595 41.7432622,100.625595 L32.8082536,100.625595 L23.873245,100.625595 C15.4903055,100.625595 9.86291643,107.568668 9.86291643,116.053912 L10.0631239,143.753511 L5.98524496,199.343152 L58.432415,196.916651 L55.5533833,143.753511 Z" id="Fill-7" fill="#D43270"></path>
                    <polygon id="Fill-9" fill="#D43270" points="72.4799677 138.553986 53.538181 148.674519 49.0113337 115.212356 52.8482444 106.379869"></polygon>
                    <path d="M46.3841199,170.548473 C45.8500334,170.156773 45.5527193,169.482111 45.6738029,168.783418 L75.2313821,1.65763839 C75.4016184,0.677185413 76.3331228,0.0205462572 77.3119816,0.191765067 C78.2896415,0.362983877 78.9448115,1.2959762 78.7745752,2.27702994 L49.2175954,169.402809 C49.0467597,170.383262 48.1152553,171.039901 47.136996,170.868683 C46.8552669,170.81942 46.6005118,170.707076 46.3841199,170.548473" id="Fill-11" fill="#31315B"></path>
                    <polygon id="Fill-13" fill="#F7E7DB" points="29.9881452 48.252044 38.4118455 1.21493263 114.686704 14.9358674 106.263004 61.9729787"></polygon>
                    <polygon id="Fill-15" fill="#F6CEA7" points="39.3594144 166.121115 36.8370398 161.06986 62.1333164 151.623388 59.9604058 145.243234 67.4514029 141.24092 72.2617775 154.132194 72.0351954 156.285946 70.5672069 158.057611"></polygon>
                    <path d="M35.3888922,168.506584 L39.3870478,166.0933 L37.0498951,160.998789 L32.619555,162.469469 C32.3821833,162.521135 32.1466098,162.596831 31.9170305,162.703167 C30.2128692,163.488371 29.4665867,165.509954 30.2500334,167.217937 C31.0334801,168.926521 33.0505406,169.674476 34.7553014,168.889273 C34.9848807,168.782937 35.1952784,168.653171 35.3888922,168.506584" id="Fill-17" fill="#F6CEA7"></path>
                    <path d="M2.66851412,198.493966 L3.18581671,193.798966 L8.78083689,193.798966 L9.29813948,198.493966 C9.35028934,198.733673 9.38026052,198.982391 9.38026052,199.238318 C9.38026052,201.137345 7.85892334,202.676512 5.9833268,202.676512 C4.10713084,202.676512 2.58639308,201.137345 2.58639308,199.238318 C2.58639308,198.982391 2.61636427,198.733673 2.66851412,198.493966" id="Fill-19" fill="#F6CEA7"></path>
                    <polygon id="Fill-21" fill="#F6CEA7" points="2.91152046 196.288728 9.05920922 196.327177 9.24083458 153.732143 17.7526501 113.144273 10.0596473 111.85022 1.51006801 152.670586"></polygon>
                    <polygon id="Fill-23" fill="#D43270" points="0 140.014392 20.1262478 147.492749 20.1262478 113.724194 11.1864438 109.316962"></polygon>
                    <path d="M40.8958571,100.625475 L39.1779089,100.625475 L39.1779089,93.5057762 L26.7356726,93.5057762 L26.7356726,100.625475 L24.6700588,100.625475 L24.6700588,102.791843 L24.6862432,102.791843 C24.7905429,105.282626 28.3714997,107.284385 32.7832576,107.284385 C37.1944161,107.284385 40.7753729,105.282626 40.8796726,102.791843 L40.8958571,102.791843 L40.8958571,100.625475 Z" id="Fill-25" fill="#E9BC96"></path>
                    <path d="M47.1968184,77.4179967 C47.1968184,88.8205687 41.5988012,98.0645821 32.9569107,98.0645821 C24.6680807,98.0645821 18.7170029,88.8205687 18.7170029,77.4179967 C18.7170029,66.0154248 24.1639654,59.2645975 32.9569107,59.2645975 C42.3253026,59.2645975 47.1968184,66.0154248 47.1968184,77.4179967" id="Fill-27" fill="#F6CEA7"></path>
                    <path d="M31.3547112,76.142747 C31.3547112,76.6089428 30.9812703,76.9868257 30.520913,76.9868257 C30.0605556,76.9868257 29.6871147,76.6089428 29.6871147,76.142747 C29.6871147,75.6765512 30.0605556,75.2986683 30.520913,75.2986683 C30.9812703,75.2986683 31.3547112,75.6765512 31.3547112,76.142747" id="Fill-29" fill="#3C3C3B"></path>
                    <path d="M41.9950801,76.142747 C41.9950801,76.6089428 41.6216392,76.9868257 41.1612818,76.9868257 C40.7009245,76.9868257 40.3274836,76.6089428 40.3274836,76.142747 C40.3274836,75.6765512 40.7009245,75.2986683 41.1612818,75.2986683 C41.6216392,75.2986683 41.9950801,75.6765512 41.9950801,76.142747" id="Fill-31" fill="#3C3C3B"></path>
                    <path d="M40.8586928,87.1527774 C39.875638,88.0419136 37.9970444,88.6426814 35.841517,88.6426814 C33.6853902,88.6426814 31.8067965,88.0419136 30.8237418,87.1527774" id="Fill-33" fill="#3C3C3B"></path>
                    <path d="M20.587804,78.9250226 C20.587804,80.7087021 19.7504092,82.1541493 18.7170029,82.1541493 C17.6835965,82.1541493 16.8462017,80.7087021 16.8462017,78.9250226 C16.8462017,77.1413432 17.6835965,75.695896 18.7170029,75.695896 C19.7504092,75.695896 20.587804,77.1413432 20.587804,78.9250226" id="Fill-35" fill="#F6CEA7"></path>
                    <path d="M48.4678963,78.6644096 C48.4678963,80.4480891 47.6305014,81.8935363 46.5970951,81.8935363 C45.5636888,81.8935363 44.7262939,80.4480891 44.7262939,78.6644096 C44.7262939,76.8807301 45.5636888,75.4352829 46.5970951,75.4352829 C47.6305014,75.4352829 48.4678963,76.8807301 48.4678963,78.6644096" id="Fill-37" fill="#F6CEA7"></path>
                    <path d="M124.739578,89.0378664 C124.739578,101.089268 118.286183,110.859554 108.324362,110.859554 C98.7695493,110.859554 91.9091458,101.089268 91.9091458,89.0378664 C91.9091458,76.9864653 98.1881084,69.8511466 108.324362,69.8511466 C119.124178,69.8511466 124.739578,76.9864653 124.739578,89.0378664" id="Fill-39" fill="#AD6427"></path>
                    <mask id="mask-2" fill="white">
                        <use xlink:href="#path-1"></use>
                    </mask>
                    <g id="Clip-42"></g>
                    <polygon id="Fill-41" fill="#AD6427" mask="url(#mask-2)" points="91.9090259 111.714566 124.739458 111.714566 124.739458 89.0379866 91.9090259 89.0379866"></polygon>
                    <polygon id="Fill-43" fill="#F6CEA7" mask="url(#mask-2)" points="104.771938 305.815178 98.0937591 305.815178 91.7572519 188.508666 107.425586 188.508666"></polygon>
                    <path d="M90.2810513,305.815118 C88.4671954,305.815118 86.9962098,307.288801 86.9962098,309.107325 C86.9962098,310.925249 88.4671954,312.398932 90.2810513,312.398932 L104.751138,312.398932 L104.751138,305.815118 L90.2810513,305.815118 Z" id="Fill-44" fill="#775124" mask="url(#mask-2)"></path>
                    <polygon id="Fill-45" fill="#F6CEA7" mask="url(#mask-2)" points="111.577794 305.815178 118.255972 305.815178 124.59248 188.508666 108.924145 188.508666"></polygon>
                    <path d="M126.06862,305.815118 C127.882476,305.815118 129.353462,307.288801 129.353462,309.107325 C129.353462,310.925249 127.882476,312.398932 126.06862,312.398932 L111.598534,312.398932 L111.598534,305.815118 L126.06862,305.815118 Z" id="Fill-46" fill="#775124" mask="url(#mask-2)"></path>
                    <path d="M125.572118,139.722659 L129.561881,126.693208 C129.561881,118.513155 126.092417,111.820001 118.772855,111.820001 L107.974838,111.820001 L97.1768207,111.820001 C89.8578582,111.820001 86.3883942,118.513155 86.3883942,126.693208 L90.3781579,139.722659 L85.7554029,221.683602 L130.194873,221.683602 L125.572118,139.722659 Z" id="Fill-47" fill="#FEFEFE" mask="url(#mask-2)"></path>
                    <polygon id="Fill-48" fill="#F6CEA7" mask="url(#mask-2)" points="80.5515066 204.192669 86.1459274 204.192669 87.6690628 163.047888 91.195472 133.636101 84.3296738 132.241719 80.7738928 161.8055"></polygon>
                    <polygon id="Fill-49" fill="#FEFEFE" mask="url(#mask-2)" points="82.013381 136.645407 91.2097383 140.249412 98.9243205 121.894155 87.2373579 120.202994"></polygon>
                    <path d="M115.874043,111.819941 L114.032014,111.819941 L114.032014,104.95677 L101.918262,104.95677 L101.918262,111.819941 L100.076233,111.819941 L100.076233,113.90821 L100.091818,113.90821 C100.19312,116.309478 103.679968,118.239144 107.974838,118.239144 C112.270308,118.239144 115.756556,116.309478 115.858458,113.90821 L115.874043,113.90821 L115.874043,111.819941 Z" id="Fill-50" fill="#E9BC96" mask="url(#mask-2)"></path>
                    <path d="M86.6635896,208.84147 L86.146287,204.192729 L80.5512669,204.192729 L80.0339643,208.84147 C79.9818144,209.079374 79.9518432,209.325088 79.9518432,209.578612 C79.9518432,211.458414 81.4731804,212.982562 83.3487769,212.982562 C85.2249729,212.982562 86.7457107,211.458414 86.7457107,209.578612 C86.7457107,209.325088 86.7157395,209.079374 86.6635896,208.84147" id="Fill-51" fill="#F6CEA7" mask="url(#mask-2)"></path>
                    <path d="M122.188851,89.1536344 C122.188851,100.145882 116.738292,109.05707 108.324182,109.05707 C100.254142,109.05707 94.4595135,100.145882 94.4595135,89.1536344 C94.4595135,78.1613868 99.7632138,71.6532697 108.324182,71.6532697 C117.446211,71.6532697 122.188851,78.1613868 122.188851,89.1536344" id="Fill-52" fill="#F6CEA7" mask="url(#mask-2)"></path>
                    <path d="M123.77055,90.5400862 C123.77055,92.3237656 122.933155,93.7692129 121.899749,93.7692129 C120.866342,93.7692129 120.028948,92.3237656 120.028948,90.5400862 C120.028948,88.7564067 120.866342,87.3109595 121.899749,87.3109595 C122.933155,87.3109595 123.77055,88.7564067 123.77055,90.5400862" id="Fill-53" fill="#F6CEA7" mask="url(#mask-2)"></path>
                    <path d="M96.3305545,90.5400862 C96.3305545,92.3237656 95.4931597,93.7692129 94.4597533,93.7692129 C93.426347,93.7692129 92.5889522,92.3237656 92.5889522,90.5400862 C92.5889522,88.7564067 93.426347,87.3109595 94.4597533,87.3109595 C95.4931597,87.3109595 96.3305545,88.7564067 96.3305545,90.5400862" id="Fill-54" fill="#F6CEA7" mask="url(#mask-2)"></path>
                    <path d="M103.786725,87.9242833 C103.786725,88.3736576 103.423474,88.7377228 102.975105,88.7377228 C102.526737,88.7377228 102.163486,88.3736576 102.163486,87.9242833 C102.163486,87.474909 102.526737,87.1108438 102.975105,87.1108438 C103.423474,87.1108438 103.786725,87.474909 103.786725,87.9242833" id="Fill-55" fill="#3C3C3B" mask="url(#mask-2)"></path>
                    <path d="M114.146624,87.9242833 C114.146624,88.3736576 113.783373,88.7377228 113.335004,88.7377228 C112.886635,88.7377228 112.523384,88.3736576 112.523384,87.9242833 C112.523384,87.474909 112.886635,87.1108438 113.335004,87.1108438 C113.783373,87.1108438 114.146624,87.474909 114.146624,87.9242833" id="Fill-56" fill="#3C3C3B" mask="url(#mask-2)"></path>
                    <path d="M113.040148,98.5381073 C112.082868,99.3948021 110.254027,99.974543 108.154845,99.974543 C106.056263,99.974543 104.226822,99.3948021 103.269542,98.5381073" id="Fill-57" fill="#3C3C3B" mask="url(#mask-2)"></path>
                    <polygon id="Fill-58" fill="#AD6427" mask="url(#mask-2)" points="122.664673 81.95121 94.4599931 81.95121 95.9903216 77.54578 101.460062 72.2139662 108.562033 70.7120468 116.295797 72.664542 120.416835 77.54578"></polygon>
                    <path d="M123.522928,82.5895257 C124.085787,84.9162992 123.656599,87.0177848 122.56385,87.2833242 C121.471101,87.5488635 120.129591,85.8775276 119.566732,83.5507541 C119.003873,81.2239806 119.433061,79.122495 120.52581,78.8569557 C121.61796,78.5914163 122.960069,80.2627522 123.522928,82.5895257" id="Fill-59" fill="#AD6427" mask="url(#mask-2)"></path>
                    <path d="M93.2294363,82.5895257 C92.6665775,84.9162992 93.0957648,87.0177848 94.1885141,87.2833242 C95.2812634,87.5488635 96.6227735,85.8775276 97.1856323,83.5507541 C97.7484911,81.2239806 97.3193037,79.122495 96.2265545,78.8569557 C95.1344046,78.5914163 93.7922951,80.2627522 93.2294363,82.5895257" id="Fill-60" fill="#AD6427" mask="url(#mask-2)"></path>
                    <polygon id="Fill-61" fill="#F6CEA7" mask="url(#mask-2)" points="169.396039 118.924801 165.36012 114.981962 148.696742 136.267764 124.739578 118.197872 118.875417 123.73695 148.005007 146.701298 150.121572 147.139257 152.251924 146.275353"></polygon>
                    <path d="M172.869759,115.857941 L169.361333,118.942884 L165.228307,115.163454 L167.972468,111.379818 C168.093552,111.168949 168.236814,110.967091 168.40705,110.780252 C169.671834,109.391277 171.820168,109.29215 173.205436,110.55977 C174.591304,111.82679 174.690209,113.979941 173.426024,115.368916 C173.255788,115.556356 173.068168,115.717962 172.869759,115.857941" id="Fill-62" fill="#F6CEA7" mask="url(#mask-2)"></path>
                    <path d="M154.964795,106.990369 C155.556427,110.55172 162.005625,112.912137 164.47585,127.788949 C165.188565,132.079031 167.236196,132.3674 168.570513,132.145116 C169.90483,131.922231 174.945383,130.623371 174.630686,128.72915 C174.315988,126.834329 170.90287,123.826885 170.312438,120.273945 C169.722605,116.721004 168.569914,104.625146 168.569914,104.625146 C161.140657,102.889528 154.964795,106.990369 154.964795,106.990369" id="Fill-63" fill="#151B36" mask="url(#mask-2)"></path>
                    <path d="M205.357441,114.427934 L205.357441,114.427934 C203.826513,114.68326 202.378305,113.646335 202.12355,112.111974 L195.178029,70.286523 C194.922674,68.7515614 195.95728,67.3007073 197.488807,67.045381 C199.019735,66.7900547 200.467942,67.8269798 200.722697,69.3613407 L207.668219,111.186792 C207.922974,112.721153 206.888369,114.172607 205.357441,114.427934" id="Fill-64" fill="#31315B" mask="url(#mask-2)"></path>
                    <path d="M174.313231,104.176373 C167.32575,104.240054 155.842591,106.949517 155.842591,106.949517 C153.820735,107.287148 151.908574,105.917998 151.572297,103.891008 L149.861542,93.5890426 C149.542649,91.6707912 150.836205,89.8570733 152.750165,89.5374649 L171.366465,86.4320964 L174.313231,104.176373 Z" id="Fill-65" fill="#31315B" mask="url(#mask-2)"></path>
                    <path d="M202.228809,112.745484 L202.228809,112.745484 L195.07229,69.6524127 C195.07229,69.6524127 189.272267,80.9083973 171.366285,86.4324568 L174.313051,104.176132 C194.495046,104.043964 202.228809,112.745484 202.228809,112.745484" id="Fill-66" fill="#EBEBEC" mask="url(#mask-2)"></path>
                    <path d="M151.490956,103.401743 L151.490956,103.401743 C150.267532,103.606004 149.110045,102.776944 148.90684,101.550777 L148.087428,96.616071 C147.883624,95.3893033 148.710229,94.2298215 149.933653,94.0255605 L151.490956,103.401743 Z" id="Fill-67" fill="#EBEBEC" mask="url(#mask-2)"></path>
                    <path d="M203.516371,86.1850006 L203.516371,86.1850006 C204.739795,85.9807395 205.897282,86.809799 206.100486,88.035966 L206.919899,92.9706724 C207.123703,94.1974401 206.297097,95.3569219 205.073674,95.5611829 L203.516371,86.1850006 Z" id="Fill-68" fill="#FEFEFE" mask="url(#mask-2)"></path>
                    <path d="M164.1123,91.6606983 L151.96438,93.6870879 C151.510617,93.7627846 151.081429,93.4551916 151.005902,93.0004104 C150.930375,92.5456292 151.23728,92.1154795 151.691043,92.0397827 L163.838963,90.0133931 C164.292726,89.9370956 164.721914,90.2446887 164.797441,90.7000706 C164.872968,91.1548518 164.566063,91.5850015 164.1123,91.6606983" id="Fill-69" fill="#EBEBEC" mask="url(#mask-2)"></path>
                    <path d="M164.718197,95.309281 L152.570278,97.3356706 C152.116514,97.4113674 151.687327,97.1037743 151.611799,96.6489931 C151.536272,96.1942119 151.843177,95.7640622 152.296941,95.6883655 L164.44486,93.6619758 C164.898624,93.5856783 165.327811,93.8932714 165.403338,94.3486534 C165.478866,94.8034345 165.171961,95.2335843 164.718197,95.309281" id="Fill-70" fill="#EBEBEC" mask="url(#mask-2)"></path>
                    <path d="M165.324095,98.9578036 L153.176175,100.984193 C152.722412,101.05989 152.293224,100.752297 152.217697,100.297516 C152.142169,99.8427345 152.449074,99.4125848 152.902838,99.3368881 L165.050757,97.3104985 C165.504521,97.234201 165.933708,97.541794 166.009236,97.997176 C166.084763,98.4519572 165.777858,98.8821069 165.324095,98.9578036" id="Fill-71" fill="#EBEBEC" mask="url(#mask-2)"></path>
                    <path d="M165.930052,102.606386 L153.782133,104.632776 C153.328369,104.708473 152.899182,104.40088 152.823654,103.946098 C152.748127,103.491317 153.055032,103.061168 153.508795,102.985471 L165.656715,100.959081 C166.110478,100.882784 166.539666,101.190377 166.615193,101.645759 C166.69072,102.10054 166.383816,102.53069 165.930052,102.606386" id="Fill-72" fill="#EBEBEC" mask="url(#mask-2)"></path>
                    <polygon id="Fill-73" fill="#FEFEFE" mask="url(#mask-2)" points="137.557054 127.268624 130.907647 134.584773 115.874103 121.558927 125.241296 114.466864"></polygon>
                </g>
            </g>
        </g>
    </g>
</svg>