<?xml version="1.0" encoding="UTF-8" standalone="no"?>
<svg width="210px" height="315px" viewBox="0 0 210 315" version="1.1" xmlns="http://www.w3.org/2000/svg" xmlns:xlink="http://www.w3.org/1999/xlink">
    <!-- Generator: Sketch 3.8.3 (29802) - http://www.bohemiancoding.com/sketch -->
    <title>Artboard 6</title>
    <desc>Created with Sketch.</desc>
    <defs>
        <polygon id="path-1" points="40.1950219 44.0434053 40.1950219 0.400119904 0.216027586 0.400119904 0.216027586 44.0434053 40.1950219 44.0434053"></polygon>
    </defs>
    <g id="Page-1" stroke="none" stroke-width="1" fill="none" fill-rule="evenodd">
        <g id="Artboard-6">
            <g id="Page-1-Copy" transform="translate(10.000000, 33.000000)">
                <path d="M91.8559715,140.986211 L91.3392536,136.347122 L85.7505577,136.347122 L85.2338398,140.986211 C85.1817489,141.223621 85.1518116,141.468825 85.1518116,141.721823 C85.1518116,143.597722 86.6714292,145.118705 88.5449056,145.118705 C90.4189809,145.118705 91.9379997,143.597722 91.9379997,141.721823 C91.9379997,141.468825 91.9080624,141.223621 91.8559715,140.986211" id="Fill-1" fill="#F6CEA7"></path>
                <polygon id="Fill-3" fill="#21213B" points="132.379645 241.904017 125.564118 241.904017 114.20351 122.298501 139.370006 122.298501"></polygon>
                <polygon id="Fill-5" fill="#21213B" points="106.825821 238.547482 113.641348 238.547482 118.272649 118.941966 93.1061533 118.941966"></polygon>
                <path d="M98.1705273,240.255156 L112.364402,236.174221 L114.215126,242.626259 L100.020653,246.707794 C98.2411793,247.219185 96.3844677,246.189209 95.8737373,244.407434 C95.3630069,242.625659 96.3910539,240.766547 98.1705273,240.255156" id="Fill-7" fill="#775124"></path>
                <path d="M117.012647,243.183453 C115.202638,243.573741 114.051848,245.359712 114.44223,247.172062 C114.832014,248.983813 116.615679,250.136691 118.425089,249.745803 L132.861456,246.630695 L131.448415,240.068345 L117.012647,243.183453 Z" id="Fill-9" fill="#775124"></path>
                <polygon id="Fill-11" fill="#F6CEA7" points="85.8237843 138.802398 93.5080915 138.84976 92.9554489 96.7592326 101.457045 56.6555156 93.7733361 55.3767386 85.2328219 95.7100719"></polygon>
                <path d="M93.3451129,86.8993405 L93.1445329,59.5306355 C93.1445329,51.1463429 98.7661599,44.2860312 107.139624,44.2860312 L116.064533,44.2860312 L124.989442,44.2860312 C133.362906,44.2860312 138.983934,51.1463429 138.983934,59.5306355 L138.783953,86.8993405 L142.857223,141.8256 L90.4693354,139.427518 L93.3451129,86.8993405 Z" id="Fill-13" fill="#FEFEFE"></path>
                <polygon id="Fill-15" fill="#FEFEFE" points="83.293184 83.2049161 103.396682 90.5940048 103.396682 57.2288969 94.4669834 52.8739808"></polygon>
                <path d="M107.986071,44.286271 L109.702077,44.286271 L109.702077,37.2514988 L122.13025,37.2514988 L122.13025,44.286271 L124.193529,44.286271 L124.193529,46.4265588 L124.177363,46.4265588 C124.073181,48.8875899 120.496272,50.8660072 116.089501,50.8660072 C111.683328,50.8660072 108.106419,48.8875899 108.002237,46.4265588 L107.986071,46.4265588 L107.986071,44.286271 Z" id="Fill-17" fill="#E9BC96"></path>
                <path d="M101.692172,21.3559353 C101.692172,32.6227218 107.283862,41.7558153 115.915984,41.7558153 C124.195445,41.7558153 130.139796,32.6227218 130.139796,21.3559353 C130.139796,10.0891487 124.69899,3.41888489 115.915984,3.41888489 C106.558182,3.41888489 101.692172,10.0891487 101.692172,21.3559353" id="Fill-19" fill="#F6CEA7"></path>
                <path d="M117.516432,20.0958633 C117.516432,20.556295 117.889451,20.9297962 118.349288,20.9297962 C118.809125,20.9297962 119.182144,20.556295 119.182144,20.0958633 C119.182144,19.6354317 118.809125,19.2619305 118.349288,19.2619305 C117.889451,19.2619305 117.516432,19.6354317 117.516432,20.0958633" id="Fill-21" fill="#3C3C3B"></path>
                <path d="M106.888031,20.0958633 C106.888031,20.556295 107.26105,20.9297962 107.720887,20.9297962 C108.180724,20.9297962 108.553742,20.556295 108.553742,20.0958633 C108.553742,19.6354317 108.180724,19.2619305 107.720887,19.2619305 C107.26105,19.2619305 106.888031,19.6354317 106.888031,20.0958633" id="Fill-23" fill="#3C3C3B"></path>
                <path d="M108.023193,30.9744604 C109.005137,31.8527578 110.881607,32.446283 113.034698,32.446283 C115.188388,32.446283 117.064858,31.8527578 118.046802,30.9744604" id="Fill-25" fill="#3C3C3B"></path>
                <path d="M101.692232,22.5874101 L101.385674,22.5874101 C101.385674,22.5874101 100.955774,12.5724221 101.385674,10.0682254 C101.893411,7.11318945 105.649345,0.879976019 112.021201,0.92793765 C112.021201,0.92793765 123.258467,1.86978417 127.355088,0.30383693 C127.355088,0.30383693 126.533009,2.27745803 126.162984,2.3763789 C125.792361,2.47470024 125.930671,2.40035971 125.930671,2.40035971 C125.930671,2.40035971 129.037564,2.13417266 129.951251,1.18992806 C129.951251,1.18992806 129.384238,3.76846523 129.73211,4.73009592 C129.73211,4.73009592 136.41232,22.5874101 127.480226,33.4752998 C127.480226,33.4752998 129.327357,23.3326139 126.08395,23.3326139 C126.08395,23.3326139 125.51095,17.277458 125.335517,16.0046763 C125.024169,13.7396882 123.900922,10.9177458 118.046981,10.4926859 C118.046981,10.4926859 109.129856,9.9705036 107.721006,10.217506 C107.721006,10.217506 102.283793,9.84340528 101.692232,22.5874101" id="Fill-27" fill="#3C3C3B"></path>
                <path d="M128.583535,24.1521583 C128.583535,25.9321343 127.747087,27.3745803 126.714849,27.3745803 C125.68261,27.3745803 124.846162,25.9321343 124.846162,24.1521583 C124.846162,22.3721823 125.68261,20.9297362 126.714849,20.9297362 C127.747087,20.9297362 128.583535,22.3721823 128.583535,24.1521583" id="Fill-29" fill="#F6CEA7"></path>
                <path d="M34.3474881,20.1527578 C34.7444567,25.3116307 33.6900649,29.5994005 31.9932185,29.7300959 C30.2957734,29.8607914 28.6414379,25.8146283 28.2444693,20.6557554 C27.8475006,15.497482 28.8587828,11.1803357 30.5562279,11.0490408 C32.2530743,10.9183453 33.9505194,14.9938849 34.3474881,20.1527578" id="Fill-31" fill="#935F36"></path>
                <path d="M52.1273129,20.1527578 C51.7303442,25.3116307 52.7847361,29.5994005 54.4815824,29.7300959 C56.1790276,29.8607914 57.833363,25.8146283 58.2303317,20.6557554 C58.6273003,15.497482 57.6160182,11.1803357 55.918573,11.0490408 C54.2217266,10.9183453 52.5242815,14.9938849 52.1273129,20.1527578" id="Fill-33" fill="#935F36"></path>
                <path d="M57.0488859,19.6517386 C57.0488859,30.6211631 51.6044878,39.5138489 43.199889,39.5138489 C35.1389705,39.5138489 29.3508922,30.6211631 29.3508922,19.6517386 C29.3508922,8.68231415 34.6485975,2.18770983 43.199889,2.18770983 C52.3116069,2.18770983 57.0488859,8.68231415 57.0488859,19.6517386" id="Fill-35" fill="#F6CEA7"></path>
                <path d="M58.9176922,21.0353118 C58.9176922,22.8152878 58.0812439,24.2577338 57.0490056,24.2577338 C56.0167674,24.2577338 55.1803191,22.8152878 55.1803191,21.0353118 C55.1803191,19.2553357 56.0167674,17.8128897 57.0490056,17.8128897 C58.0812439,17.8128897 58.9176922,19.2553357 58.9176922,21.0353118" id="Fill-37" fill="#F6CEA7"></path>
                <path d="M31.2198781,21.0353118 C31.2198781,22.8152878 30.3834298,24.2577338 29.3511915,24.2577338 C28.3189533,24.2577338 27.482505,22.8152878 27.482505,21.0353118 C27.482505,19.2553357 28.3189533,17.8128897 29.3511915,17.8128897 C30.3834298,17.8128897 31.2198781,19.2553357 31.2198781,21.0353118" id="Fill-39" fill="#F6CEA7"></path>
                <path d="M38.5955915,18.42494 C38.5955915,18.8733813 38.2327514,19.2366906 37.7848893,19.2366906 C37.3370273,19.2366906 36.9741871,18.8733813 36.9741871,18.42494 C36.9741871,17.9764988 37.3370273,17.6131894 37.7848893,17.6131894 C38.2327514,17.6131894 38.5955915,17.9764988 38.5955915,18.42494" id="Fill-41" fill="#3C3C3B"></path>
                <path d="M48.9437799,18.42494 C48.9437799,18.8733813 48.5809398,19.2366906 48.1330777,19.2366906 C47.6852157,19.2366906 47.3223755,18.8733813 47.3223755,18.42494 C47.3223755,17.9764988 47.6852157,17.6131894 48.1330777,17.6131894 C48.5809398,17.6131894 48.9437799,17.9764988 48.9437799,18.42494" id="Fill-43" fill="#3C3C3B"></path>
                <path d="M47.8385545,29.0167266 C46.8823571,29.8716427 45.0555828,30.4501799 42.958774,30.4501799 C40.8625639,30.4501799 39.0351909,29.8716427 38.0789934,29.0167266" id="Fill-45" fill="#3C3C3B"></path>
                <path d="M57.6931367,13.5535971 C57.6931367,13.4594724 57.029726,8.182494 55.968748,5.96127098 C55.8980959,5.81378897 55.8322339,5.66390887 55.7579893,5.51882494 C55.7412245,5.50743405 55.6861398,5.39952038 55.6753624,5.35755396 C55.2646226,4.57517986 54.7981994,3.8263789 54.2784878,3.11894484 C53.5120928,2.4618705 52.5193718,2.06258993 51.4314502,2.06258993 C51.2518263,2.06258993 51.0763937,2.07697842 50.9027574,2.09796163 C50.1004376,1.04580336 48.8382809,0.364148681 47.4144627,0.364148681 C46.7432683,0.364148681 46.109795,0.51942446 45.5409862,0.789208633 C44.8889517,0.295803357 44.0800458,0.000239808153 43.199889,0.000239808153 C42.3197323,0.000239808153 41.5108263,0.295803357 40.8587918,0.789208633 C40.2899831,0.51942446 39.6565097,0.364148681 38.9853154,0.364148681 C37.5614972,0.364148681 36.2999392,1.04580336 35.4976194,2.09796163 C35.3239831,2.07697842 35.1479517,2.06258993 34.9689266,2.06258993 C33.8804063,2.06258993 32.8876853,2.4618705 32.121889,3.11894484 C31.6021774,3.8263789 31.1357542,4.57517986 30.7244157,5.35755396 C30.7136382,5.39952038 30.6591524,5.50743405 30.6423875,5.51882494 C30.5681429,5.66390887 30.5016821,5.81378897 30.4310301,5.96127098 C29.3706508,8.182494 28.7066414,13.4594724 28.7066414,13.5535971 C28.7066414,17.579976 29.4580677,19.490048 31.7255191,22.4588729 L32.3242652,14.8 C32.3242652,14.3509592 32.3925223,13.917506 32.5170614,13.5092326 C33.0679078,11.711271 34.7384094,10.4031175 36.7148702,10.4031175 C36.9106602,10.4031175 41.3635348,11.3053957 43.199889,11.3053957 C45.036842,11.3053957 49.4891179,10.4031175 49.6849078,10.4031175 C51.6613687,10.4031175 53.3318702,11.711271 53.8827166,13.5092326 C54.0078545,13.917506 54.0755129,14.3509592 54.0755129,14.8 L54.6742589,22.4588729 C56.9423091,19.490048 57.6931367,17.579976 57.6931367,13.5535971" id="Fill-47" fill="#935F36"></path>
                <polygon id="Fill-49" fill="#16152D" points="38.4491981 238.026259 31.778568 238.026259 20.6592545 120.963309 45.2910696 120.963309"></polygon>
                <polygon id="Fill-51" fill="#16152D" points="47.5831295 238.026259 54.2537596 238.026259 65.373073 120.963309 40.741258 120.963309"></polygon>
                <path d="M62.0171013,238.026199 L47.5633708,238.026199 L47.5633708,244.596343 L62.0171013,244.596343 C63.8289069,244.596343 65.2982298,243.125719 65.2982298,241.311571 C65.2982298,239.496823 63.8289069,238.026199 62.0171013,238.026199" id="Fill-53" fill="#775124"></path>
                <path d="M23.9747511,238.026199 C22.1629455,238.026199 20.6936226,239.496823 20.6936226,241.311571 C20.6936226,243.125719 22.1629455,244.596343 23.9747511,244.596343 L38.4284815,244.596343 L38.4284815,238.026199 L23.9747511,238.026199 Z" id="Fill-55" fill="#775124"></path>
                <path d="M65.3203834,85.9235612 L65.5155746,59.2760791 C65.5155746,51.1130096 60.0424367,44.433753 51.88991,44.433753 L43.1997094,44.433753 L34.5101075,44.433753 C26.3575809,44.433753 20.8844429,51.1130096 20.8844429,59.2760791 L21.0796342,85.9235612 L18.9097784,136.482914 L43.1997094,136.482914 L67.4902392,136.482914 L65.3203834,85.9235612 Z" id="Fill-57" fill="#EAEAEB"></path>
                <path d="M49.0810724,44.4338129 L49.0810724,37.5848921 L36.9804141,37.5848921 L36.9804141,44.4338129 C36.9804141,44.4338129 37.7599815,48.2209832 41.3249157,48.8534772 L43.0307433,52.0003597 L44.7365708,48.8534772 C48.5002887,48.3486811 49.0810724,44.4338129 49.0810724,44.4338129" id="Fill-59" fill="#E9BC96"></path>
                <polygon id="Fill-61" fill="#FEFEFE" points="49.2467455 43.0059952 50.226294 44.4322542 49.6760464 52.0005995 44.7363912 48.8531175"></polygon>
                <polygon id="Fill-63" fill="#C6C6C6" points="43.030863 52.0005396 44.7366906 48.8530576 46.591606 50.0149281"></polygon>
                <polygon id="Fill-65" fill="#FEFEFE" points="36.8149207 43.0059952 35.8353721 44.4322542 36.3856197 52.0005995 41.3252749 48.8531175"></polygon>
                <polygon id="Fill-67" fill="#C6C6C6" points="43.030863 52.0005396 41.3250354 48.8530576 39.4701201 50.0149281"></polygon>
                <polygon id="Fill-69" fill="#72C5CE" points="18.3615066 136.504376 18.3615066 136.483393 14.9175191 136.483393"></polygon>
                <path d="M18.6986006,55.2450839 L26.1014972,56.4770983 L17.8238326,95.5232614 L18.3615066,141.778657 L34.2863561,141.778657 L34.2863561,44.4339329 C25.0962025,44.4339329 20.1828922,49.02506 18.6986006,55.2450839" id="Fill-71" fill="#EF4538"></path>
                <polygon id="Fill-73" fill="#72C5CE" points="14.4576223 136.483153 14.9174592 136.483153 14.4576223 136.480156"></polygon>
                <path d="M26.1013176,56.4770983 L18.698421,55.2450839 C18.3924618,56.5286571 18.2284053,57.879976 18.2284053,59.276259 L18.4235966,85.923741 L18.361327,136.483094 L17.823653,95.5232614 L26.1013176,56.4770983 Z" id="Fill-75" fill="#EF4538"></path>
                <polygon id="Fill-77" fill="#EF4538" points="68.0570721 136.504376 68.0570721 136.483393 71.5010596 136.483393"></polygon>
                <path d="M67.7199781,55.2450839 L60.3170815,56.4770983 L68.5947461,95.5232614 L68.0570721,141.778657 L52.1322226,141.778657 L52.1322226,44.4339329 C61.3223762,44.4339329 66.2356865,49.02506 67.7199781,55.2450839" id="Fill-79" fill="#EF4538"></path>
                <polygon id="Fill-81" fill="#EF4538" points="71.9608966 136.483153 71.5010596 136.483153 71.9608966 136.480156"></polygon>
                <path d="M60.3172013,56.4770983 L67.7200978,55.2450839 C68.0260571,56.5286571 68.1901135,57.879976 68.1901135,59.276259 L67.9949223,85.923741 L68.0571918,136.483094 L68.5948658,95.5232614 L60.3172013,56.4770983 Z" id="Fill-83" fill="#EF4538"></path>
                <polygon id="Fill-85" fill="#F6CEA7" points="176.61309 91.4366906 175.638331 85.8845324 149.734181 93.3815348 138.195745 57.1992806 132.860917 65.8035971 143.096482 101.426499 144.556823 103.018225 146.786554 103.563789"></polygon>
                <path d="M181.214932,90.9836331 L176.57465,91.4308753 L175.425656,85.9548561 L179.853384,84.4944245 C180.074321,84.3949041 180.308431,84.3151679 180.555114,84.2630096 C182.389073,83.877518 184.188305,85.0531775 184.573299,86.8895084 C184.958293,88.7258393 183.784152,90.5267986 181.950192,90.9128897 C181.703509,90.9644484 181.457424,90.9860312 181.214932,90.9836331" id="Fill-87" fill="#F6CEA7"></path>
                <polygon id="Fill-89" fill="#EBEBEC" points="44.0141837 139.639568 15.7174439 123.379976 38.6356476 83.3907674 66.9329862 99.6503597"></polygon>
                <polygon id="Fill-91" fill="#B1B1B1" points="58.5449129 105.350779 37.9528376 93.5180456 39.6616589 90.5366307 60.2537342 102.369365"></polygon>
                <polygon id="Fill-93" fill="#B1B1B1" points="52.2711915 108.072242 38.9790285 100.434353 39.6268718 99.3030576 52.9196335 106.940947"></polygon>
                <polygon id="Fill-95" fill="#B1B1B1" points="54.2848345 112.790767 37.4433047 103.113309 38.0917467 101.982614 54.9332765 111.659472"></polygon>
                <polygon id="Fill-97" fill="#B1B1B1" points="50.7434909 114.317386 35.9077605 105.792806 36.5562025 104.661511 51.3919329 113.186091"></polygon>
                <polygon id="Fill-99" fill="#B1B1B1" points="46.2909755 115.320444 34.3723361 108.472122 35.0207781 107.340827 46.9394176 114.189149"></polygon>
                <polygon id="Fill-101" fill="#B1B1B1" points="48.3043191 120.038789 32.8369116 111.150899 33.4853536 110.020204 48.9527611 118.907494"></polygon>
                <polygon id="Fill-103" fill="#B1B1B1" points="45.4211771 121.943645 31.301547 113.830336 31.9493903 112.699041 46.0696191 120.81235"></polygon>
                <polygon id="Fill-105" fill="#B1B1B1" points="46.0227373 125.850779 29.7655837 116.509652 30.4140257 115.378357 46.6711793 124.719484"></polygon>
                <polygon id="Fill-107" fill="#B1B1B1" points="36.6337401 99.0809353 37.758784 99.7272182 38.404831 98.6007194 37.2791884 97.9544365"></polygon>
                <polygon id="Fill-109" fill="#B1B1B1" points="35.0969386 101.76235 36.2219824 102.408633 36.8680295 101.282134 35.7423868 100.635851"></polygon>
                <polygon id="Fill-111" fill="#B1B1B1" points="33.5614542 104.441547 34.6864981 105.08783 35.3325451 103.961331 34.2069025 103.315048"></polygon>
                <polygon id="Fill-113" fill="#B1B1B1" points="32.0259699 107.120683 33.1510138 107.766966 33.7970608 106.640468 32.6714182 105.994185"></polygon>
                <polygon id="Fill-115" fill="#B1B1B1" points="30.4904257 109.79988 31.6154696 110.446163 32.2615166 109.319664 31.135874 108.673381"></polygon>
                <polygon id="Fill-117" fill="#B1B1B1" points="28.9549414 112.479077 30.0799853 113.12536 30.7260323 111.998861 29.6003897 111.352578"></polygon>
                <polygon id="Fill-119" fill="#B1B1B1" points="27.4194571 115.158273 28.5445009 115.804556 29.190548 114.678058 28.0649053 114.031775"></polygon>
                <polygon id="Fill-121" fill="#EF4538" points="21.8016022 109.657854 26.6819815 106.847902 10.8122166 85.0193645 32.3904266 50.6956235 22.4931539 48.6068945 0.996373354 81.5139688 5.98746082e-05 83.431235 0.247940752 85.7160072"></polygon>
                <path d="M23.795726,113.835192 L21.7941179,109.619365 L26.5433718,106.671523 L29.4239392,110.341787 C29.5933843,110.515647 29.7472621,110.708693 29.8807824,110.923321 C30.8681147,112.518046 30.3771429,114.61217 28.7844784,115.600779 C27.1918138,116.589388 25.1003937,116.098381 24.1130614,114.503657 C23.9801398,114.288429 23.875958,114.064209 23.795726,113.835192" id="Fill-123" fill="#F6CEA7"></path>
                <polygon id="Fill-125" fill="#FEFEFE" points="148.835642 83.2049161 128.732144 90.5940048 128.732144 57.2288969 137.661843 52.8739808"></polygon>
                <g id="Group-129" transform="translate(150.285266, 56.176859)">
                    <mask id="mask-2" fill="white">
                        <use xlink:href="#path-1"></use>
                    </mask>
                    <g id="Clip-128"></g>
                    <path d="M7.60635047,25.1788969 L25.405874,32.1327338 L12.4681687,12.7016787 L7.60635047,25.1788969 Z M40.1955009,44.0434053 L0.216027586,28.4252998 L11.1359586,0.400119904 L40.1955009,44.0434053 Z" id="Fill-127" fill="#3D3E75" mask="url(#mask-2)"></path>
                </g>
                <polygon id="Fill-130" fill="#6D6D99" points="153.751408 82.1559353 151.757583 81.3771583 151.870147 81.0881894 153.863972 81.8669664"></polygon>
                <polygon id="Fill-132" fill="#6D6D99" points="155.406701 77.9077338 153.412876 77.1289568 153.525441 76.839988 155.519265 77.618765"></polygon>
                <polygon id="Fill-134" fill="#6D6D99" points="157.062054 73.6595923 155.06823 72.8808153 155.180794 72.5918465 157.174618 73.3706235"></polygon>
                <polygon id="Fill-136" fill="#6D6D99" points="158.717348 69.4114508 156.723523 68.6326739 156.836087 68.343705 158.829912 69.122482"></polygon>
                <polygon id="Fill-138" fill="#6D6D99" points="160.372701 65.1632494 158.378876 64.3844724 158.491441 64.0955036 160.485265 64.8742806"></polygon>
                <polygon id="Fill-140" fill="#6D6D99" points="174.359589 93.9226019 174.071592 93.8098921 174.849363 91.8134892 175.13736 91.926199"></polygon>
                <polygon id="Fill-142" fill="#6D6D99" points="170.116755 92.265048 169.828758 92.1523381 170.606529 90.1559353 170.894526 90.2686451"></polygon>
                <polygon id="Fill-144" fill="#6D6D99" points="165.874219 90.6076739 165.586223 90.494964 166.363994 88.4985612 166.651991 88.611271"></polygon>
                <polygon id="Fill-146" fill="#6D6D99" points="161.631385 88.9501799 161.343388 88.83747 162.121159 86.8410671 162.409156 86.953777"></polygon>
                <polygon id="Fill-148" fill="#6D6D99" points="157.38885 87.2927458 157.100853 87.180036 157.878624 85.1836331 158.166621 85.2963429"></polygon>
                <polygon id="Fill-150" fill="#EF4538" points="50.743431 103.065108 48.0071614 98.1388489 72.8419514 87.6202638 59.0378605 52.2425659 67.1005752 53.244964 83.0583558 89.6814149 82.9254342 91.8384892 81.536942 93.6688249"></polygon>
                <path d="M46.8845125,105.616067 L50.7697759,103.036331 L48.2167226,98.0591127 L43.8590486,99.7179856 C43.6243401,99.7797362 43.3932241,99.8654676 43.1686944,99.9811751 C41.5017853,100.83789 40.8443621,102.885851 41.700569,104.554916 C42.5567759,106.223981 44.6014937,106.882254 46.2684028,106.02494 C46.4929326,105.909233 46.6977038,105.770743 46.8845125,105.616067" id="Fill-152" fill="#F6CEA7"></path>
                <polygon id="Fill-154" fill="#16152D" points="58.5365903 90.8220024 60.8273928 94.1595324 38.6061295 109.4497 36.315327 106.11277"></polygon>
                <polygon id="Fill-156" fill="#F7DFBD" points="36.1454627 109.643705 38.6057103 109.45006 36.3083216 106.102338 35.2455473 108.332554"></polygon>
                <polygon id="Fill-158" fill="#16152D" points="34.5617793 109.768405 36.1454627 109.643705 35.2455473 108.332554"></polygon>
                <path d="M58.5365903,90.8220024 C59.456863,90.1889089 60.716026,90.4221223 61.3483019,91.3441847 C61.9811765,92.2656475 61.7476655,93.5258393 60.8273928,94.1595324 C59.9065213,94.7926259 58.6479571,94.5588129 58.0150824,93.6373501 C57.3828066,92.7158873 57.6163176,91.4550959 58.5365903,90.8220024" id="Fill-160" fill="#16152D"></path>
            </g>
        </g>
    </g>
</svg>