<?xml version="1.0" encoding="UTF-8" standalone="no"?>
<svg width="210px" height="315px" viewBox="0 0 210 315" version="1.1" xmlns="http://www.w3.org/2000/svg" xmlns:xlink="http://www.w3.org/1999/xlink">
    <!-- Generator: Sketch 3.8.3 (29802) - http://www.bohemiancoding.com/sketch -->
    <title>Artboard 6</title>
    <desc>Created with Sketch.</desc>
    <defs>
        <polygon id="path-1" points="0 283.464354 181.728197 283.464354 181.728197 0 0 0"></polygon>
    </defs>
    <g id="Page-1" stroke="none" stroke-width="1" fill="none" fill-rule="evenodd">
        <g id="Artboard-6">
            <g id="Page-1-Copy" transform="translate(14.000000, 15.000000)">
                <path d="M54.3993809,173.955572 L54.9160454,169.319302 L60.5041638,169.319302 L61.0208283,173.955572 C61.0729138,174.192838 61.102848,174.437893 61.102848,174.690737 C61.102848,176.565496 59.5833875,178.085555 57.7101046,178.085555 C55.836223,178.085555 54.3173612,176.565496 54.3173612,174.690737 C54.3173612,174.437893 54.3472954,174.192838 54.3993809,173.955572 L54.3993809,173.955572 Z" id="Fill-1" fill="#F6CEA7"></path>
                <mask id="mask-2" fill="white">
                    <use xlink:href="#path-1"></use>
                </mask>
                <g id="Clip-4"></g>
                <polygon id="Fill-3" fill="#935F36" mask="url(#mask-2)" points="14.8713158 80.8782869 47.66125 80.8782869 47.66125 52.3440759 14.8713158 52.3440759"></polygon>
                <path d="M45.3445217,52.4244827 C45.7612059,52.3945249 46.1671138,52.4250819 46.559252,52.4987781 L46.559252,50.6222211 L47.617127,50.6222211 C47.6650217,51.8151409 48.1601336,52.9026093 48.9354296,53.7066768 L48.9354296,53.7132675 C49.7640086,54.4987612 50.3171928,55.580238 50.405798,56.8097063 C50.451298,57.4460101 50.3674822,58.0607443 50.1794954,58.6311409 C49.893923,59.3015966 49.7747849,60.0451494 49.8304625,60.8216557 C49.9029033,61.8270397 50.2764822,62.7353603 50.8661862,63.4627359 C51.4792388,64.1979004 51.8785612,65.1223983 51.952798,66.1505502 C52.0198507,67.0810397 51.8091138,67.9653941 51.3978178,68.7305165 C50.9661664,69.5076219 50.7536336,70.413546 50.8224822,71.3668034 C50.8757651,72.1091578 51.1020678,72.7957907 51.4516993,73.3991409 C51.4648704,73.4189131 51.4768441,73.4392844 51.4894164,73.4596557 C51.5181533,73.5051916 51.5426993,73.5531241 51.5696401,73.5992591 C51.9192717,74.2026093 52.1455743,74.8898414 52.1988572,75.6321958 C52.2593243,76.4752084 52.0928901,77.2804743 51.7558309,77.99347 C51.4247586,78.7016726 51.2511401,79.4979511 51.3116072,80.3331747 C51.3738704,81.2007527 51.6696204,81.9940354 52.1276138,82.6632928 L52.123423,82.6632928 C52.1665283,82.7232084 52.2150217,82.7783308 52.2551336,82.840643 C52.2671072,82.8610143 52.2778836,82.8813857 52.2898572,82.9011578 C52.3179954,82.947892 52.3437388,82.9952253 52.3730743,83.0407612 C52.7227059,83.6441114 52.9490086,84.3307443 53.0022914,85.0730987 C53.1902783,87.6830228 51.2283901,89.9508287 48.6205217,90.1383646 C46.013252,90.3264996 43.7472322,88.363065 43.5598441,85.7531409 C43.3748507,83.185757 45.2726796,80.9533013 47.8176862,80.7034532 L47.8170875,80.6974616 C45.2098178,80.8849975 42.943798,78.9215629 42.7558112,76.312238 C42.568423,73.7023139 44.5303112,71.434508 47.1375809,71.2469722 C47.1794888,71.2439764 47.220798,71.246373 47.2621072,71.2439764 L47.2603112,71.2224068 C44.786548,71.2397823 42.6899559,69.3356641 42.509752,66.8305924 C42.3343375,64.3932253 44.0346007,62.2548371 46.3844362,61.8300354 C46.265298,61.8480101 46.1461599,61.8659848 46.0240283,61.8749722 C43.4167586,62.062508 41.1507388,60.0990734 40.962752,57.4897485 C40.7753638,54.8798245 42.737252,52.6120186 45.3445217,52.4244827" id="Fill-5" fill="#935F36" mask="url(#mask-2)"></path>
                <path d="M17.1457171,52.4244827 C16.7290329,52.3945249 16.323125,52.4250819 15.9309868,52.4987781 L15.9309868,50.6222211 L14.9114276,50.6222211 C14.8635329,51.8151409 14.3301053,52.9026093 13.5548092,53.7066768 L13.5548092,53.7132675 C12.7262303,54.4987612 12.1730461,55.580238 12.0844408,56.8097063 C12.0389408,57.4460101 12.1227566,58.0607443 12.3107434,58.6311409 C12.5963158,59.3015966 12.7154539,60.0451494 12.6597763,60.8216557 C12.5873355,61.8270397 12.2137566,62.7353603 11.6240526,63.4627359 C11.011,64.1979004 10.6116776,65.1223983 10.5374408,66.1505502 C10.4703882,67.0810397 10.681125,67.9653941 11.0924211,68.7305165 C11.5240724,69.5076219 11.7366053,70.413546 11.6677566,71.3668034 C11.6144737,72.1091578 11.3881711,72.7957907 11.0385395,73.3991409 C11.0253684,73.4189131 11.0133947,73.4392844 11.0008224,73.4596557 C10.9720855,73.5051916 10.9475395,73.5531241 10.9205987,73.5992591 C10.5709671,74.2026093 10.3446645,74.8898414 10.2913816,75.6321958 C10.2309145,76.4752084 10.3973487,77.2804743 10.7344079,77.99347 C11.0654803,78.7016726 11.2390987,79.4979511 11.1786316,80.3331747 C11.1163684,81.2007527 10.8206184,81.9940354 10.362625,82.6632928 L10.3668158,82.6632928 C10.3237105,82.7232084 10.2752171,82.7783308 10.2351053,82.840643 C10.2231316,82.8610143 10.2123553,82.8813857 10.2003816,82.9011578 C10.1722434,82.947892 10.1465,82.9952253 10.1171645,83.0407612 C9.76753289,83.6441114 9.54123026,84.3307443 9.48794737,85.0730987 C9.29996053,87.6830228 11.2618487,89.9508287 13.8697171,90.1383646 C16.4769868,90.3264996 18.7430066,88.363065 18.9303947,85.7531409 C19.1153882,83.185757 17.2175592,80.9533013 14.6725526,80.7034532 L14.6731513,80.6974616 C17.2804211,80.8849975 19.5464408,78.9215629 19.7344276,76.312238 C19.9218158,73.7023139 17.9599276,71.434508 15.3526579,71.2469722 C15.31075,71.2439764 15.2694408,71.246373 15.2281316,71.2439764 L15.2299276,71.2224068 C17.7036908,71.2397823 19.8002829,69.3356641 19.9804868,66.8305924 C20.1559013,64.3932253 18.4556382,62.2548371 16.1058026,61.8300354 C16.2249408,61.8480101 16.3440789,61.8659848 16.4662105,61.8749722 C19.0734803,62.062508 21.3395,60.0990734 21.5274868,57.4897485 C21.714875,54.8798245 19.7529868,52.6120186 17.1457171,52.4244827" id="Fill-6" fill="#935F36" mask="url(#mask-2)"></path>
                <path d="M14.8714954,52.3442557 C14.8714954,64.3633274 21.3169296,74.1074034 31.2664625,74.1074034 C40.8094888,74.1074034 47.6614296,64.3633274 47.6614296,52.3442557 C47.6614296,40.325184 41.3902125,33.2090068 31.2664625,33.2090068 C20.4799691,33.2090068 14.8714954,40.325184 14.8714954,52.3442557" id="Fill-7" fill="#935F36" mask="url(#mask-2)"></path>
                <polygon id="Fill-8" fill="#21213B" mask="url(#mask-2)" points="15.3758868 275.509778 22.2266303 275.509778 33.6453342 155.350217 11.34315 155.350217"></polygon>
                <polygon id="Fill-9" fill="#21213B" mask="url(#mask-2)" points="41.0609961 272.137668 34.2102526 272.137668 29.5554829 151.978106 51.8576671 151.978106"></polygon>
                <path d="M49.7607757,273.853291 L35.4941309,269.753266 L33.6340191,276.235536 L47.9006638,280.335561 C49.6895322,280.849637 51.5556309,279.814895 52.069302,278.025215 C52.582973,276.234937 51.5496441,274.367367 49.7607757,273.853291" id="Fill-10" fill="#1B1B1B" mask="url(#mask-2)"></path>
                <path d="M30.8218796,276.795148 C32.6412809,277.187595 33.7979388,278.981468 33.4058007,280.802304 C33.0136625,282.62254 31.221202,283.78011 29.4018007,283.388262 L14.8920901,280.25827 L16.3115704,273.665156 L30.8218796,276.795148 Z" id="Fill-11" fill="#1B1B1B" mask="url(#mask-2)"></path>
                <polygon id="Fill-12" fill="#F6CEA7" mask="url(#mask-2)" points="60.5038645 169.319302 54.9163447 169.319302 52.5671079 132.30883 48.7014039 100.113775 56.2280618 98.5871249 60.1254961 130.949344"></polygon>
                <polygon id="Fill-13" fill="#FEFEFE" mask="url(#mask-2)" points="60.8317638 103.407516 50.7505204 107.352359 42.2935072 87.2602582 55.1053493 85.4088658"></polygon>
                <path d="M10.3197592,105.436738 C9.76118684,89.3589823 6.60911447,76.7107966 6.60911447,76.7107966 C6.60911447,76.7107966 12.5109434,75.6850414 20.5345092,75.6850414 L32.3716934,75.6850414 L44.2088776,75.6850414 C52.2324434,75.6850414 56.0358842,83.0115224 56.0358842,91.9659105 L51.6624961,106.228822 L56.7297592,173.155159 L8.01362763,174.986181 L10.3197592,105.436738 Z" id="Fill-14" fill="#FEFEFE" mask="url(#mask-2)"></path>
                <path d="M39.1743026,76.2351266 L37.4584737,76.2351266 L37.4584737,69.2046287 L25.0315855,69.2046287 L25.0315855,76.2351266 L22.9685197,76.2351266 L22.9685197,78.3741139 L22.9846842,78.3741139 C23.0888553,80.8336498 26.6653947,82.810865 31.0717105,82.810865 C35.4774276,82.810865 39.0539671,80.8336498 39.1581382,78.3741139 L39.1743026,78.3741139 L39.1743026,76.2351266 Z" id="Fill-15" fill="#E9BC96" mask="url(#mask-2)"></path>
                <path d="M45.4674914,53.0686354 C45.4674914,64.3285764 39.8763796,73.4561207 31.2451493,73.4561207 C22.9665441,73.4561207 17.0228072,64.3285764 17.0228072,53.0686354 C17.0228072,41.8092937 22.4630507,35.1424835 31.2451493,35.1424835 C40.6019849,35.1424835 45.4674914,41.8092937 45.4674914,53.0686354" id="Fill-16" fill="#F6CEA7" mask="url(#mask-2)"></path>
                <path d="M29.6449263,51.809389 C29.6449263,52.2695409 29.2719461,52.6428152 28.8121566,52.6428152 C28.3523671,52.6428152 27.9793868,52.2695409 27.9793868,51.809389 C27.9793868,51.3492371 28.3523671,50.9759629 28.8121566,50.9759629 C29.2719461,50.9759629 29.6449263,51.3492371 29.6449263,51.809389" id="Fill-17" fill="#3C3C3B" mask="url(#mask-2)"></path>
                <path d="M40.2722296,51.809389 C40.2722296,52.2695409 39.8992493,52.6428152 39.4394599,52.6428152 C38.9796704,52.6428152 38.6066901,52.2695409 38.6066901,51.809389 C38.6066901,51.3492371 38.9796704,50.9759629 39.4394599,50.9759629 C39.8992493,50.9759629 40.2722296,51.3492371 40.2722296,51.809389" id="Fill-18" fill="#3C3C3B" mask="url(#mask-2)"></path>
                <path d="M39.1371842,62.6813165 C38.1553421,63.5590802 36.2790658,64.1522447 34.1261974,64.1522447 C31.9727303,64.1522447 30.0964539,63.5590802 29.1146118,62.6813165" id="Fill-19" fill="#3C3C3B" mask="url(#mask-2)"></path>
                <path d="M18.5789072,55.8631595 C18.5789072,57.642054 19.4152691,59.0836236 20.4474007,59.0836236 C21.4795322,59.0836236 22.3158941,57.642054 22.3158941,55.8631595 C22.3158941,54.084265 21.4795322,52.6426954 20.4474007,52.6426954 C19.4152691,52.6426954 18.5789072,54.084265 18.5789072,55.8631595" id="Fill-20" fill="#F6CEA7" mask="url(#mask-2)"></path>
                <path d="M46.5591322,50.6220414 C46.5591322,50.6220414 32.435573,46.4537122 27.3599283,41.3746658 C27.3599283,41.3746658 20.1218362,53.6579654 16.2303888,54.2996616 L16.9057046,47.3236869 L18.8514283,39.6844464 L23.790573,35.4903536 L31.2663428,33.9924633 L39.7305401,36.2392987 L45.1139086,42.6053325 L46.2412309,48.8215772" id="Fill-21" fill="#935F36" mask="url(#mask-2)"></path>
                <path d="M13.8548099,54.4581983 L15.5712375,53.6930759 C15.8633954,53.6121899 16.1723164,53.4713882 16.4938099,53.2820549 L16.5159612,53.2718692 L16.5159612,53.2688734 C17.9599875,52.4084852 19.6518691,50.5570928 21.2276059,48.5349409 C21.3269875,48.692519 21.4287638,48.8494979 21.5461059,48.9938945 C22.1597572,49.7284599 22.560277,50.6523586 22.6357112,51.6805105 C22.7039612,52.611 22.4944217,53.4959536 22.0837243,54.2610759 C21.6526717,55.0387806 21.4419349,55.9447046 21.5113822,56.897962 C21.5658625,57.6403165 21.7927638,58.3269494 22.1429941,58.9297004 C22.1561651,58.9494726 22.1681388,58.9698439 22.1807112,58.9902152 C22.209448,59.0351519 22.2339941,59.0830844 22.2609349,59.1298186 C22.6117638,59.7325696 22.8386651,60.4192025 22.8925467,61.161557 C22.9542112,62.0045696 22.7889743,62.8104346 22.4525138,63.5234304 C22.1220401,64.2322321 21.9496191,65.0285105 22.0106849,65.8637342 C22.0741454,66.7307131 22.3704941,67.5239958 22.8296849,68.192654 L22.8254941,68.1932532 C22.8685993,68.2525696 22.9170928,68.3082911 22.9572046,68.3700042 C22.9691783,68.3903755 22.9805533,68.4107468 22.992527,68.4311181 C23.0200664,68.4772532 23.0464086,68.5251857 23.0757441,68.5701224 C23.4259743,69.1728734 23.6528757,69.8595063 23.7073559,70.6018608 C23.8977375,73.2111857 21.9388428,75.4813882 19.331573,75.6719198 C16.7237046,75.8630506 14.4558888,73.9026118 14.2649086,71.2926878 C14.0775204,68.7253038 15.9729546,66.4910506 18.5173625,66.2382068 L18.5167638,66.231616 C15.9094941,66.4227468 13.6410796,64.4617089 13.450698,61.852384 C13.2597178,59.2430591 15.2192112,56.9728565 17.8264809,56.7823249 C17.8683888,56.7793291 17.9090993,56.7811266 17.9510072,56.7793291 L17.9492112,56.7577595 C16.2303888,56.7715401 14.6947638,55.8566287 13.8548099,54.4581983" id="Fill-22" fill="#935F36" mask="url(#mask-2)"></path>
                <path d="M16.4939296,53.2818152 C16.5011138,53.2776211 16.508298,53.273427 16.5154822,53.2692329 L16.5154822,53.2722287 L16.4939296,53.2818152 Z" id="Fill-23" fill="#935F36" mask="url(#mask-2)"></path>
                <polygon id="Fill-24" fill="#935F36" mask="url(#mask-2)" points="16.2303289 57.8149705 18.5789671 57.8149705 18.5789671 55.8629198 16.2303289 55.8629198"></polygon>
                <polygon id="Fill-25" fill="#F6CEA7" mask="url(#mask-2)" points="0.655379605 10.2726515 6.24289934 10.2139342 9.27224145 47.1944489 14.0898533 74.8449046 6.51170855 82.594989 1.72822171 48.6336219"></polygon>
                <polygon id="Fill-26" fill="#FEFEFE" mask="url(#mask-2)" points="3.44901974 76.2565165 14.0900329 69.0001367 19.7577763 77.6303814 10.3195197 105.436618"></polygon>
                <path d="M0.0897427632,5.64207342 L0.655499342,10.2729511 L6.24242039,10.2136346 L6.71059145,5.57257131 C6.76028224,5.33470633 6.78722303,5.08905232 6.78482829,4.83680759 C6.76507171,2.96144895 5.23004539,1.45756709 3.3567625,1.47733924 C1.48347961,1.49711139 -0.0198164474,3.03274852 -5.98684211e-05,4.90810717 C0.00293355263,5.16095105 0.0352625,5.40540675 0.0897427632,5.64207342" id="Fill-27" fill="#F6CEA7" mask="url(#mask-2)"></path>
                <path d="M181.728138,26.7589114 C181.728138,41.537097 167.400427,53.5178228 149.72667,53.5178228 C132.052914,53.5178228 117.725203,41.537097 117.725203,26.7589114 C117.725203,11.9807257 132.052914,0 149.72667,0 C167.400427,0 181.728138,11.9807257 181.728138,26.7589114" id="Fill-28" fill="#D6EDEC" mask="url(#mask-2)"></path>
                <polyline id="Fill-29" fill="#D6EDEC" mask="url(#mask-2)" points="127.920197 44.1119105 118.540611 54.6474717 140.293203 49.9285181"></polyline>
                <path d="M133.485086,179.839645 L132.968422,175.203375 L127.380303,175.203375 L126.863639,179.839645 C126.811553,180.076911 126.781619,180.321965 126.781619,180.574809 C126.781619,182.449569 128.30108,183.969628 130.174362,183.969628 C132.048244,183.969628 133.567106,182.449569 133.567106,180.574809 C133.567106,180.321965 133.537172,180.076911 133.485086,179.839645" id="Fill-30" fill="#F6CEA7" mask="url(#mask-2)"></path>
                <path d="M79.7814961,179.839645 L79.2648316,175.203375 L73.6767132,175.203375 L73.1600487,179.839645 C73.1079632,180.076911 73.0780289,180.321965 73.0780289,180.574809 C73.0780289,182.449569 74.5974895,183.969628 76.4707724,183.969628 C78.3446539,183.969628 79.8635158,182.449569 79.8635158,180.574809 C79.8635158,180.321965 79.8335816,180.076911 79.7814961,179.839645" id="Fill-31" fill="#F6CEA7" mask="url(#mask-2)"></path>
                <polygon id="Fill-32" fill="#16152D" mask="url(#mask-2)" points="98.763677 276.731517 92.0937362 276.731517 80.9755717 159.739695 105.604841 159.739695"></polygon>
                <polygon id="Fill-33" fill="#16152D" mask="url(#mask-2)" points="112.824973 276.731517 106.155032 276.731517 101.622394 159.739695 126.251664 159.739695"></polygon>
                <polygon id="Fill-34" fill="#F6CEA7" mask="url(#mask-2)" points="132.954353 175.225304 125.473793 175.271439 126.011412 134.314924 117.734603 95.2924852 125.215162 94.048038 133.529688 133.294561"></polygon>
                <polygon id="Fill-35" fill="#F6CEA7" mask="url(#mask-2)" points="73.6534842 175.225304 81.1340434 175.271439 80.596425 134.314924 88.8732342 95.2924852 81.392675 94.048038 73.0781487 133.294561"></polygon>
                <path d="M120.60691,276.731517 L106.154673,276.731517 L106.154673,283.297669 L120.60691,283.297669 C122.418528,283.297669 123.887699,281.827939 123.887699,280.014893 C123.887699,278.201247 122.418528,276.731517 120.60691,276.731517" id="Fill-36" fill="#775124" mask="url(#mask-2)"></path>
                <path d="M84.2906658,276.731517 C82.4790474,276.731517 81.0098763,278.201247 81.0098763,280.014893 C81.0098763,281.827939 82.4790474,283.297669 84.2906658,283.297669 L98.7429026,283.297669 L98.7429026,276.731517 L84.2906658,276.731517 Z" id="Fill-37" fill="#775124" mask="url(#mask-2)"></path>
                <polygon id="Fill-38" fill="#72C5CE" mask="url(#mask-2)" points="71.6098757 121.126359 91.1814612 128.316233 91.1814612 95.8503595 82.4879678 91.6125283"></polygon>
                <path d="M125.632026,124.721236 L125.827197,98.0899451 C125.827197,89.9318354 120.354624,83.2566371 112.20294,83.2566371 L103.513638,83.2566371 L94.8249336,83.2566371 C86.6732493,83.2566371 81.200677,89.9318354 81.200677,98.0899451 L81.395848,124.721236 L77.4301638,175.250468 L103.513638,175.250468 L129.59771,175.250468 L125.632026,124.721236 Z" id="Fill-39" fill="#72C5CE" mask="url(#mask-2)"></path>
                <polygon id="Fill-40" fill="#72C5CE" mask="url(#mask-2)" points="135.417938 121.126359 115.846353 128.316233 115.846353 95.8503595 124.539846 91.6125283"></polygon>
                <path d="M111.234089,83.256697 L109.563761,83.256697 L109.563761,76.4119376 L97.4643526,76.4119376 L97.4643526,83.256697 L95.4557671,83.256697 L95.4557671,85.3393637 L95.4713329,85.3393637 C95.5725105,87.7341907 99.0550566,89.6586802 103.344629,89.6586802 C107.6348,89.6586802 111.116747,87.7341907 111.218524,85.3393637 L111.234089,85.3393637 L111.234089,83.256697 Z" id="Fill-41" fill="#E9BC96" mask="url(#mask-2)"></path>
                <path d="M117.167649,58.2084962 C117.167649,69.1712557 111.723813,78.0585384 103.320083,78.0585384 C95.2599974,78.0585384 89.4725171,69.1712557 89.4725171,58.2084962 C89.4725171,47.2457367 94.769675,40.7550785 103.320083,40.7550785 C112.430859,40.7550785 117.167649,47.2457367 117.167649,58.2084962" id="Fill-42" fill="#F6CEA7" mask="url(#mask-2)"></path>
                <path d="M98.9573513,56.9823831 C98.9573513,57.4305519 98.5945487,57.7936405 98.1467329,57.7936405 C97.6989171,57.7936405 97.3361145,57.4305519 97.3361145,56.9823831 C97.3361145,56.5342143 97.6989171,56.1711257 98.1467329,56.1711257 C98.5945487,56.1711257 98.9573513,56.5342143 98.9573513,56.9823831" id="Fill-43" fill="#3C3C3B" mask="url(#mask-2)"></path>
                <path d="M109.30447,56.9823831 C109.30447,57.4305519 108.941668,57.7936405 108.493852,57.7936405 C108.046036,57.7936405 107.683234,57.4305519 107.683234,56.9823831 C107.683234,56.5342143 108.046036,56.1711257 108.493852,56.1711257 C108.941668,56.1711257 109.30447,56.5342143 109.30447,56.9823831" id="Fill-44" fill="#3C3C3B" mask="url(#mask-2)"></path>
                <path d="M108.199359,67.5677941 C107.243261,68.4221907 105.416675,69.0003764 103.320083,69.0003764 C101.224089,69.0003764 99.3969053,68.4221907 98.4408066,67.5677941" id="Fill-45" fill="#3C3C3B" mask="url(#mask-2)"></path>
                <path d="M118.916465,59.5912287 C118.916465,61.3701232 118.080103,62.8116928 117.047972,62.8116928 C116.01584,62.8116928 115.179478,61.3701232 115.179478,59.5912287 C115.179478,57.8123342 116.01584,56.3707646 117.047972,56.3707646 C118.080103,56.3707646 118.916465,57.8123342 118.916465,59.5912287" id="Fill-46" fill="#F6CEA7" mask="url(#mask-2)"></path>
                <path d="M91.5103783,59.5912287 C91.5103783,61.3701232 90.6740164,62.8116928 89.6418849,62.8116928 C88.6097533,62.8116928 87.7733914,61.3701232 87.7733914,59.5912287 C87.7733914,57.8123342 88.6097533,56.3707646 89.6418849,56.3707646 C90.6740164,56.3707646 91.5103783,57.8123342 91.5103783,59.5912287" id="Fill-47" fill="#F6CEA7" mask="url(#mask-2)"></path>
                <path d="M115.393388,65.0279114 C114.806678,67.3849916 113.843993,68.4023586 112.858559,69.2489662 C111.666579,70.2717257 110.036362,70.8079705 108.598921,70.8079705 C106.663375,70.8079705 105.384586,69.2645443 104.478776,69.0877932 C104.183625,69.0296751 104.462612,69.0194895 103.850757,69.0194895 C103.237704,69.0194895 102.711461,68.971557 102.413316,69.0296751 C101.512895,69.2064262 99.9323684,70.8079705 97.9980197,70.8079705 C96.5563882,70.8079705 94.9303618,70.2717257 93.7359868,69.2489662 C92.7487566,68.4023586 91.4376382,67.4455063 91.2035526,65.0279114 C91.1275197,64.2418186 91.3214934,62.6732278 89.0997763,62.6732278 L89.0997763,65.8541477 C89.0997763,71.4574557 95.8553289,80.9834388 103.850757,80.9834388 C111.841993,80.9834388 117.725263,71.2723165 117.725263,65.6690084 L117.725263,63.6558439 C116.195625,63.6558439 115.393388,65.0279114 115.393388,65.0279114" id="Fill-48" fill="#AD6427" mask="url(#mask-2)"></path>
            </g>
        </g>
    </g>
</svg>