<?xml version="1.0" encoding="UTF-8" standalone="no"?>
<svg width="210px" height="315px" viewBox="0 0 210 315" version="1.1" xmlns="http://www.w3.org/2000/svg" xmlns:xlink="http://www.w3.org/1999/xlink">
    <!-- Generator: Sketch 3.8.3 (29802) - http://www.bohemiancoding.com/sketch -->
    <title>Artboard 6</title>
    <desc>Created with Sketch.</desc>
    <defs>
        <polygon id="path-1" points="0.080315428 10.2 18.7554516 10.2 18.7554516 0.387 0.080315428 0.387"></polygon>
        <polygon id="path-3" points="0 251.4 168.736577 251.4 168.736577 0.0054 0 0.0054"></polygon>
    </defs>
    <g id="Page-1" stroke="none" stroke-width="1" fill="none" fill-rule="evenodd">
        <g id="Artboard-6">
            <g id="Page-1-Copy" transform="translate(21.000000, 32.000000)">
                <polygon id="Fill-1" fill="#422918" points="111.625402 47.4318 144.565367 47.4318 144.565367 20.9568 111.625402 20.9568"></polygon>
                <g id="Group-176" transform="translate(0.000000, 0.594600)">
                    <path d="M105.967751,141.73698 L105.448723,137.09418 L99.8350359,137.09418 L99.3160075,141.73698 C99.2636836,141.97458 99.2336125,142.21998 99.2336125,142.47318 C99.2336125,144.35058 100.760025,145.87278 102.641879,145.87278 C104.524335,145.87278 106.050146,144.35058 106.050146,142.47318 C106.050146,142.21998 106.020075,141.97458 105.967751,141.73698 L105.967751,141.73698 Z" id="Fill-2" fill="#F6CEA7"></path>
                    <polygon id="Fill-4" fill="#21213B" points="145.169737 243.43422 138.287648 243.43422 126.816698 123.10542 149.220926 123.10542"></polygon>
                    <polygon id="Fill-6" fill="#21213B" points="119.367106 240.05736 126.249195 240.05736 130.925262 119.72856 108.521035 119.72856"></polygon>
                    <path d="M110.62758,241.7754 L124.959502,237.6696 L126.828125,244.161 L112.496203,248.2668 C110.69915,248.7816 108.824513,247.7454 108.308491,245.9532 C107.79247,244.1604 108.830527,242.2902 110.62758,241.7754" id="Fill-8" fill="#1B1B1B"></path>
                    <g id="Group-12" transform="translate(126.900356, 241.200000)">
                        <mask id="mask-2" fill="white">
                            <use xlink:href="#path-1"></use>
                        </mask>
                        <g id="Clip-11"></g>
                        <path d="M2.75277544,3.5214 C0.925049466,3.9144 -0.236900712,5.7108 0.157031673,7.5342 C0.550964057,9.357 2.35162598,10.5162 4.17935196,10.1238 L18.7554516,6.9894 L17.3294765,0.387 L2.75277544,3.5214 Z" id="Fill-10" fill="#1B1B1B" mask="url(#mask-2)"></path>
                    </g>
                    <polygon id="Fill-13" fill="#F6CEA7" points="99.8353367 137.09418 105.448422 137.09418 107.808408 100.03158 111.691799 67.79118 104.130703 66.26238 100.215436 98.67018"></polygon>
                    <polygon id="Fill-15" fill="#FEFEFE" points="99.505937 71.08956 109.633307 75.03996 118.129015 54.91956 105.258553 53.06556"></polygon>
                    <path d="M147.475053,74.46282 L152.179388,50.76282 C152.179388,50.76282 148.047609,43.87602 139.987932,43.87602 L128.095986,43.87602 L116.204641,43.87602 C108.144964,43.87602 104.32352,51.21282 104.32352,60.18042 L108.71752,74.46282 L103.62647,141.48342 L152.565502,143.31702 L147.475053,74.46282 Z" id="Fill-17" fill="#FEFEFE"></path>
                    <path d="M144.565066,20.36232 C144.565066,32.39832 138.090141,42.15612 128.095084,42.15612 C118.508393,42.15612 111.625101,32.39832 111.625101,20.36232 C111.625101,8.32632 117.925012,1.20012 128.095084,1.20012 C138.930931,1.20012 144.565066,8.32632 144.565066,20.36232" id="Fill-19" fill="#422918"></path>
                    <path d="M119.95626,43.88706 L121.67994,43.88706 L121.67994,36.84666 L134.163687,36.84666 L134.163687,43.88706 L136.236193,43.88706 L136.236193,46.02906 L136.219954,46.02906 C136.115306,48.49206 132.522402,50.47206 128.095926,50.47206 C123.67005,50.47206 120.077146,48.49206 119.972499,46.02906 L119.95626,46.02906 L119.95626,43.88706 Z" id="Fill-21" fill="#E9BC96"></path>
                    <path d="M113.634277,20.68794 C113.634277,31.96314 119.250971,41.10414 127.921693,41.10414 C136.238177,41.10414 142.20911,31.96314 142.20911,20.68794 C142.20911,9.41214 136.743974,2.73654 127.921693,2.73654 C118.522046,2.73654 113.634277,9.41214 113.634277,20.68794" id="Fill-23" fill="#F6CEA7"></path>
                    <path d="M129.529238,19.42686 C129.529238,19.88766 129.903925,20.26146 130.365818,20.26146 C130.827711,20.26146 131.202398,19.88766 131.202398,19.42686 C131.202398,18.96606 130.827711,18.59226 130.365818,18.59226 C129.903925,18.59226 129.529238,18.96606 129.529238,19.42686" id="Fill-25" fill="#3C3C3B"></path>
                    <path d="M118.85337,19.42686 C118.85337,19.88766 119.228057,20.26146 119.68995,20.26146 C120.151843,20.26146 120.52653,19.88766 120.52653,19.42686 C120.52653,18.96606 120.151843,18.59226 119.68995,18.59226 C119.228057,18.59226 118.85337,18.96606 118.85337,19.42686" id="Fill-27" fill="#3C3C3B"></path>
                    <path d="M119.993609,30.31416 C120.979943,31.19316 122.864804,31.78716 125.027523,31.78716 C127.190843,31.78716 129.075705,31.19316 130.062039,30.31416" id="Fill-29" fill="#3C3C3B"></path>
                    <path d="M140.64589,23.4864 C140.64589,25.2678 139.805701,26.7114 138.768847,26.7114 C137.731993,26.7114 136.891804,25.2678 136.891804,23.4864 C136.891804,21.705 137.731993,20.2614 138.768847,20.2614 C139.805701,20.2614 140.64589,21.705 140.64589,23.4864" id="Fill-31" fill="#F6CEA7"></path>
                    <path d="M136.236193,20.36232 C136.236193,20.36232 124.41341,13.21572 118.853249,10.59672 C118.853249,10.59672 114.640278,14.56572 112.786089,20.26152 L113.361652,15.57132 L115.316278,7.92132 L120.278022,3.72132 L127.921513,1.76592 L136.290922,4.47132 L141.698922,10.84632 L142.831402,17.07132" id="Fill-33" fill="#422918"></path>
                    <mask id="mask-4" fill="white">
                        <use xlink:href="#path-3"></use>
                    </mask>
                    <g id="Clip-36"></g>
                    <polygon id="Fill-35" fill="#422918" mask="url(#mask-4)" points="135.389448 45.6936 144.567171 45.6936 144.567171 23.2674 135.389448 23.2674"></polygon>
                    <polygon id="Fill-37" fill="#422918" mask="url(#mask-4)" points="135.389448 23.2674 142.765907 23.2674 142.765907 15.405 135.389448 15.405"></polygon>
                    <path d="M63.3330206,39.04056 L64.949647,37.79616 L66.6997893,38.98116 L68.0445722,37.83396 C68.0445722,37.83396 69.1710384,33.99756 69.5812093,31.94196 C77.3383694,-6.89244 48.0442342,0.58296 48.0442342,0.58296 C48.0442342,0.58296 31.5363623,-1.30224 34.8484014,31.83696 C35.0438641,33.78576 35.0041701,33.71316 35.5857466,37.60056 L37.1356149,36.13476 L38.6121096,37.76736 L39.7193302,36.66216 L41.2878427,38.29656 L42.9417573,36.99636 L44.8464655,38.64636 L60.111195,39.04056 L61.4499637,37.78056 L63.3330206,39.04056 Z" id="Fill-38" fill="#1E1814" mask="url(#mask-4)"></path>
                    <path d="M66.3377925,19.53948 C66.3377925,30.51768 60.8690488,39.41748 52.4268673,39.41748 C44.3299028,39.41748 38.515942,30.51768 38.515942,19.53948 C38.515942,8.56128 43.837337,2.06148 52.4268673,2.06148 C61.5793299,2.06148 66.3377925,8.56128 66.3377925,19.53948" id="Fill-39" fill="#F6CEA7" mask="url(#mask-4)"></path>
                    <path d="M68.0946107,20.92416 C68.0946107,22.70556 67.2544221,24.14916 66.217568,24.14916 C65.1807139,24.14916 64.3405253,22.70556 64.3405253,20.92416 C64.3405253,19.14276 65.1807139,17.69916 66.217568,17.69916 C67.2544221,17.69916 68.0946107,19.14276 68.0946107,20.92416" id="Fill-40" fill="#F6CEA7" mask="url(#mask-4)"></path>
                    <path d="M40.5631274,20.92416 C40.5631274,22.70556 39.7229388,24.14916 38.6860847,24.14916 C37.6492306,24.14916 36.809042,22.70556 36.809042,20.92416 C36.809042,19.14276 37.6492306,17.69916 38.6860847,17.69916 C39.7229388,17.69916 40.5631274,19.14276 40.5631274,20.92416" id="Fill-41" fill="#F6CEA7" mask="url(#mask-4)"></path>
                    <path d="M48.0441139,18.31164 C48.0441139,18.76044 47.6796512,19.12404 47.2297865,19.12404 C46.7799217,19.12404 46.4154591,18.76044 46.4154591,18.31164 C46.4154591,17.86284 46.7799217,17.49924 47.2297865,17.49924 C47.6796512,17.49924 48.0441139,17.86284 48.0441139,18.31164" id="Fill-42" fill="#3C3C3B" mask="url(#mask-4)"></path>
                    <path d="M58.4385762,18.31164 C58.4385762,18.76044 58.0741135,19.12404 57.6242488,19.12404 C57.174384,19.12404 56.8099214,18.76044 56.8099214,18.31164 C56.8099214,17.86284 57.174384,17.49924 57.6242488,17.49924 C58.0741135,17.49924 58.4385762,17.86284 58.4385762,18.31164" id="Fill-43" fill="#3C3C3B" mask="url(#mask-4)"></path>
                    <path d="M57.3284085,28.91196 C56.3679352,29.76756 54.5329922,30.34656 52.4268071,30.34656 C50.3212235,30.34656 48.485679,29.76756 47.5252057,28.91196" id="Fill-44" fill="#3C3C3B" mask="url(#mask-4)"></path>
                    <path d="M37.6492907,17.83638 C37.6492907,17.83638 53.485974,14.08278 58.5842409,8.99598 C58.5842409,8.99598 63.2987996,17.69898 66.2908815,17.69898 L66.8538139,14.39598 L64.8991875,6.74598 L59.9374438,2.54598 L52.4268673,1.04598 L43.9245434,3.29598 L38.515942,9.67098 L37.384063,15.89598" id="Fill-45" fill="#1E1814" mask="url(#mask-4)"></path>
                    <polygon id="Fill-46" fill="#F89E1B" mask="url(#mask-4)" points="58.6417972 45.294 64.9495267 45.294 64.9495267 42.5214 58.6417972 42.5214"></polygon>
                    <polygon id="Fill-47" fill="#F89E1B" mask="url(#mask-4)" points="40.1985445 45.294 46.506274 45.294 46.506274 42.5214 40.1985445 42.5214"></polygon>
                    <polygon id="Fill-48" fill="#3C3C3B" mask="url(#mask-4)" points="47.8248349 239.04138 41.1243758 239.04138 29.9553402 121.88478 54.6973011 121.88478"></polygon>
                    <polygon id="Fill-49" fill="#3C3C3B" mask="url(#mask-4)" points="61.9504683 239.04138 55.2500093 239.04138 50.696632 121.88478 75.4385929 121.88478"></polygon>
                    <path d="M74.6462776,86.817 L74.8423416,60.1482 C74.8423416,51.9786 69.3447295,45.294 61.1557473,45.294 L52.4266868,45.294 L43.6982278,45.294 C35.5092456,45.294 30.0116335,51.9786 30.0116335,60.1482 L30.2076975,86.817 L28.6295623,137.4174 L52.4266868,137.4174 L76.2244128,137.4174 L74.6462776,86.817 Z" id="Fill-50" fill="#FCB21C" mask="url(#mask-4)"></path>
                    <polygon id="Fill-51" fill="#FCB21C" mask="url(#mask-4)" points="82.1719498 137.3922 74.6571633 137.4384 73.9943947 96.4242 66.8825619 57.3468 74.3973484 56.1006 82.7499178 95.4024"></polygon>
                    <polygon id="Fill-52" fill="#FCB21C" mask="url(#mask-4)" points="22.5997505 137.3922 30.114537 137.4384 30.7773057 96.4242 37.8891384 57.3468 30.374352 56.1006 22.0217826 95.4024"></polygon>
                    <path d="M69.7680114,239.04138 L55.2496484,239.04138 L55.2496484,245.61678 L69.7680114,245.61678 C71.5879189,245.61678 73.0638121,244.14498 73.0638121,242.32938 C73.0638121,240.51318 71.5879189,239.04138 69.7680114,239.04138" id="Fill-53" fill="#775124" mask="url(#mask-4)"></path>
                    <path d="M33.2856025,239.04138 C31.465695,239.04138 29.9898018,240.51318 29.9898018,242.32938 C29.9898018,244.14498 31.465695,245.61678 33.2856025,245.61678 L47.8039655,245.61678 L47.8039655,239.04138 L33.2856025,239.04138 Z" id="Fill-54" fill="#775124" mask="url(#mask-4)"></path>
                    <path d="M33.1547327,130.91838 L35.2735477,119.08578 C38.6162594,119.08578 41.3256722,115.74198 41.3256722,111.61698 L52.7009961,111.61698 L52.3641989,111.61698 L63.7395228,111.61698 C63.7395228,115.74198 66.4489356,119.08578 69.7916473,119.08578 L71.9104623,130.91838" id="Fill-55" fill="#F89E1B" mask="url(#mask-4)"></path>
                    <path d="M67.7833139,45.29334 C67.7833139,46.83114 66.5335559,48.07734 64.9927089,48.07734 C63.4512605,48.07734 62.2015025,46.83114 62.2015025,45.29334 C62.2015025,43.75554 63.4512605,42.50934 64.9927089,42.50934 C66.5335559,42.50934 67.7833139,43.75554 67.7833139,45.29334" id="Fill-56" fill="#F89E1B" mask="url(#mask-4)"></path>
                    <path d="M42.6524125,45.29334 C42.6524125,46.83114 41.4026544,48.07734 39.8618075,48.07734 C38.3203591,48.07734 37.0706011,46.83114 37.0706011,45.29334 C37.0706011,43.75554 38.3203591,42.50934 39.8618075,42.50934 C41.4026544,42.50934 42.6524125,43.75554 42.6524125,45.29334" id="Fill-57" fill="#F89E1B" mask="url(#mask-4)"></path>
                    <polygon id="Fill-58" fill="#F89E1B" mask="url(#mask-4)" points="52.4270477 45.29334 52.4270477 45.29334 52.4270477 52.70334"></polygon>
                    <path d="M67.7833139,45.29334 L61.5405381,45.29334 L52.4391964,60.61254 C60.9150577,60.60594 67.7833139,53.74974 67.7833139,45.29334" id="Fill-59" fill="#F89E1B" mask="url(#mask-4)"></path>
                    <path d="M37.0706612,45.29334 C37.0706612,53.74974 43.9395189,60.60594 52.4141772,60.61254 L43.313437,45.29334 L37.0706612,45.29334 Z" id="Fill-60" fill="#F89E1B" mask="url(#mask-4)"></path>
                    <path d="M52.4144178,60.61284 L52.4270477,60.63384 L52.4270477,60.63384 L52.4270477,60.63384 L52.4396776,60.61284 C52.4354676,60.61284 52.4312577,60.61344 52.4270477,60.61344 C52.4228377,60.61344 52.4186278,60.61284 52.4144178,60.61284" id="Fill-61" fill="#F89E1B" mask="url(#mask-4)"></path>
                    <path d="M60.3523057,45.29412 L58.6743342,45.29412 L58.6743342,38.43972 L46.5195655,38.43972 L46.5195655,45.29412 L44.5017897,45.29412 L44.5017897,47.37972 L44.5174267,47.37972 C44.6190673,49.77792 50.8227505,60.61272 52.426747,60.61272 C54.0181135,60.61272 60.2344267,49.77792 60.3366687,47.37972 L60.3523057,47.37972 L60.3523057,45.29412 Z" id="Fill-62" fill="#E9BC96" mask="url(#mask-4)"></path>
                    <polygon id="Fill-63" fill="#F89E1B" mask="url(#mask-4)" points="60.3522456 48.4668 62.938968 48.4668 62.938968 44.7168 60.3522456 44.7168"></polygon>
                    <polygon id="Fill-64" fill="#F89E1B" mask="url(#mask-4)" points="41.9150071 48.4668 44.5017295 48.4668 44.5017295 44.7168 41.9150071 44.7168"></polygon>
                    <polygon id="Fill-65" fill="#72C5CE" mask="url(#mask-4)" points="137.495273 105.10194 132.944902 108.41574 111.300874 78.83694 115.851244 75.52314"></polygon>
                    <path d="M137.495273,105.10194 C138.412443,106.35534 138.137593,108.11334 136.881219,109.02894 C135.624244,109.94394 133.862073,109.66974 132.944902,108.41574 C132.027732,107.16234 132.302582,105.40434 133.558956,104.48934 C134.815931,103.57374 136.578102,103.84854 137.495273,105.10194" id="Fill-66" fill="#72C5CE" mask="url(#mask-4)"></path>
                    <polygon id="Fill-67" fill="#72C5CE" mask="url(#mask-4)" points="116.384827 78.21774 113.710898 80.16534 109.206236 74.00994 111.880767 72.06234"></polygon>
                    <path d="M114.562454,47.3439 C120.564059,55.5459 118.7646,67.0485 110.543742,73.0359 C102.322283,79.0233 90.7917918,77.2287 84.7901868,69.0267 C78.7885819,60.8247 80.5880409,49.3221 88.8095,43.3347 C97.0309591,37.3467 108.560849,39.1419 114.562454,47.3439" id="Fill-68" fill="#D6EDEC" mask="url(#mask-4)"></path>
                    <path d="M89.7853698,44.66826 C82.3144872,50.10906 80.6738039,60.59946 86.1275121,68.05266 C91.5812203,75.50586 102.096509,77.14326 109.567391,71.70246 C117.038274,66.26106 118.678957,55.77126 113.225249,48.31806 C107.771541,40.86486 97.2562523,39.22746 89.7853698,44.66826 M111.519612,74.37006 C102.574039,80.88486 89.9838395,78.92466 83.4535833,70.00026 C76.923327,61.07586 78.8881776,48.51546 87.8331491,42.00066 C96.7787221,35.48586 109.368921,37.44606 115.899178,46.37046 C122.429434,55.29486 120.464583,67.85526 111.519612,74.37006" id="Fill-69" fill="#72C5CE" mask="url(#mask-4)"></path>
                    <path d="M92.7253082,54.89406 C93.9113153,56.51466 93.555874,58.78806 91.9314292,59.97066 C90.3063829,61.15386 88.0281907,60.79926 86.8421836,59.17866 C85.6561765,57.55806 86.0116178,55.28466 87.6366641,54.10206 C89.2611089,52.91886 91.5393011,53.27346 92.7253082,54.89406" id="Fill-70" fill="#FEFEFE" mask="url(#mask-4)"></path>
                    <path d="M92.4558705,49.74252 C92.9742975,50.45112 92.8191302,51.44472 92.1088491,51.96192 C91.398568,52.47912 90.4026107,52.32432 89.8841836,51.61572 C89.3657566,50.90712 89.5209238,49.91352 90.231205,49.39632 C90.9414861,48.87912 91.9374434,49.03392 92.4558705,49.74252" id="Fill-71" fill="#FEFEFE" mask="url(#mask-4)"></path>
                    <polygon id="Fill-72" fill="#F7E7DB" mask="url(#mask-4)" points="50.8954626 135.5538 98.7368968 135.5538 98.7368968 57.9858 50.8954626 57.9858"></polygon>
                    <polygon id="Fill-73" fill="#E5D0C4" mask="url(#mask-4)" points="3.05402847 135.5538 50.8954626 135.5538 50.8954626 57.9858 3.05402847 57.9858"></polygon>
                    <polygon id="Fill-74" fill="#BAACA4" mask="url(#mask-4)" points="54.9502598 75.6036 95.4934199 75.6036 95.4934199 72.336 54.9502598 72.336"></polygon>
                    <polygon id="Fill-75" fill="#BAACA4" mask="url(#mask-4)" points="54.9502598 80.1774 95.4934199 80.1774 95.4934199 76.9098 54.9502598 76.9098"></polygon>
                    <polygon id="Fill-76" fill="#BAACA4" mask="url(#mask-4)" points="54.9502598 84.7512 76.8715445 84.7512 76.8715445 81.4836 54.9502598 81.4836"></polygon>
                    <polygon id="Fill-77" fill="#BAACA4" mask="url(#mask-4)" points="54.9496584 108.2058 68.7902171 108.2058 68.7902171 107.2224 54.9496584 107.2224"></polygon>
                    <polygon id="Fill-78" fill="#BAACA4" mask="url(#mask-4)" points="54.9496584 119.6298 68.7902171 119.6298 68.7902171 118.6464 54.9496584 118.6464"></polygon>
                    <polygon id="Fill-79" fill="#BAACA4" mask="url(#mask-4)" points="54.9496584 117.345 68.7902171 117.345 68.7902171 116.3616 54.9496584 116.3616"></polygon>
                    <polygon id="Fill-80" fill="#BAACA4" mask="url(#mask-4)" points="54.9496584 115.0602 68.7902171 115.0602 68.7902171 114.0768 54.9496584 114.0768"></polygon>
                    <polygon id="Fill-81" fill="#BAACA4" mask="url(#mask-4)" points="54.9496584 112.7754 68.7902171 112.7754 68.7902171 111.792 54.9496584 111.792"></polygon>
                    <polygon id="Fill-82" fill="#BAACA4" mask="url(#mask-4)" points="54.9496584 110.4906 68.7902171 110.4906 68.7902171 109.5072 54.9496584 109.5072"></polygon>
                    <polygon id="Fill-83" fill="#9D928D" mask="url(#mask-4)" points="6.70587189 66.4818 47.2538434 66.4818 47.2538434 65.4984 6.70587189 65.4984"></polygon>
                    <polygon id="Fill-84" fill="#9D928D" mask="url(#mask-4)" points="6.70587189 77.9064 47.2538434 77.9064 47.2538434 76.923 6.70587189 76.923"></polygon>
                    <polygon id="Fill-85" fill="#9D928D" mask="url(#mask-4)" points="6.70587189 75.6216 47.2538434 75.6216 47.2538434 74.6382 6.70587189 74.6382"></polygon>
                    <polygon id="Fill-86" fill="#9D928D" mask="url(#mask-4)" points="6.70587189 73.3368 47.2538434 73.3368 47.2538434 72.3534 6.70587189 72.3534"></polygon>
                    <polygon id="Fill-87" fill="#9D928D" mask="url(#mask-4)" points="6.70587189 71.052 47.2538434 71.052 47.2538434 70.0686 6.70587189 70.0686"></polygon>
                    <polygon id="Fill-88" fill="#9D928D" mask="url(#mask-4)" points="6.70587189 68.7672 47.2538434 68.7672 47.2538434 67.7838 6.70587189 67.7838"></polygon>
                    <polygon id="Fill-89" fill="#9D928D" mask="url(#mask-4)" points="6.70527046 101.0562 28.847879 101.0562 28.847879 100.0728 6.70527046 100.0728"></polygon>
                    <polygon id="Fill-90" fill="#9D928D" mask="url(#mask-4)" points="6.70527046 107.9112 28.847879 107.9112 28.847879 106.9278 6.70527046 106.9278"></polygon>
                    <polygon id="Fill-91" fill="#9D928D" mask="url(#mask-4)" points="6.70527046 105.6264 28.847879 105.6264 28.847879 104.643 6.70527046 104.643"></polygon>
                    <polygon id="Fill-92" fill="#9D928D" mask="url(#mask-4)" points="6.70527046 103.3416 28.847879 103.3416 28.847879 102.3582 6.70527046 102.3582"></polygon>
                    <polygon id="Fill-93" fill="#BAACA4" mask="url(#mask-4)" points="69.7001708 119.6298 94.9954413 119.6298 94.9954413 107.2218 69.7001708 107.2218"></polygon>
                    <polygon id="Fill-94" fill="#9D928D" mask="url(#mask-4)" points="6.70527046 98.4612 28.8220178 98.4612 28.8220178 81.816 6.70527046 81.816"></polygon>
                    <polygon id="Fill-95" fill="#9D928D" mask="url(#mask-4)" points="32.7451032 101.0562 47.2700819 101.0562 47.2700819 100.0728 32.7451032 100.0728"></polygon>
                    <polygon id="Fill-96" fill="#9D928D" mask="url(#mask-4)" points="32.7451032 107.9112 47.2700819 107.9112 47.2700819 106.9278 32.7451032 106.9278"></polygon>
                    <polygon id="Fill-97" fill="#9D928D" mask="url(#mask-4)" points="32.7451032 105.6264 47.2700819 105.6264 47.2700819 104.643 32.7451032 104.643"></polygon>
                    <polygon id="Fill-98" fill="#9D928D" mask="url(#mask-4)" points="32.7451032 103.3416 47.2700819 103.3416 47.2700819 102.3582 32.7451032 102.3582"></polygon>
                    <polygon id="Fill-99" fill="#9D928D" mask="url(#mask-4)" points="32.7451032 98.4612 47.253242 98.4612 47.253242 81.816 32.7451032 81.816"></polygon>
                    <polygon id="Fill-100" fill="#BAACA4" mask="url(#mask-4)" points="54.9502598 125.244 74.0009502 125.244 74.0009502 123.5652 54.9502598 123.5652"></polygon>
                    <polygon id="Fill-101" fill="#9D928D" mask="url(#mask-4)" points="6.70527046 63.8928 47.2033238 63.8928 47.2033238 62.214 6.70527046 62.214"></polygon>
                    <polygon id="Fill-102" fill="#BAACA4" mask="url(#mask-4)" points="54.9502598 132.1782 74.0009502 132.1782 74.0009502 126.0042 54.9502598 126.0042"></polygon>
                    <polygon id="Fill-103" fill="#9D928D" mask="url(#mask-4)" points="6.70527046 114.2256 18.1678007 114.2256 18.1678007 112.5468 6.70527046 112.5468"></polygon>
                    <polygon id="Fill-104" fill="#9D928D" mask="url(#mask-4)" points="6.70527046 132.1722 18.1100641 132.1722 18.1100641 114.9858 6.70527046 114.9858"></polygon>
                    <polygon id="Fill-105" fill="#9D928D" mask="url(#mask-4)" points="21.2434804 114.2256 32.7060107 114.2256 32.7060107 112.5468 21.2434804 112.5468"></polygon>
                    <polygon id="Fill-106" fill="#9D928D" mask="url(#mask-4)" points="21.2434804 132.1722 32.648274 132.1722 32.648274 114.9858 21.2434804 114.9858"></polygon>
                    <polygon id="Fill-107" fill="#BAACA4" mask="url(#mask-4)" points="75.9447509 125.244 94.9954413 125.244 94.9954413 123.5652 75.9447509 123.5652"></polygon>
                    <polygon id="Fill-108" fill="#BAACA4" mask="url(#mask-4)" points="75.9447509 132.1782 94.9954413 132.1782 94.9954413 126.0042 75.9447509 126.0042"></polygon>
                    <polygon id="Fill-109" fill="#BAACA4" mask="url(#mask-4)" points="54.9502598 103.992 95.4507189 103.992 95.4507189 86.4072 54.9502598 86.4072"></polygon>
                    <polygon id="Fill-110" fill="#BAACA4" mask="url(#mask-4)" points="54.9496584 105.6732 94.9954413 105.6732 94.9954413 105.3072 54.9496584 105.3072"></polygon>
                    <polygon id="Fill-111" fill="#BAACA4" mask="url(#mask-4)" points="54.9496584 121.9146 94.9954413 121.9146 94.9954413 121.5486 54.9496584 121.5486"></polygon>
                    <polygon id="Fill-112" fill="#BAACA4" mask="url(#mask-4)" points="74.7894164 132.2256 75.1562847 132.2256 75.1562847 123.6462 74.7894164 123.6462"></polygon>
                    <polygon id="Fill-113" fill="#9D928D" mask="url(#mask-4)" points="30.357452 108.0078 30.7243203 108.0078 30.7243203 81.8124 30.357452 81.8124"></polygon>
                    <polygon id="Fill-114" fill="#9D928D" mask="url(#mask-4)" points="19.395306 132.1722 19.7621744 132.1722 19.7621744 112.5798 19.395306 112.5798"></polygon>
                    <polygon id="Fill-115" fill="#9D928D" mask="url(#mask-4)" points="35.8075516 114.2256 47.2700819 114.2256 47.2700819 112.5468 35.8075516 112.5468"></polygon>
                    <polygon id="Fill-116" fill="#9D928D" mask="url(#mask-4)" points="35.8075516 132.1722 47.2123452 132.1722 47.2123452 114.9858 35.8075516 114.9858"></polygon>
                    <polygon id="Fill-117" fill="#9D928D" mask="url(#mask-4)" points="33.9593772 132.1722 34.3262456 132.1722 34.3262456 112.5798 33.9593772 112.5798"></polygon>
                    <polygon id="Fill-118" fill="#BAACA4" mask="url(#mask-4)" points="54.8877117 70.3242 95.4266619 70.3242 95.4266619 69.9582 54.8877117 69.9582"></polygon>
                    <polygon id="Fill-119" fill="#9D928D" mask="url(#mask-4)" points="6.70587189 79.8726 47.2448221 79.8726 47.2448221 79.5066 6.70587189 79.5066"></polygon>
                    <polygon id="Fill-120" fill="#9D928D" mask="url(#mask-4)" points="6.70587189 110.1858 47.2448221 110.1858 47.2448221 109.8198 6.70587189 109.8198"></polygon>
                    <g id="Group-134" mask="url(#mask-4)" fill="#A3D6DC">
                        <g transform="translate(81.192171, 64.200000)">
                            <path d="M1.35416512,4.26204 C1.2561331,4.20024 1.22666335,4.07064 1.28860996,3.97344 C1.35055658,3.87564 1.47926121,3.84684 1.57669181,3.90864 C1.67472384,3.97104 1.70419359,4.10064 1.64224698,4.19844 C1.63442847,4.21164 1.62420427,4.22364 1.61398007,4.23444 C1.54601922,4.30224 1.43836441,4.31604 1.35416512,4.26204" id="Fill-121"></path>
                            <path d="M0.751899644,3.36084 C0.653867616,3.29904 0.624999288,3.16944 0.686344484,3.07164 C0.74768968,2.97444 0.87699573,2.94564 0.974426335,3.00744 C1.07245836,3.06984 1.10192811,3.19944 1.03998149,3.29724 C1.03156157,3.31044 1.02254021,3.32244 1.01171459,3.33324 C0.943753737,3.40104 0.836098932,3.41484 0.751899644,3.36084" id="Fill-122"></path>
                            <path d="M0.571292171,2.33952 C0.473260142,2.27772 0.443790391,2.14812 0.505737011,2.05032 C0.567082206,1.95312 0.696388256,1.92432 0.793818861,1.98612 C0.89185089,2.04852 0.921320641,2.17812 0.859374021,2.27592 C0.850954093,2.28912 0.841331317,2.30112 0.831107117,2.31192 C0.763146263,2.37972 0.655491459,2.39292 0.571292171,2.33952" id="Fill-123"></path>
                            <path d="M0.751899644,1.25802 C0.653867616,1.19622 0.624999288,1.06662 0.686344484,0.96882 C0.74768968,0.87162 0.87699573,0.84282 0.974426335,0.90462 C1.07245836,0.96702 1.10192811,1.09662 1.03998149,1.19442 C1.03156157,1.20762 1.02254021,1.21962 1.01171459,1.23042 C0.943753737,1.29822 0.836098932,1.31142 0.751899644,1.25802" id="Fill-124"></path>
                            <path d="M1.35416512,0.41688 C1.2561331,0.35508 1.22666335,0.22548 1.28860996,0.12768 C1.35055658,0.03048 1.47926121,0.00168 1.57669181,0.06348 C1.67472384,0.12588 1.70419359,0.25548 1.64224698,0.35328 C1.63442847,0.36588 1.62420427,0.37848 1.61398007,0.38928 C1.54601922,0.45708 1.43836441,0.47028 1.35416512,0.41688" id="Fill-125"></path>
                            <path d="M5.14836548,0.41688 C5.05033345,0.35508 5.02146512,0.22548 5.08281032,0.12768 C5.14415552,0.03048 5.27346157,0.00168 5.37089217,0.06348 C5.4689242,0.12588 5.49839395,0.25548 5.43644733,0.35328 C5.4280274,0.36588 5.41840463,0.37848 5.40818043,0.38928 C5.34021957,0.45708 5.23196335,0.47028 5.14836548,0.41688" id="Fill-126"></path>
                            <path d="M5.75063096,1.31808 C5.65259893,1.25628 5.62312918,1.12668 5.6850758,1.02888 C5.746421,0.93168 5.87572705,0.90288 5.97315765,0.96468 C6.07118968,1.02708 6.10065943,1.15668 6.03871281,1.25448 C6.03029288,1.26768 6.02067011,1.27968 6.01044591,1.29048 C5.94248505,1.35828 5.83483025,1.37208 5.75063096,1.31808" id="Fill-127"></path>
                            <path d="M5.93123843,2.33952 C5.83320641,2.27772 5.80373665,2.14812 5.86568327,2.05032 C5.92702847,1.95312 6.05633452,1.92432 6.15376512,1.98612 C6.25179715,2.04852 6.2812669,2.17812 6.21932028,2.27592 C6.21090036,2.28912 6.20127758,2.30112 6.19105338,2.31192 C6.12309253,2.37972 6.01543772,2.39292 5.93123843,2.33952" id="Fill-128"></path>
                            <path d="M5.75063096,3.36084 C5.65259893,3.29904 5.62312918,3.16944 5.6850758,3.07164 C5.746421,2.97444 5.87572705,2.94564 5.97315765,3.00744 C6.07118968,3.06984 6.10065943,3.19944 6.03871281,3.29724 C6.03029288,3.31044 6.02067011,3.32244 6.01044591,3.33324 C5.94248505,3.40104 5.83483025,3.41484 5.75063096,3.36084" id="Fill-129"></path>
                            <path d="M5.20844769,4.26204 C5.11041566,4.20024 5.08154733,4.07064 5.14289253,3.97344 C5.20483915,3.87564 5.33354377,3.84684 5.4315758,3.90864 C5.52900641,3.97104 5.55847616,4.10064 5.49652954,4.19844 C5.48810961,4.21164 5.47908826,4.22364 5.46826263,4.23444 C5.40030178,4.30224 5.29264698,4.31604 5.20844769,4.26204" id="Fill-130"></path>
                            <path d="M4.30529004,4.863 C4.20725801,4.8012 4.17778826,4.6716 4.23973488,4.5738 C4.30108007,4.4766 4.43038612,4.4472 4.52781673,4.5096 C4.62524733,4.572 4.65531851,4.7016 4.59337189,4.7994 C4.58495196,4.812 4.57532918,4.8246 4.56510498,4.8348 C4.49714413,4.9026 4.3888879,4.9164 4.30529004,4.863" id="Fill-131"></path>
                            <path d="M3.22116406,5.04318 C3.12313203,4.98138 3.0942637,4.85178 3.1556089,4.75398 C3.21695409,4.65678 3.34626014,4.62798 3.44369075,4.68978 C3.54172278,4.75218 3.57119253,4.88178 3.50924591,4.97958 C3.50082598,4.99278 3.4912032,5.00478 3.480979,5.01558 C3.41301815,5.08278 3.30536335,5.09718 3.22116406,5.04318" id="Fill-132"></path>
                            <path d="M2.19730071,4.863 C2.09926868,4.8012 2.07040036,4.6716 2.13174555,4.5738 C2.19369217,4.4766 2.3223968,4.4472 2.42042883,4.5096 C2.51785943,4.572 2.54732918,4.7016 2.48538256,4.7994 C2.47696263,4.812 2.46733986,4.8246 2.45711566,4.8348 C2.3891548,4.9026 2.2815,4.9164 2.19730071,4.863" id="Fill-133"></path>
                        </g>
                    </g>
                    <path d="M83.0811217,67.9137 C83.0053423,67.8663 82.9830897,67.7661 83.0306021,67.6911 C83.0781146,67.6161 83.1773495,67.5939 83.2525274,67.6413 C83.3277053,67.6893 83.3505594,67.7895 83.303047,67.8645 C83.2964313,67.8747 83.2892142,67.8843 83.2813957,67.8921 C83.2290719,67.9443 83.145474,67.9551 83.0811217,67.9137" id="Fill-135" fill="#F6BC39" mask="url(#mask-4)"></path>
                    <path d="M82.6391356,67.2525 C82.5633562,67.2051 82.5411036,67.1049 82.588616,67.0299 C82.6361285,66.9549 82.7353633,66.9321 82.8105413,66.9801 C82.8857192,67.0281 82.9085733,67.1277 82.8610609,67.2033 C82.8544452,67.2135 82.8472281,67.2231 82.8394096,67.2309 C82.7870858,67.2831 82.7040893,67.2939 82.6391356,67.2525" id="Fill-136" fill="#D96250" mask="url(#mask-4)"></path>
                    <path d="M82.5065819,66.50304 C82.4314039,66.45564 82.4085498,66.35544 82.4560623,66.28044 C82.5035747,66.20544 82.6028096,66.18324 82.6779875,66.23064 C82.7531655,66.27864 82.7760196,66.37824 82.7285071,66.45384 C82.7224929,66.46404 82.7146744,66.47364 82.7068559,66.48144 C82.654532,66.53364 82.5715356,66.54444 82.5065819,66.50304" id="Fill-137" fill="#B02D59" mask="url(#mask-4)"></path>
                    <path d="M82.6391356,65.70942 C82.5633562,65.66202 82.5411036,65.56182 82.588616,65.48682 C82.6361285,65.41182 82.7353633,65.38962 82.8105413,65.43702 C82.8857192,65.48502 82.9085733,65.58522 82.8610609,65.66022 C82.8544452,65.67042 82.8472281,65.68002 82.8394096,65.68782 C82.7870858,65.74002 82.7040893,65.75082 82.6391356,65.70942" id="Fill-138" fill="#77B5BE" mask="url(#mask-4)"></path>
                    <path d="M83.0811217,65.09238 C83.0053423,65.04438 82.9830897,64.94478 83.0306021,64.86978 C83.0781146,64.79478 83.1773495,64.77198 83.2525274,64.81998 C83.3277053,64.86798 83.3505594,64.96818 83.303047,65.04318 C83.2964313,65.05338 83.2892142,65.06298 83.2813957,65.07078 C83.2290719,65.12298 83.145474,65.13378 83.0811217,65.09238" id="Fill-139" fill="#77B5BE" mask="url(#mask-4)"></path>
                    <path d="M85.8649907,65.09238 C85.7892114,65.04438 85.7669587,64.94478 85.8144712,64.86978 C85.8619836,64.79478 85.9612185,64.77198 86.0363964,64.81998 C86.1115744,64.86798 86.1344285,64.96818 86.086916,65.04318 C86.0809018,65.05338 86.0730833,65.06298 86.0652648,65.07078 C86.0129409,65.12298 85.9299445,65.13378 85.8649907,65.09238" id="Fill-140" fill="#F6BC39" mask="url(#mask-4)"></path>
                    <path d="M86.3069167,65.75346 C86.2311374,65.70606 86.2088847,65.60586 86.2563972,65.53086 C86.3039096,65.45586 86.4031445,65.43366 86.4783224,65.48166 C86.5535004,65.52906 86.5763544,65.62926 86.528842,65.70426 C86.5222263,65.71446 86.5150093,65.72406 86.5065893,65.73246 C86.4548669,65.78406 86.3718705,65.79486 86.3069167,65.75346" id="Fill-141" fill="#D96250" mask="url(#mask-4)"></path>
                    <path d="M86.4394705,66.50304 C86.3636911,66.45564 86.3414384,66.35544 86.3889509,66.28044 C86.4364633,66.20544 86.5356982,66.18324 86.6108762,66.23064 C86.6860541,66.27864 86.7089082,66.37824 86.6613957,66.45384 C86.6553815,66.46404 86.647563,66.47364 86.6397445,66.48144 C86.5874206,66.53364 86.5044242,66.54444 86.4394705,66.50304" id="Fill-142" fill="#B02D59" mask="url(#mask-4)"></path>
                    <path d="M86.3069167,67.2525 C86.2311374,67.2051 86.2088847,67.1049 86.2563972,67.0299 C86.3039096,66.9549 86.4031445,66.9321 86.4783224,66.9801 C86.5535004,67.0281 86.5763544,67.1283 86.528842,67.2033 C86.5222263,67.2135 86.5150093,67.2231 86.5065893,67.2309 C86.4548669,67.2831 86.3718705,67.2939 86.3069167,67.2525" id="Fill-143" fill="#77B5BE" mask="url(#mask-4)"></path>
                    <path d="M85.9091352,67.9137 C85.8333559,67.8663 85.8111032,67.7661 85.8586157,67.6911 C85.9061281,67.6161 86.005363,67.5939 86.0805409,67.6413 C86.1557189,67.6893 86.178573,67.7895 86.1310605,67.8645 C86.1250463,67.8747 86.1172278,67.8843 86.1094093,67.8921 C86.0570854,67.9443 85.974089,67.9551 85.9091352,67.9137" id="Fill-144" fill="#77B5BE" mask="url(#mask-4)"></path>
                    <path d="M85.2463665,68.35458 C85.1705872,68.30718 85.1483345,68.20698 85.195847,68.13198 C85.2433594,68.05698 85.3425943,68.03478 85.4177722,68.08218 C85.4929502,68.13018 85.5158043,68.23038 85.4682918,68.30538 C85.4622776,68.31558 85.4544591,68.32518 85.4460391,68.33298 C85.3943167,68.38518 85.3113203,68.39598 85.2463665,68.35458" id="Fill-145" fill="#77B5BE" mask="url(#mask-4)"></path>
                    <path d="M84.4509238,68.48688 C84.3757459,68.43888 84.3528918,68.33928 84.4004043,68.26428 C84.4479167,68.18868 84.5471516,68.16648 84.6223295,68.21448 C84.6975075,68.26248 84.7203616,68.36208 84.6728491,68.43768 C84.6668349,68.44788 84.6590164,68.45748 84.6511979,68.46528 C84.598874,68.51748 84.5152762,68.52828 84.4509238,68.48688" id="Fill-146" fill="#77B5BE" mask="url(#mask-4)"></path>
                    <path d="M83.699806,68.35458 C83.6240267,68.30718 83.601774,68.20698 83.6492865,68.13198 C83.6967989,68.05698 83.7960338,68.03478 83.8712117,68.08218 C83.9463897,68.13018 83.9692438,68.23038 83.9217313,68.30538 C83.9151157,68.31558 83.9078986,68.32518 83.8994786,68.33298 C83.8477562,68.38518 83.7647598,68.39598 83.699806,68.35458" id="Fill-147" fill="#77B5BE" mask="url(#mask-4)"></path>
                    <g id="Group-153" mask="url(#mask-4)" fill="#6D6F6E">
                        <g transform="translate(82.996441, 63.600000)">
                            <path d="M0.835076512,2.96388 C0.872364769,2.96388 0.907247331,2.98668 0.920478648,3.02328 C0.934912811,3.06228 0.952955516,3.09948 0.974005338,3.13428 C1.09489146,3.33648 1.3083968,3.45708 1.5441548,3.45708 C1.59467438,3.45708 1.63557117,3.49788 1.63557117,3.54768 C1.63557117,3.59748 1.59467438,3.63828 1.5441548,3.63828 C1.24825445,3.63828 0.970396797,3.48108 0.818236655,3.22788 C0.791172598,3.18288 0.768318505,3.13548 0.750275801,3.08568 C0.73283452,3.03888 0.756891459,2.98668 0.803802491,2.96928 C0.81402669,2.96568 0.824852313,2.96388 0.835076512,2.96388" id="Fill-148"></path>
                            <path d="M0.874469751,2.79318 C0.874469751,2.84358 0.833572954,2.88498 0.782451957,2.88498 C0.731932384,2.88498 0.691035587,2.84358 0.691035587,2.79318 C0.691035587,2.74278 0.731932384,2.70138 0.782451957,2.70138 C0.833572954,2.70138 0.874469751,2.74278 0.874469751,2.79318" id="Fill-149"></path>
                            <path d="M2.53776655,2.14884 L2.49145694,2.07984 L2.48965267,2.07984 C2.44454591,2.01384 2.39763488,1.95504 2.35192669,1.89804 L2.23104057,1.99344 C2.28095872,2.05524 2.33207972,2.11944 2.37838932,2.18964 L2.40785907,2.23344 L2.40906192,2.23344 C2.51731815,2.39784 2.57445338,2.59044 2.57445338,2.79444 C2.57385196,3.35784 2.11496584,3.81684 1.54962776,3.81804 C0.984891103,3.81684 0.525403559,3.35784 0.526004982,2.79444 C0.526004982,2.59044 0.583140214,2.39784 0.691396441,2.23344 L0.693200712,2.23344 L0.722069039,2.18964 C0.768980071,2.11944 0.820101068,2.05464 0.870620641,1.99284 C0.99812242,1.83264 1.11900854,1.68204 1.11900854,1.47984 L1.11900854,1.41324 C1.12141423,1.28424 1.17193381,1.23684 1.30665267,1.23684 L1.5634605,1.23684 L1.79440712,1.23684 C1.92912598,1.23684 1.98024698,1.28424 1.98205125,1.41144 L1.98205125,1.47984 C1.98205125,1.68204 2.10293737,1.83264 2.23043915,1.99284 L2.23104057,1.99344 L2.35072384,1.89624 C2.23104057,1.74624 2.13601566,1.62804 2.13601566,1.47984 L2.13601566,1.40844 C2.13240712,1.19844 2.011521,1.08324 1.79440712,1.08324 L1.30665267,1.08324 C1.02939644,1.08324 0.967449822,1.26084 0.965044128,1.41024 L0.965044128,1.47984 C0.965044128,1.62804 0.865809253,1.75224 0.750335943,1.89624 C0.700417794,1.95864 0.654709609,2.01624 0.610805694,2.07984 L0.6084,2.07984 L0.562691815,2.14884 C0.438197153,2.33844 0.372040569,2.56164 0.372040569,2.79444 C0.371439146,3.44184 0.900090391,3.96984 1.54902633,3.97164 L1.54962776,3.97164 L1.55022918,3.97164 C2.19976655,3.96984 2.72781637,3.44184 2.72841779,2.79444 C2.72841779,2.56104 2.66226121,2.33784 2.53776655,2.14884" id="Fill-150"></path>
                            <path d="M1.95655089,0.65994 L1.16086762,0.65994 C1.12237651,0.65994 1.09110249,0.70014 1.09110249,0.74934 C1.09110249,0.79914 1.12237651,0.83934 1.16086762,0.83934 L1.95655089,0.83934 C1.99504199,0.83934 2.02631601,0.79914 2.02631601,0.74934 C2.02631601,0.70014 1.99504199,0.65994 1.95655089,0.65994" id="Fill-151"></path>
                            <path d="M1.95655089,0.29118 L1.16086762,0.29118 C1.12237651,0.29118 1.09110249,0.33138 1.09110249,0.38058 C1.09110249,0.43038 1.12237651,0.47058 1.16086762,0.47058 L1.95655089,0.47058 C1.99504199,0.47058 2.02631601,0.43038 2.02631601,0.38058 C2.02631601,0.33138 1.99504199,0.29118 1.95655089,0.29118" id="Fill-152"></path>
                        </g>
                    </g>
                    <path d="M65.6080854,66.05322 L65.4240498,66.05322 L65.3753345,65.78142 C65.3332349,65.74002 65.280911,65.70642 65.2195658,65.68002 C65.1576192,65.65362 65.0842456,65.64042 64.998242,65.64042 C64.7985694,65.64042 64.644605,65.71242 64.5369502,65.85702 C64.4292954,66.00222 64.3757687,66.18582 64.3757687,66.40842 L64.3757687,66.43842 C64.3757687,66.66102 64.4280925,66.84522 64.5333416,66.99042 C64.6391922,67.13622 64.7853381,67.20882 64.9717794,67.20882 C65.0595872,67.20882 65.1383737,67.19502 65.2099431,67.16802 C65.2815125,67.14042 65.3368434,67.10742 65.3753345,67.06782 L65.4240498,66.79602 L65.6080854,66.79602 L65.6080854,67.13742 C65.5527544,67.20882 65.4691566,67.27242 65.3578932,67.32822 C65.2472313,67.38402 65.1185267,67.41222 64.9717794,67.41222 C64.7215872,67.41222 64.5159004,67.31982 64.3559217,67.13502 C64.1953416,66.95022 64.1147509,66.71802 64.1147509,66.43842 L64.1147509,66.41082 C64.1147509,66.12942 64.1941388,65.89662 64.3517117,65.71182 C64.5092847,65.52822 64.7161744,65.43582 64.9717794,65.43582 C65.1185267,65.43582 65.2472313,65.46402 65.3578932,65.52102 C65.4691566,65.57742 65.5527544,65.64102 65.6080854,65.71122 L65.6080854,66.05322 Z" id="Fill-154" fill="#151B36" mask="url(#mask-4)"></path>
                    <path d="M66.147442,66.6864 C66.147442,66.8376 66.1793174,66.963 66.2436698,67.0614 C66.3074206,67.1598 66.4024456,67.209 66.5287445,67.209 C66.6520363,67.209 66.7458584,67.1598 66.8102107,67.0614 C66.874563,66.963 66.9064384,66.8376 66.9064384,66.6864 L66.9064384,66.6576 C66.9064384,66.5082 66.874563,66.3834 66.8102107,66.2838 C66.7458584,66.1848 66.6508335,66.135 66.5257374,66.135 C66.4006413,66.135 66.3062178,66.1848 66.2424669,66.2838 C66.1793174,66.3834 66.147442,66.5082 66.147442,66.6576 L66.147442,66.6864 Z M65.8870256,66.6576 C65.8870256,66.4464 65.9441609,66.2724 66.0590327,66.1356 C66.1733032,65.9988 66.3290719,65.9304 66.5257374,65.9304 C66.7230043,65.9304 66.8793744,65.9988 66.9948477,66.135 C67.1097196,66.2712 67.1674562,66.4458 67.1674562,66.6576 L67.1674562,66.6864 C67.1674562,66.8994 67.1097196,67.0734 66.9954491,67.209 C66.8805772,67.3446 66.7248085,67.4118 66.5287445,67.4118 C66.3302747,67.4118 66.1733032,67.344 66.0590327,67.2084 C65.9441609,67.0722 65.8870256,66.8982 65.8870256,66.6864 L65.8870256,66.6576 Z" id="Fill-155" fill="#151B36" mask="url(#mask-4)"></path>
                    <path d="M67.3537171,67.21812 L67.5690267,67.18092 L67.5690267,66.16152 L67.3537171,66.12432 L67.3537171,65.95692 L67.8035819,65.95692 L67.8204217,66.14292 C67.8661299,66.07512 67.9250694,66.02292 67.9978416,65.98572 C68.0700125,65.94912 68.1536103,65.93052 68.2486352,65.93052 C68.3442616,65.93052 68.4260552,65.95272 68.4946174,65.99652 C68.5625783,66.04032 68.6136993,66.10632 68.6485819,66.19452 C68.6930872,66.11352 68.7526281,66.04932 68.8272046,66.00192 C68.9011797,65.95392 68.9871833,65.93052 69.0858167,65.93052 C69.2325641,65.93052 69.3480374,65.98032 69.4322367,66.07992 C69.5170374,66.18012 69.5597384,66.33012 69.5597384,66.53112 L69.5597384,67.18092 L69.775048,67.21812 L69.775048,67.38432 L69.0822082,67.38432 L69.0822082,67.21812 L69.2975178,67.18092 L69.2975178,66.52812 C69.2975178,66.38772 69.2734609,66.28812 69.2247456,66.22932 C69.1766317,66.17112 69.1044609,66.14172 69.0094359,66.14172 C68.918621,66.14172 68.8458488,66.17352 68.7905178,66.23712 C68.7351868,66.30072 68.7033114,66.38112 68.6948915,66.47772 L68.6948915,67.18092 L68.9102011,67.21812 L68.9102011,67.38432 L68.2185641,67.38432 L68.2185641,67.21812 L68.4338737,67.18092 L68.4338737,66.52812 C68.4338737,66.39432 68.4092153,66.29652 68.3592972,66.23472 C68.309379,66.17292 68.2372082,66.14172 68.1433861,66.14172 C68.0639982,66.14172 67.9984431,66.15792 67.9473221,66.19032 C67.8962011,66.22272 67.8571085,66.26892 67.8300445,66.32772 L67.8300445,67.18092 L68.0453541,67.21812 L68.0453541,67.38432 L67.3537171,67.38432 L67.3537171,67.21812 Z" id="Fill-156" fill="#151B36" mask="url(#mask-4)"></path>
                    <path d="M70.9876381,67.1733 C70.9425313,67.2495 70.8841932,67.3083 70.8138267,67.3503 C70.7428587,67.3917 70.6610651,67.4121 70.5684459,67.4121 C70.4132786,67.4121 70.2917911,67.3623 70.2045847,67.2627 C70.1173783,67.1637 70.0740758,67.0089 70.0740758,66.7983 L70.0740758,66.1611 L69.9098872,66.1245 L69.9098872,65.9571 L70.0740758,65.9571 L70.3344922,65.9571 L70.3344922,66.8013 C70.3344922,66.9537 70.3567448,67.0581 70.4018516,67.1151 C70.4463569,67.1721 70.5167235,67.2009 70.6123498,67.2009 C70.7043676,67.2009 70.7813498,67.1823 70.8414922,67.1451 C70.9016345,67.1073 70.9473427,67.0545 70.9786167,66.9861 L70.9786167,66.1611 L70.7867626,66.1245 L70.7867626,65.9571 L70.9786167,65.9571 L71.2390331,65.9571 L71.2390331,67.1811 L71.4026203,67.2183 L71.4026203,67.3845 L71.0050794,67.3845 L70.9876381,67.1733 Z" id="Fill-157" fill="#151B36" mask="url(#mask-4)"></path>
                    <path d="M71.5707181,67.21812 L71.7866292,67.18092 L71.7866292,66.16152 L71.5707181,66.12432 L71.5707181,65.95692 L72.0193801,65.95692 L72.0374228,66.16932 C72.0855367,66.09372 72.1450776,66.03492 72.216647,65.99352 C72.2888178,65.95152 72.3706114,65.93052 72.4620278,65.93052 C72.6165936,65.93052 72.7356754,65.97552 72.8204762,66.06552 C72.9052769,66.15612 72.9473765,66.29532 72.9473765,66.48312 L72.9473765,67.18092 L73.1626861,67.21812 L73.1626861,67.38432 L72.4716505,67.38432 L72.4716505,67.21812 L72.6869601,67.18092 L72.6869601,66.48852 C72.6869601,66.36312 72.6617004,66.27372 72.6123836,66.22092 C72.5624655,66.16812 72.4866861,66.14172 72.3838427,66.14172 C72.3092662,66.14172 72.2431096,66.15972 72.185373,66.19572 C72.1270349,66.23172 72.0813267,66.28092 72.0470456,66.34332 L72.0470456,67.18092 L72.2623552,67.21812 L72.2623552,67.38432 L71.5707181,67.38432 L71.5707181,67.21812 Z" id="Fill-158" fill="#151B36" mask="url(#mask-4)"></path>
                    <path d="M73.5679253,65.5914 L73.8283416,65.5914 L73.8283416,65.3262 L73.5679253,65.3262 L73.5679253,65.5914 Z M73.3520142,67.218 L73.5673238,67.1814 L73.5673238,66.1614 L73.3520142,66.1242 L73.3520142,65.9568 L73.8283416,65.9568 L73.8283416,67.1814 L74.0436512,67.218 L74.0436512,67.3842 L73.3520142,67.3842 L73.3520142,67.218 Z" id="Fill-159" fill="#151B36" mask="url(#mask-4)"></path>
                    <path d="M74.5038004,66.72474 C74.5038004,66.86814 74.5332701,66.98334 74.592811,67.07034 C74.6517505,67.15734 74.7425655,67.20114 74.8664587,67.20114 C74.9440423,67.20114 75.0089961,67.18314 75.0619214,67.14834 C75.1148466,67.11294 75.1587505,67.06314 75.1930317,66.99894 L75.1930317,66.33714 C75.159352,66.27714 75.1160495,66.22974 75.0619214,66.19434 C75.0077932,66.15894 74.9440423,66.14154 74.8688644,66.14154 C74.7443698,66.14154 74.6529534,66.19314 74.592811,66.29574 C74.5338715,66.39894 74.5038004,66.53274 74.5038004,66.69714 L74.5038004,66.72474 Z M75.206263,67.21434 C75.159352,67.27914 75.1022167,67.32834 75.0348573,67.36194 C74.9674979,67.39554 74.8893128,67.41174 74.8003021,67.41174 C74.6252879,67.41174 74.4893662,67.34874 74.3907327,67.22274 C74.2927007,67.09674 74.243384,66.93054 74.243384,66.72474 L74.243384,66.69714 C74.243384,66.46734 74.2927007,66.28254 74.3907327,66.14154 C74.4893662,66.00054 74.6264907,65.93034 74.8027078,65.93034 C74.8875085,65.93034 74.9620851,65.94594 75.0270388,65.97714 C75.0913911,66.00834 75.1473235,66.05394 75.1930317,66.11274 L75.1930317,65.53074 L74.9771206,65.49414 L74.9771206,65.32614 L75.1930317,65.32614 L75.453448,65.32614 L75.453448,67.18134 L75.6687577,67.21794 L75.6687577,67.38414 L75.2273128,67.38414 L75.206263,67.21434 Z" id="Fill-160" fill="#151B36" mask="url(#mask-4)"></path>
                    <path d="M76.3815046,67.19424 C76.4681096,67.19424 76.5468961,67.17384 76.6184655,67.13244 C76.6900349,67.09104 76.7411559,67.04124 76.7718285,66.98304 L76.7718285,66.74844 L76.4939708,66.74844 C76.3875189,66.74844 76.3027181,66.77304 76.2407715,66.82224 C76.1788249,66.87144 76.1475509,66.93144 76.1475509,67.00164 C76.1475509,67.06404 76.1667964,67.11204 76.205889,67.14504 C76.2443801,67.17804 76.3033196,67.19424 76.3815046,67.19424 L76.3815046,67.19424 Z M76.8006968,67.38444 C76.7928783,67.34604 76.7868641,67.31124 76.7820527,67.28004 C76.7778427,67.24944 76.7748356,67.21824 76.7730313,67.18764 C76.7225117,67.25184 76.6599637,67.30524 76.5841843,67.34784 C76.5090064,67.39104 76.4290171,67.41204 76.3430135,67.41204 C76.1944619,67.41204 76.0807929,67.37604 76.0032093,67.30284 C75.9256256,67.23084 75.8871345,67.12824 75.8871345,66.99624 C75.8871345,66.86124 75.9418641,66.75684 76.0519246,66.68304 C76.1613836,66.60984 76.3117395,66.57324 76.5029922,66.57324 L76.7718285,66.57324 L76.7718285,66.40644 C76.7718285,66.32304 76.7453658,66.25704 76.6924406,66.20844 C76.6395153,66.15924 76.5661416,66.13464 76.4717181,66.13464 C76.406163,66.13464 76.3490278,66.14304 76.2991096,66.15984 C76.2491915,66.17664 76.2088961,66.19944 76.1776221,66.22884 L76.1499566,66.37884 L75.9490811,66.37884 L75.9490811,66.10224 C76.0140349,66.05004 76.0934228,66.00864 76.186042,65.97744 C76.2780598,65.94624 76.3790989,65.93064 76.4873552,65.93064 C76.6497395,65.93064 76.7808498,65.97204 76.8812875,66.05424 C76.9817253,66.13704 77.0322448,66.25524 77.0322448,66.40944 L77.0322448,67.09704 C77.0322448,67.11504 77.0322448,67.13304 77.0328463,67.15104 C77.0334477,67.16844 77.0340491,67.18584 77.0364548,67.20324 L77.1417039,67.21824 L77.1417039,67.38444 L76.8006968,67.38444 Z" id="Fill-161" fill="#151B36" mask="url(#mask-4)"></path>
                    <path d="M77.6204972,66.72474 C77.6204972,66.86814 77.6499669,66.98334 77.7095078,67.07034 C77.7684473,67.15734 77.8592623,67.20114 77.9831555,67.20114 C78.0607391,67.20114 78.1256929,67.18314 78.1786181,67.14834 C78.2315434,67.11294 78.2754473,67.06314 78.3097285,66.99894 L78.3097285,66.33714 C78.2760488,66.27714 78.2327463,66.22974 78.1786181,66.19434 C78.12449,66.15894 78.0607391,66.14154 77.9855612,66.14154 C77.8610665,66.14154 77.7696502,66.19314 77.7095078,66.29574 C77.6505683,66.39894 77.6204972,66.53274 77.6204972,66.69714 L77.6204972,66.72474 Z M78.3229598,67.21434 C78.2760488,67.27914 78.2189135,67.32834 78.1515541,67.36194 C78.0841947,67.39554 78.0060096,67.41174 77.9169989,67.41174 C77.7419847,67.41174 77.606063,67.34874 77.5074295,67.22274 C77.4093975,67.09674 77.3600808,66.93054 77.3600808,66.72474 L77.3600808,66.69714 C77.3600808,66.46734 77.4093975,66.28254 77.5074295,66.14154 C77.606063,66.00054 77.7431875,65.93034 77.9194046,65.93034 C78.0042053,65.93034 78.0787819,65.94594 78.1437356,65.97714 C78.2080879,66.00834 78.2640203,66.05394 78.3097285,66.11274 L78.3097285,65.53074 L78.0938174,65.49414 L78.0938174,65.32614 L78.3097285,65.32614 L78.5701448,65.32614 L78.5701448,67.18134 L78.7854544,67.21794 L78.7854544,67.38414 L78.3440096,67.38414 L78.3229598,67.21434 Z" id="Fill-162" fill="#151B36" mask="url(#mask-4)"></path>
                    <polygon id="Fill-163" fill="#151B36" mask="url(#mask-4)" points="79.0703488 66.6744 79.716879 66.6744 79.716879 66.471 79.0703488 66.471"></polygon>
                    <path d="M80.2539502,65.5914 L80.5143665,65.5914 L80.5143665,65.3262 L80.2539502,65.3262 L80.2539502,65.5914 Z M80.0380391,67.218 L80.2539502,67.1814 L80.2539502,66.1614 L80.0380391,66.1242 L80.0380391,65.9568 L80.5143665,65.9568 L80.5143665,67.1814 L80.7296762,67.218 L80.7296762,67.3842 L80.0380391,67.3842 L80.0380391,67.218 Z" id="Fill-164" fill="#151B36" mask="url(#mask-4)"></path>
                    <polygon id="Fill-165" fill="#BAACA4" mask="url(#mask-4)" points="54.9502598 62.9454 62.4770747 62.9454 62.4770747 62.2134 54.9502598 62.2134"></polygon>
                    <polygon id="Fill-166" fill="#BAACA4" mask="url(#mask-4)" points="63.1873559 62.9454 70.7141708 62.9454 70.7141708 62.2134 63.1873559 62.2134"></polygon>
                    <polygon id="Fill-167" fill="#BAACA4" mask="url(#mask-4)" points="71.4250534 62.9454 78.9518683 62.9454 78.9518683 62.2134 71.4250534 62.2134"></polygon>
                    <polygon id="Fill-168" fill="#BAACA4" mask="url(#mask-4)" points="79.6621495 62.9454 87.1889644 62.9454 87.1889644 62.2134 79.6621495 62.2134"></polygon>
                    <polygon id="Fill-169" fill="#BAACA4" mask="url(#mask-4)" points="87.899847 62.9454 95.4266619 62.9454 95.4266619 62.2134 87.899847 62.2134"></polygon>
                    <polygon id="Fill-170" fill="#F6CEA7" mask="url(#mask-4)" points="136.277149 101.97876 133.528644 97.04856 158.474488 86.52156 144.608669 51.11556 154.207989 54.43536 168.736577 88.58436 168.60306 90.74316 167.208359 92.57496"></polygon>
                    <path d="M132.401035,104.53176 L136.303672,101.94996 L133.739202,96.96876 L129.362042,98.62896 C129.126284,98.69076 128.894135,98.77656 128.668601,98.89236 C126.994238,99.74976 126.333875,101.79936 127.193911,103.46976 C128.053946,105.14016 130.107807,105.79896 131.78217,104.94096 C132.007704,104.82516 132.213391,104.68656 132.401035,104.53176" id="Fill-171" fill="#F6CEA7" mask="url(#mask-4)"></path>
                    <polygon id="Fill-172" fill="#FEFEFE" mask="url(#mask-4)" points="160.806146 68.25444 151.380637 73.66404 144.567712 64.43424 144.565306 47.46564 152.179328 50.76324"></polygon>
                    <path d="M3.19740783,95.15016 L0.957105338,95.53896 C0.401991459,95.63556 -0.00998362989,96.31776 0.000240569395,97.12416 L0.0345217082,99.87576 C0.0447459075,100.69116 0.478372242,101.37096 1.04190605,101.45436 L3.28040427,101.78556 C3.70380641,101.91456 4.16389537,101.89296 4.64683843,101.60796 C5.41605907,101.15316 5.98500569,100.13016 6.08965338,98.93856 C6.27368897,96.83376 5.12497011,95.04396 3.70681352,95.06196 C3.53119786,95.06376 3.36159644,95.09556 3.19740783,95.15016" id="Fill-173" fill="#F6CEA7" mask="url(#mask-4)"></path>
                    <path d="M98.8797349,95.15016 L96.6394324,95.53896 C96.0843185,95.63556 95.6723434,96.31776 95.6825676,97.12416 L95.7168488,99.87576 C95.727073,100.69116 96.1606993,101.37096 96.7242331,101.45436 L98.9627313,101.78556 C99.3861335,101.91456 99.8462224,101.89296 100.329165,101.60796 C101.098386,101.15316 101.667333,100.13016 101.77198,98.93856 C101.956016,96.83376 100.807297,95.04396 99.3891406,95.06196 C99.2135249,95.06376 99.0439235,95.09556 98.8797349,95.15016" id="Fill-174" fill="#F6CEA7" mask="url(#mask-4)"></path>
                    <path d="M98.5938181,101.77284 L100.834121,101.38404 C101.389235,101.28744 101.80121,100.60524 101.790985,99.79884 L101.756704,97.04724 C101.74648,96.23184 101.312854,95.55204 100.74932,95.46864 L98.5108217,95.13744 C98.0874196,95.00844 97.6273306,95.03004 97.1443875,95.31504 C96.3751669,95.76984 95.8062203,96.79284 95.7015726,97.98444 C95.517537,100.08924 96.6662559,101.87904 98.0844125,101.86104 C98.2600281,101.85924 98.4296295,101.82744 98.5938181,101.77284" id="Fill-175" fill="#F6CEA7" mask="url(#mask-4)"></path>
                </g>
            </g>
        </g>
    </g>
</svg>